<mxfile host="65bd71144e">
    <diagram id="IkTKAMjCu5KAdRLZSwWX" name="Page-1">
        <mxGraphModel dx="1425" dy="802" grid="1" gridSize="10" guides="1" tooltips="1" connect="1" arrows="1" fold="1" page="1" pageScale="1" pageWidth="827" pageHeight="1169" math="0" shadow="0">
            <root>
                <mxCell id="0"/>
                <mxCell id="1" parent="0"/>
                <mxCell id="2" value="" style="shape=image;imageAspect=0;aspect=fixed;verticalLabelPosition=bottom;verticalAlign=top;image=data:image/jpeg,/9j/4AAQSkZJRgABAQEAYABgAAD/2wBDAAMCAgMCAgMDAwMEAwMEBQgFBQQEBQoHBwYIDAoMDAsKCwsNDhIQDQ4RDgsLEBYQERMUFRUVDA8XGBYUGBIUFRT/2wBDAQMEBAUEBQkFBQkUDQsNFBQUFBQUFBQUFBQUFBQUFBQUFBQUFBQUFBQUFBQUFBQUFBQUFBQUFBQUFBQUFBQUFBT/wAARCAJPAhEDASIAAhEBAxEB/8QAHwAAAQUBAQEBAQEAAAAAAAAAAAECAwQFBgcICQoL/8QAtRAAAgEDAwIEAwUFBAQAAAF9AQIDAAQRBRIhMUEGE1FhByJxFDKBkaEII0KxwRVS0fAkM2JyggkKFhcYGRolJicoKSo0NTY3ODk6Q0RFRkdISUpTVFVWV1hZWmNkZWZnaGlqc3R1dnd4eXqDhIWGh4iJipKTlJWWl5iZmqKjpKWmp6ipqrKztLW2t7i5usLDxMXGx8jJytLT1NXW19jZ2uHi4+Tl5ufo6erx8vP09fb3+Pn6/8QAHwEAAwEBAQEBAQEBAQAAAAAAAAECAwQFBgcICQoL/8QAtREAAgECBAQDBAcFBAQAAQJ3AAECAxEEBSExBhJBUQdhcRMiMoEIFEKRobHBCSMzUvAVYnLRChYkNOEl8RcYGRomJygpKjU2Nzg5OkNERUZHSElKU1RVVldYWVpjZGVmZ2hpanN0dXZ3eHl6goOEhYaHiImKkpOUlZaXmJmaoqOkpaanqKmqsrO0tba3uLm6wsPExcbHyMnK0tPU1dbX2Nna4uPk5ebn6Onq8vP09fb3+Pn6/9oADAMBAAIRAxEAPwD84qK7H4h2vhbRXsdF8OSHVrixDjUNeDsIr2Y4+WBDwIUwQrEbn3MxwNoHHVic24UUU6F1jlRnQSorAshJAYemRzTGNorT1PTIlgF9YlpLBzghuXhb+4/9D3/MVmUgCiium+HvgpvHWvtaSXi6ZptrbyX2oag6bxa20Yy77QQWPRVUH5mZRxnNAHM0V7D4ah+FHjHxDaeGYtG1fQbe6fyU8T6lr9uhh6/vponjSLb3MYkB7B2OM8h8YPCOieA/iFqWheHtet/E+lWkduE1a1lSSK4dreN5SpQlcCRnGMnGMEkg0XFfWxxtFFPlRE2bH35UE8YwfSmMZRRVvSdIvte1GDT9MsrjUb+4bZDa2kTSyyN6Kqgkn2AoAqUV9G+OP2e7+1tfHem6f8NNd08eFl32Gvi2vH/thY7qOCQsGBjYMkjTqYgu1IzncMkfOVJO4k0wooq1b6TfXen3d/BZXE1jaFFubmOJmihLkhA7AYXcQcZ64OKYyrRW63gHxOsuqRN4c1YSaUofUENjLmzUozgyjb+7GxHbLY4UnoDSaf4E8S6teWdnY+HtVvLu9txd2sFvZSySTwFiglRQuWTcCu4ZGQRnNIVzDorWs/COu6itu1rouo3IuLtrCEw2sj+bcgAmFcDmQBlJQc4Ycc1AfD2qjQBrp0y8/sQ3JshqXkP9mNwE3mHzMbd+0htuc4OcYpjKFFdmvwU+Ib2OuXq+A/E7WehPJHq1wNHuDHp7RoHkW4bZiIqhDMHxgHJ4rItfAniW+vtLsrbw9qtxe6pbNe2FvFZStJeW67900ShcyIPKlyy5A8t+flOADDor1bx/+y78S/hxpujahqnhPVpbHUtHXWvtFtptyY7SLDM6Ts0ShJI1Xc4yQqspJwar/C34BeIPifY6/PbWep28lpoEmt6TDFpkk51kpfQWZht8Ebv3k7Dcgf5oyuMngCx5jRXVwfCTxzdeMZ/CMPgzxDN4rt08ybQo9Kna+jXaH3NAE3gbWVskdGB6GsWTw1q8XiNvD76Vepry3ZsG0trdxdC5D7DCYsbvM3/LsxnPGM0AZ1Fdx/wor4k/8JR/wjX/AAr3xV/wkf2X7d/Y/wDYtz9r+z7tnneTs3+Xu+XfjGeM5qpoXwh8d+KNW1PS9G8FeItW1PS7j7Jf2VjpU801pN8/7qVFQlH/AHUvysAf3b/3TgA5Kium8S/C/wAZeC9JtNU8QeEtd0LTLuQxW97qemzW8MzjOVR3UBiMHgHsa5mgAooooAKKKKACiiigAooooAKKKKACiiigAooooAKKKKACiiigAooooAKKKKACiiigAooooAKKKKACiiigAooooAKKKKACiiigDsPiH4e0Cwex1jwtqS3Wh6oHaOxuJVN7p8i43wTKOoG4bZANrjnghlHH0UUgCnQxGaVI1KguwUFmCgZ9SegptFMDXv72DT7OTTbFxKrkfabof8tiDkKvogP5nn0rIoooAK7v4Q+IdM0jV9a0vWrj7BpXiHSptImv9hcWhZ45I5Sq8lVkij3Ac7S2Mng8JRSE1c9Pi/Z38UJdI97c6LYaETuPiCXVrdrHy/8AnorK5Z+Oiqpc5A254rhfFcWjQeI9Qi8PTXVzoscpS1nvQBLKg43sAAF3EEhewIBJIycqigNQqa5k8zyv3vm4jA+7jb7e/wBahooGFex/sf8AiXSfCH7Rng/Vtb1C30vTIWullu7uQRxRl7WZF3MeACzKMnjmvHKKHqJq6sfs3c/tBfC+2t5ZX+InhVkjUsVj1m3diAOyhySfYDJr8ZKKKmMeUiEOQK9T/Z88a+H/AAt4l1Cy8XTPF4Z1O3j+0FYmkAlt547mHKqC3zNEY+AR+9OeMkeWUVT1LavofT+qftHaJqmp+ANaeZDqOo6gLnxrG9vKQAtsthlezbrd7h8Lu5kGecgp4s/aC8O2/gu6j8O38q+INDni0Hw/JHDKnmaTG1pKJmJxjdJZtlSQxFwQV+8a+YaKXKieRH1trXx88ERQ6/aaTrM6W9hBPrXh9ltHX/ibXIvhLHymRsF9Dhmwp+xrgnPzTfsnXvhnS9M8XWWpXlz4m8K6Bpum/ESWVLdoEsNVsZBmyAkyCZhM0BkUrvwoHAyvyHWxb+MtftPC914ag1zUofDl3OLm40iO7kW0mmGMSPCDsZhtXDEZ4HpTSsVFcp9L+DPjVoGua78JfH/iL4kS+H9X8D3F3d6voIsrx7nVZ2v576SW0aJTBuvBOLeQSyQhfL/ij2qOg+Gfxf8Ahpe+Lvhj4/17xnYeErnwt4e1XQ5/C0ek3s0gMkuoG18qSOJozGY75QxLKVMXCkN8vxhRVXKufX3hz4vfD+7HhOe98YW2kxXvwwuvAGpQT6feST6XdFbgJcyBIikkDExYMTu+H5QYONTQPid8NvDfgS08D2vxRtBIPhnq3hmTXY9K1BLUX13rKXfk7fI80xGIyAybOVBJUMRHXxbRRcLn2tp3x9+HEGg6n4Gl1fSdYC+B9G8OJ4g16DVo9KvZra8luJ4ibTZerDsuFRMoAxtlDKFINcpo/wAWPC9v8bZfiTrPj7TYPEMzP4dibw1pWpzwafbNov2ODV4pbxhNK0UmwPHKDKxWR1ySpr5UopXC59C6XceEbL4Y+JPhs3xd05ZdSOm6lHrqWOq/2WVt5r0PpjjyPPC5uo7pWFtsMisG5CPXT/Ez9ofw7q/gn4l6XoXiO+l1e6PhKxtNXaOeG4146XBcRz37nkpmTyHUSsHwIzjcpC/KdFFwufU/x9+OnhT4hx/tAx2mvyasniLxdpOreHVngnxJDDHeRTSoHQeURHJAmG2sVwACFIHyxRRQIKKKKACiiigAooooAKKKKACiiigAooooAKKKKACiiigAooooAKKKKACiiigAooooAKKKKACiiigAooooAKKKKACiiigAooooAKK9BX4LaprNtJL4P1Kx+IMsLAXFp4agvJLmAHo5hlgjdkzxvQMoOAxGVzyHiHwzrHhLUTp+uaTfaLfhQ5tdQtnglCnodrgHB9cUhXRm0Vs+D/COo+OfEFvpGmJGbiUM7SzyCOGCNVLSSyOeERFBZmPQCuivfhDfyWVteeHdX0vxpbzX0ems2ifaA8NxL/qUeOeKJ8PhgrhSpKkbs8Udv6/rt6ickr3exwlFb3i3wl/wiE8FrLrOlalfMpNxb6XcG5Fq3GFeVV8pyQf+WTuBggkEYrBoTT1RQUUUUwCiiigAorvdX+D99oVqIb3W9Gj8SGNJf+EXWWV9Qw7AKvyxGHzCGDeV5vmYONu75aueNP2efHPgDwhH4k1vRbqy09vI8wSWs6ND5qkqJN0YVSCFU5PDOq9cgQ5Jat+RCnFtJM82oorqfCXgP/hJ9J1PVbrXdL8O6VYTQW0t5qguGVppllaNFWCGVySsEpyVAG3rkjNF7HLUV3upfAvxxao91p/h3UfEWjeX50Wt6JZTXVjNFjO9ZVTAAHUNtZSCGCkEDgqBXuFFdZB8MtYufhfcePITBLotvqY0uaNCxmjcoriRht2iP51XO7O5gMc03xR8NtW8IeE/C/iDUGt1tfEUc0tpCjkzIkZUZkGMDcHVlwTkHJxQ2k7f1tf8hcy/ry0OVorpPAngebx/rdlo9lqVjaane3cNpbW955oMpkJG4MkbKFXAzkg/MNobnHOOhjdlPUHHFMd76f1/WglFaXhnw9eeLfEmk6Hp4Rr/AFO7isrcSNtUySOEXJ7DLDmuvX4LaprNtJL4P1Kx+IMsLAXFp4agvJLmAHo5hlgjdkzxvQMoOAxGVygvY8+orS8Q+GdY8JaidP1zSb7Rb8KHNrqFs8EoU9DtcA4Prip/B/hHUfHPiC30jTEjNxKGdpZ5BHDBGqlpJZHPCIigszHoBTBtJXZjUV3d78Ib+Sytrzw7q+l+NLea+j01m0T7QHhuJf8AUo8c8UT4fDBXClSVI3Z4rC8W+Ev+EQngtZdZ0rUr5lJuLfS7g3ItW4wryqvlOSD/AMsncDBBIIxU3X9f1/V13QXTdv6/r/g9jBoooqhhRRRQAUUV3uofCSTRLF/7X8U+H9I1xLNr0+H7uS4+2KoQusbMsJhSVlAIjaUNllUgMdtJuyuxX6HBUVu3/g+7ttKvNXtZrfVNFtbmGzk1G1ZljM0kbSKgSRUk6I4J2Yyh5wQThU/IE7q6Ciuh8GeDJPGM2pk6nY6NZaZafbby/wBR80xQx+bHCOIo5HJMk0agKp+9k4AJroJ/gV4vu44rvw1pdz450iZcx6r4Zs7i6t8jhkYGJXjcHqsiqcYIBBBKuF0efUU+4t5bS4lgnieGeJikkcilWRgcEEHkEHtXTeD/AIfXPizT9S1ObUtP0DRNOKJc6rqrSiFZHJ8uJViSSR3bDHaiHAVicAZpg2kctRXey/BbXm1i3tbO50u/025shqUOuperDp7Wu8RtK0s2wptkOwo4Vw2F25K547WbCDS9TntbbUrXV4IyAt7ZrKsUvAOVEqI/t8yjpSuv6/r+tewJp7FOiiimMKKKKACitHw74e1DxXrdnpGlWzXeoXb+XFEGCgnqSWJAVQASWJAABJIAJruLD4KjW9e03R9F8ceFtav72/XTzHaSXa+SzK58w+ZbrvjHlkF4t4BK/wB4ZTdiXJRu30PNqK6jxr4Bn8GwaReLqmn65pWrQPPZ6jpplEUmyRo3UrNHHIrKy8hkHUEZBrl6E09igooopgFFFFABRX0p+xv+x3f/ALT2tX9zc3y6P4Y0oK97fyD5VHJxjIzkK3GR91juGOfsfxn/AMEs/hOvgGS80TxRqjapqKRjRLmyKzpczuCUUIWIkRh82Qy7VUsXCg13fVJ8ik2k3stb6/Ky76taa7WOdVk5NJaLrpb87vtonroflJRW7488E6r8NvGmt+FtcgFvq+j3clldRqcrvRiCVPdTjIPcEGtDw18O5Nd0J9bv9b0nwzoouDaR3urPMRPOFVmjjjgjllbarKS2zaNygsCyg8Ju3Y5KirOp2J0vUrqzM8F0beVovPtZPMik2kjcjd1OMg+lVqSd1cYUUUUwCiiigAooooAKKKKACiiigDuz8FvEGeNR8JEev/CY6R/8lVJ8Vo49P03wHo5vbG8vtK0J7a8/s+9ivIo5G1G9mVPNiZkY+XNGflY43YPIIrgKKQtTt/hD4p0zwv4mvE1p5oNJ1bTbvSLm6t4hJJbLPEUEwTI3bWKkqCCVDAdcV6J8MfHfhj4EtC0PiK28X3N/q9jPc/2XZ3C29na27ly5NzFEzyln4VV2gKcv82K8EooaTab6W/B3/MzlSjJSi9n/AJW/y+71PqXSfiDH4l17w14PuPGEvxI1DW76+0y51WCC4T7Pp13GkSwgTxo3ySKJ9oBSMxgKTk1zGp/Gvw5J4gl8N6rpt5qXhHS9TsBpFzp+oLbPbx2aPCHbdBL5iyB2lKgKdzHB5rw/Sdf1PQGum0vUbvTWuoHtbg2k7RGaF/vxvtI3I2BlTwcVRqYxUJJry/B3XpbytuyZUYzTT8/x3+/b0R9Wap8evD0fhzX4vDuo+H4HudQ1uS+s9bh1ZP7VS4mkaGRUtj5EpMThB9qUFGQcgYIwta+M/g6/h8UW0FrYQTXWi6Jaw6vFHe/abyWB7IzRurOYlCCKTkRpnyxgtn5vnCinTiqTTj0t+F/8ypUoy38/xaf6H1ZdfHL4c2/iu4tIkW/8LxeMINcaaaydpL9pFvDcXDIQCEjaW3VYyQxWPIG5mx5b8d/iNL411HQJH1Xw9rsmnRyKl7pJ1SaVlLhgk8mpZkcA5KqCVG5h3ryWilGPI4uO6/RJfp/S0GqcU2+6t+b/ABvqetfEafwZ4l8V6t47s/EdtdDUbj+0j4VvrO7+1Gd5A0kEjoEj8rJf94kwfbjChulj40/GTwz4/wBGs9L8PeErfSYLe4klS4ka4EsahIoYgqm5dCTDbwhsqcEYXuzeO0UlBJJLZf1/VyktU27vuFejeBdN/wCEm+F/irQbW+0u21WXWNLvoodU1O3sFkhihv0kKvO6ISGni+UHPzZxgHHnNFWN6nsnwp+HWo+Dvih4Q17VtX8K22laXrFnfXc0fizS5mSGOZHchI7hnc7VPyqCT0ANeN0UUAke4/Cn4leF9G+HFp4S8RXskem6tq17Dq8cVu0jwWk1vbrFcrxtZo5olcAZb92eORnq4PjP4T8R6t4av7jWpvDk2jnWDp0aNeW8VmrR28VhFNJagzCIxRFW8lt3GCQGr5jopcvvc/Xb8Lfh+rMZUoySXnf773++/wCCPrG4+NXgZPiLFq39uQyo+reHL27u4Le9ZJWtbW5jupR5waVsM8fLku2c/Mdxr5RmYPNIw5BYkUyihKzv/WyX6Gy0+5L7r/5nYfBvVrPQPi94G1PUJ0tbCy12xubieQ4WONLhGZj7AAn8Ktn4LeIM8aj4SI9f+Ex0j/5KrhKKYHf/ABWjj0/TfAejm9sby+0rQntrz+z72K8ijkbUb2ZU82JmRj5c0Z+Vjjdg8giq/wAIfFOmeF/E14mtPNBpOrabd6Rc3VvEJJLZZ4igmCZG7axUlQQSoYDriuIooto0+un3kuN1b+r7/me9/DHx34Y+BLQtD4itvF9zf6vYz3P9l2dwtvZ2tu5cuTcxRM8pZ+FVdoCnL/Niuq0n4gx+Jde8NeD7jxhL8SNQ1u+vtMudVgguE+z6ddxpEsIE8aN8kiifaAUjMYCk5NfLVXtJ1/U9Aa6bS9Ru9Na6ge1uDaTtEZoX+/G+0jcjYGVPBxUOEXdPr+OiVvLbp53uQ6a5nNb/APD6/K/4I9w1P41+HJPEEvhvVdNvNS8I6XqdgNIudP1BbZ7eOzR4Q7boJfMWQO0pUBTuY4PNddqnx68PR+HNfi8O6j4fge51DW5L6z1uHVk/tVLiaRoZFS2PkSkxOEH2pQUZByBgj5TopSgpq0td7+d0k/yHGlCErxVlpp6X/wAz6P1r4z+Dr+HxRbQWthBNdaLolrDq8Ud79pvJYHsjNG6s5iUIIpORGmfLGC2fm3br45fDm38V3FpEi3/heLxhBrjTTWTtJftIt4bi4ZCAQkbS26rGSGKx5A3M2PlOitZe9a/9ap/p/TsR7CPK491b8Lfl/Vj1r47/ABGl8a6joEj6r4e12TTo5FS90k6pNKylwwSeTUsyOAclVBKjcw710ms+LvBmo6l448TLrmjXNt4msru5/wCEf1LRXn1S0v5Y3CrFcNbMiKkr7g6TLlQMruG2vAaKjl93k9fx3/T7jZxTaf8AWn9fiz6O+I3xmsPE/hf4g6Ro/jS4sba9vtOu7a1Y3ccV/ClkYriFVVCATII8iTYrbAcnAr5xoopqKTv6L7lYVOCpwUFsjv8A4Uxx6jpvjzRxeWNne6roSW1n/aN7FaRSSLqNlOV82VlRT5cMhG5hnbgckCmL8F/EAYH+0vCa+/8AwmOkcf8Ak1XB0UyrHYfGTVrPXvi9441PT50urC912+ubeeP7skb3DsjD2IIP41reDNY0PWvhtrHgzWNYi8OXD6lBq9jqN1BLLbOyRvFJDL5KPIuVkDKwRhlSDt3Zrzmii11yv+rO/wCaJcU7Pt/w35H0h4Z+LujeEfD/APwhGh+M/wCynh0SW3i8ZrZzpEl5JdJcOkSqhnSLavliXYH3ZbYoNbul/EXRPFmp+I7y8uJNd07wna6f4kOrPG6R6lqltGtuzMHAZRcO8QO4Bm8kMQCSK+UqvDX9TXQ20UajdjR2n+1HTxO32czbdvmeXnbv28bsZxxWbppr+t73v8nrba6WnUz9jG789/wv96VvK79D2nQ/jfoOv2V/P4otL6LxQvhbUtHi1db7fb3Tzee6B7cQFg7NMV3+aF4yQK9F1D9oTwy/irwrLa6n4fi8G22r2F4mniDV2v8ASo4k+YLE5a1iC5ZGFt98FSB6fIdFU4xbTt/V2/zYexjZrvf8Ul+SPo7wt8VvAOo6N4e0/VY7bwjZRxa/BfW2jQ3k+xLq2hjidTM8pLuVYfe2ggEhRydjQvj/AOGLq4iu0bTfDmrJ4dTTdOluF1CO30vy9QncW5msitwC1s0f7yPIY5D/AHmFfLNFU1e3l/wf83/V7t0ou9+rv+Kf5o9Zj+Jlh/wvTVPEesmxn03U47mzvrjw3DMsWy4tWgknhW5AkLfOXO/DM27J+auz8A+L/Bnw9vvB8V34n8OaydO8QxXSarpWgzQzW9ksUwcXEj2kcsu53jO3MuNp6YGfnOilb3VHtZfc7r9du7HOmppp9b/irf16I9R+M3ibSvElj4St4NV0/XdcsbaaC91DRrF7Gw8oyloIYoWihClAZCxWJATIPvEE173c3ugeHvDF14Ln8T6f4g07wS2l3N94figu23i0upW1JtksCwlnkuQgAch1RdxFfGdFFvdUV3v873X3O/rcfIm193y6/wCS7H1Ppfxp0jRde0q51/4jN431CDWbu+s9ajtbtW0y2azmjEY82JXQySPCfKiDRp5WcivOPGPjbT/ih4D8LJ4k8aXs/iLRtN1B5JL+Ke8luJ2ugYbcyt03RkkPkhduDgkV4/RWSoxT5v62sPlSd/63v+v+R1Hi3w/4a0eKdtE8V/8ACQOl60Eaf2dLbeZbiNGWfLk4y7OmzqNmehFcvRRWqVupa2P1J/4JF/F7w7beGNe8A31zBZ61LcC5tUmYA3QO7cgz1IyCB1PzelfZlh4S8L/s96NqviLWNcl/sXT/ADzpsF4VEemQSOZGtrderFn4GcsQEUcLz/PnpuqXej3aXVjcyWtwnSSJsGum8UfF7xp41tI7XXPEuoanbxrtWOeUkBfT6e1e3HF0pQtNyWiTSSs+VWWrd1po9H16OxweyqRfupOzbTbel3d6W1113XTtc0Pj78Q5Piv8YvFXiyWQzPqd35m8452qqDGOCMLwe4xV/T7/AMP+N/hhofh3UfEdr4V1bQb26lil1G2uJLa7guPLJw1vFI6yI0fRkwVYfMNuD5jRXlVJ+0nKdrXd9OnodUadoxV72/ysfSHhn4u6B4S+Eq6B4f1TQVmtxqUF/ba9b6rEdXWQt5UoitXNvIWiYIBcjMbIMHGCNjVfjtorX3hybwhqc0U1k2nQatoaW85/4SUG0ht3AYL96NRJF5UmE6OhZnYV8r1e0TXtT8NanDqOkajd6VqEO7y7uynaGVMgqdrqQRkEg4PQkVioxv7yvtfztrb0d/TqldIUqad7b6/j/wAMfRfi34heGPh5p/jf4fCG18QadoltaaTp+n6j9qWG8uEvGmvJWMDoVYOzAHeoIjQc4xXf+H/iD4Y8N+ML34gQ+NbDQtP8UatYxRobe/DtY2cUf2mNPLhc5aVo02yEAqhyTnj4nJJJJOSe5orOFNR1k79/PVN/fb7m0TUoRm9Hp/wLfon6n1EnjPSfh7JZaDf+MobbSfD9tqGla/4Kt7a52avdhpkMq7YvJlEhaLDzMroI8gZVRWp4T+N3w5stY8I6/fX2zXNG0S28OB/sszKkP2OMyT8J95JDc2+OSRIrDIGa+SaKbp8yab3/AOD/APJNW7bFumn/AF/Xb59bn0wfjHpM/wAM/D/h/Q7zw/Datp1nY3uh3yaqLsXSzL5s8UaMbHeWUSiUhXwzA88E/aX8dW08nj7QdR8XL4svJfEYk0vTY4J410NImlWUEyRqgLblQrEWViC7HOM/NMcjwyLJGzJIhDKynBBHQg1Lf39zql7cXl7cS3l5cSNLNcTuXkldjlmZjySSSST1pzgpu/m3+Kf6BCmoO/8AXX+vzufQngz4p6DpPhfwykni4WPh+w0q6tda8Di1uB/atywlAk+SMwS798XzyurJ5eQPlXNHUvih4S1vStb0dIdK064vfCWkaSniB0vzNJPEbDzY5FDOgRPJlO5IQSIhgsT83gVFXbVvv/wf/knpsXTj7Jpx6fo0/wBPn62PpD/hE/gH/wBFET/wVah/8aor5vor1f7Uxn/Pz8I/5Hlf2bT/AJ5/+By/zK/2v/Y/Wj7X/sfrVeivPsj3eVFj7X/sfrR9r/2P1qvRRZByosfa/wDY/Wj7X/sfrVeiiyDlRY+1/wCx+tH2v/Y/Wq9FFkHKix9r/wBj9aPtf+x+tV6KLIOVFj7X/sfrR9r/ANj9ar0UWQcqLH2v/Y/Wj7X/ALH61Xoosg5UWPtf+x+tH2v/AGP1qvRRZByosfa/9j9aPtf+x+tV6KLIOVFj7X/sfrR9r/2P1qvRRZByosfa/wDY/Wj7X/sfrVeiiyDlRY+1/wCx+tH2v/Y/Wq9FFkHKix9r/wBj9aPtf+x+tV6KLIOVFj7X/sfrR9r/ANj9ar0UWQcqLH2v/Y/Wj7X/ALH61Xoosg5UWPtf+x+tH2v/AGP1qvRRZByosfa/9j9aPtf+x+tV6KLIOVFj7X/sfrR9r/2P1qvRRZByosfa/wDY/Wj7X/sfrVeiiyDlRY+1/wCx+tH2v/Y/Wq9FFkHKix9r/wBj9aPtf+x+tV6KLIOVFj7X/sfrR9r/ANj9ar0UWQcqLH2v/Y/Wj7X/ALH61Xoosg5UWPtf+x+tH2v/AGP1qvRRZByosfa/9j9aPtf+x+tV6KLIOVFj7X/sfrR9r/2P1qvRRZByosfa/wDY/Wj7X/sfrVeiiyDlRY+1/wCx+tH2v/Y/Wq9FFkHKix9r/wBj9aPtf+x+tV6KLIOVFj7X/sfrR9r/ANj9ar0UWQcqLH2v/Y/Wj7X/ALH61Xoosg5UWPtf+x+tH2v/AGP1qvRRZByosfa/9j9aPtf+x+tV6KLIOVFj7X/sfrRVeiiyDlQUUV7x8MtM+N9x4I02Twh8KP8AhJfDp837Lqn/AArGx1jz/wB6+/8A0uWxleXa+9eXO3btGAoAZR4PRX1B/Y37Sn/RC/8AzC+m/wDytry/422XxKs/7G/4WH4F/wCEK3ed9h/4ou28O/af9X5n+ptofO2/u/vbtm/jG85APL6KKKACuj0/4deJNTgSa30icxuMq0mI8j1+Yjis3w1are+I9Kt3AKTXcUbA9MFwK+r6+XznNqmXOEKUU277n7N4f8DYXi2FevjKsoRptJKNrtu7erT206dT5uHwj8WEZ/sn/wAmIv8A4uo5fhX4qhzu0hzjn5JY2/k1ff8A4W/ZW8VfED4R2njjwsI9XYyzQ3Gkg7bgbHI3R54cYx8uQ2egOePHL6xudMvJrS8t5bS6hYpJBOhR0YdQynkH2NeDU4gzGioyqUopSV1o9fnc/TML4XcKY+dWjhMZUlOm3GS5oXi07ar2afo9n0PkiDw7qt3rCaTBpt3PqjtsSyigZ5mbGcBAMnjngVPbeDtfvNQv7C30PUp77T1d7y2jtJGltlU4YyKBlADwScYr13xb4sm+GPxm8E+MrIOl1pVzb337o7Wk8mYMVyMdR8p56HFfoR8TvBr/AA9k/aR8feGYZJ7r4pRaL4e8MSo+xZZ9RhVJmBGAp3Thwx5BX35+4wOJ+t4aFe1uZH84cR5R/YWbYjLVLmVN2T7ppNfgz8g6ltbWe+uoba2hkuLmZxHFDEpZ3YnAVQOSSTgAV9ffGj/gnxH8MvAnjvVtD+JFt4u8Q+AVsj4n0OPSJbUWv2lFkBinZysoVXU8AHAbO04U9loH/BOS/wDC37U+m+BtK+KTWep6d4Sj8e2uvJoIJimjvhCkIhNwRkMA+8t2xs713Hzh8cXHwf8AHlpBJPP4J8RwwxKXeSTSbhVRQMkklMAAd65Gv1hm+J/xP+LP7Kf7N9nD8QbzRPEPxB1270XVtdFpFO8sJkuYwHj+UMAqKMArnHWvkjxb+wx/wi3hD4567/wm32r/AIVjqUOn/Z/7J2f2l5hjG/d558nHmdMPnHXmgD548efDnxR8L9bTR/F2g3/hzVXhW4Wz1GBoZTGxIVtp5wSrflXOV+sf7cH7KGn/ALSf7RHiVrHx7baX4y0XwVFqdr4Y/s6SZ7qCKWUGR5typGC7qgA3tk5IUY3fMHwm/wCCef8AwsTwP4HvdV+I1n4Z8ZePLS8vvDHhqTSpZxdw26h2ea4VgsWUIYDachlIyQwAB83fCTwhYeN/FzadqXnfZUsbq6Kw3kVoWaKF5FUzSqyRglQCzDAGTXS/Eb4VaL4U0fVLuzmu0vLSTS0eylu4boWzXMVxI6NNGirKQIomV0wMSEYJ5rz+C91TwRrWoQwSi1vo0uNOuMKrjaytFKvII5BYZHPcGtfTPiz4o0lUSG+gmiW2htPJvLC3uY2jiYmLcksbKzJuO1yCyjgEDirutPl+bb+9WX9akdL313/T/g/1tW+Jnhm18GePtc0OykmltLG5aGN7hgZCB/eIAGfoBXM1a1bVbvXNTutRv7h7u+upWmmnkOWd2OST+NVayimkk9xu19AoooqhBRRRQAUUUUAFFFFABRRRQAUUUUAFFFFABRRRQAUUUUAFFFFABRRRQAUUUUAFFFFABRRRQAUUUUAFFFFABRRRQAUUUUAFFFFABRRRQAUUUUAFFFFABRRRQAV3nhn4ceH9e0O2v774p+EvDd1Lu36ZqdrrD3EOGKjcbewliOQAw2u3DDODkDg6KAPUP+FQ+FP+i3+A/wDwC1//AOVdcv428IaT4U+xf2X430Hxl9o3+Z/YkGoR/Ztu3G/7XawZ3bjjZu+4c7eM8vRQAUUUUAaPhy6Wx8Q6XcudqQ3UUjH0AcGvq4EEZHIr5Aro7H4jeJNNgSGDVphGgwocK+B/wIGvl85ympmLhOlJJq+5+zeH/HOF4ShXoYylKcajTTja6auno2t9OvQ/Qfwt+1T4q+H/AMI7TwP4WMekMJZprjVgN1wd7k7Y88IMY+bBbPQjHPjl9fXOp3k13eXEt3dTMXknncu7sepZjyT7mvmcfFzxYBj+1v8AyXi/+IpkvxV8VTAhtXcf7sUa/wAlrwanD+Y1lGNSrFqKstXp8rH6ZhfFHhTATq1sLg6kZ1G5SfLC8m3fV+0b9FsuiOi+PV1HJ4h0+BWBkitsuAemWOB+n6191+L/AInS6b+zn+w3fa5dImjWviXT7q7LEIqpZSLFE5Y9NkRbPIB71+Zl7ez6jdSXN1M9xcSHLySNlmP1qe813UtQsbSyutQurmztARb280zPHCD12KThfwr7jA4b6phoUL35UfzhxHm/9u5tiMyUeVVJXS7JJJX87LU/XL46eG9S+GHhP9tTxZ4htkstD8WwaXbaJcyupW9Y2nlEx884eYD1yrccV7DF4Z1Kf9tOz8bx2zN4VvPhGNKt9UyBFLdHUPtAiU/xN5QL4GflGTivw01HxZrmr6Zb6bfazqF7p1sQYbS4unkiiIyBtQkgY3N0Hc+tWYfH3ie2isIovEerxR2CNHZol9KBbK2NyxgN8gOBkDGcCu4+cP0n+FNylr+zx+w+8hwp8czRj6tdXaj9SK6b49eEdX8LfBj9tGbVrJ7GPVdZsL+x81lzPbs0AWZQDnYWV1DdCyOOqsB+UMmu6lNp9rYSahdPY2jF7e1aZjFCxJJKLnCkkk5HrV3UPG/iLVvtn27X9Uvftiqlz9ovJJPPVSSofLfMAWYgHoSfWgD9uNa8M6lon7bnj74j31mI/BWnfC99PutUldfJScXKzmJu4IijZzxwCD3GfP8A4W6h4s8Q/DD9lbUvhp4R8LeILmz8M3ltN4q11bhoNBlitoopUZ4GG0ysskZDA/Mh6YJr8iZ/Hnia6gv4JvEWrTQ6gFF5HJfSstyFGF8wFsPgdM5xUNh4v13StEvNGsta1Gz0i8bdc6fb3ciW85xjLxg7WOOOR0oAl8c6m2teNvEGoO9tI93qNxOXsgRAxaRmzHnnZzxnnGKxKKKACiiigAooooAKKKKACiiigAooooAKKKKACiiigAooooAKKKKACiiigAooooAKKKKACiiigAooooAKKKKACiiigAooooAKKKKACiiigAooooAKKKKACiiigAooooAKKKKACiiigAooooAKKKKACiiigAooooAKKKKACiiigAooooAKKKKACiiigAooooAKKKKACiiigAooooAKKKKACiiigAooooAKKKKACiiigAooooAKKKKACiiigAooooAKKKKACiiigAooooAKKKKACiiigAooooAKKKKACiiigAooooAKKKKACiiigAooooAKKKKACiiigAooooAKKKKACiiigAooooAKKKKACiiigAooooAKKKKACiiigAooooAKKKKACiiigAop0UZmlRB1YhR+NdjZ2MVlEEjUZ7sRyaAOMoruqKAOForuqKAOForf1/To1hNzGoRlIDAdCKwKACiiigAooooAKKKKACiiigAooooAKKKKACiiigAooooAKKKKACiiigAooooAKKKKACiiigAooooAKKKKACug8A/D/wAQ/FDxZYeGvCuk3Ot63fPsgtLSMsx7lj/dVRkljgAAkkAVz9frx/wRp8IaLH8EfF3ildMt/wDhIpvEU2mPqRTM32VLa1kWEN2XfI7EDGTjOdowAeBfFz/gkr4y8CfBuw8R+HtVHirxbaW7XGt6HbJgeu204zKVGQQcF9uVGSFr4FdGjYqwKspwQRgg1/SvoXxT8F+KfE+o+G9F8X6Dq/iLTvM+26RYanDPd2vluI5PNhVi6bXIVtwGGIB5NfkD/wAFdfCmj+GP2pNPm0nTbfTpNW8OW+o3xt4wn2i5a6uo2lYDqxWNAT325POTQB8S0UUUAKiGR1VRlmOAK9q8bfsZ/F34daHqWr+IvDVnptlpsJuLrdr2nSSxpgHPlJcFycEcBSfavGbT/j7h/wB9f5199/FTwPqfjr/gqjbRabbiaPTL/SNXvnZwqw2sEFs8sjEkcAD9RXQqSlGnrZybV3srKOttNru+obKcn9lX9dUrfj2Z+f8ARX6uaF43v/jrZ+AdQ1HxTHJCfi1rEOl6lcwwTqltHZ3LW0cSyDyyxG1ULA4ZlOCa7Xw9pmuz/E34G6p4g0zW9P8AFBt/E9pPPrlzbX2ponlq0CSy28cUZO0lljwNoOMnknC1kpPqr/LlUl89bW+ZKfM2l3a+5tP/ANJ077H43UV+v0/h/U9N+JHwcuPGGo3Wta1FoHiW31DUdWt4bHWbtPJLDMEZdViVeFYu/Lcjnng/hBpPhTXvDH7Oo8B32raHpMA8U3GmLrv2K51SadWj3RQsyCESsxfY2w7VB4zyM+Zc7jvZX09ZLb/t2/zt010gud223/CPN/wPx8j8vaK/X27sb+w8ZeAvEOvWGpeG/EDfD/X4dT8W6rLaX9/oJilhMVzcSpHHHLIgLKFVQf3pHZjXyR/wUK11vE2h/AzVm1y68SteeFjMdYvbUW015mXPmvEGYIW67QxxRUl7NwW9216azX/tn49bMULTTfZX/wDSf/kvw1tdHxzRRRViCiiigAooooAKKKKACiiigAooooAKKKKACiiigCew/wCP62/66L/MV2dcZYf8f1t/10X+Yrs6APpP9nH4YeHvFXwX+I/ia/8ADGg+JNe0a806GxXxJrcml2aJLIVlDSi6t1yR03P1wAD0PR/Fn9l3wrB441u7t7weAPCfh/wxp+sa39lWXVUS7uCyLDYtLIhuEZgArmTbnd83FeSfC74z6J4O+GHjHwN4i8MX+vaV4kuLS4km03V0sJoTbuXUAvbTAgnGeBx+ddzqP7YNjq6Xnh+78Bo3w5n8PW3h5PD6aqRdQx27mSKZbtojmQOxOTER049QCz4W/YytPGVtq2uaF40vPFHg6zitDFfeGPDsup6hJNOCTDJZRygxNGBl8yHAK4yTivGvjX8Lbr4LfFDXfBl5eLfz6Y8Y+0rE0XmJJEkqEo3KHbIuVPQ5HavTIv2mfCb+Hdd8G3Hwtgi+H+oC0kh0rTtYa3vILmAEC5a6MLiSRwSGJjAIxjGOfFvGmsaVr/ijUL/Q9CTw1pMzg2+lR3L3At1CgY8x/mYkgknjknAAwAActrn/ACC5/wDgP/oQrk66zXP+QXP/AMB/9CFcnQAV0Xw30m01/wCInhbTL+Lz7G91W1triLcV3xvMqsuQQRkEjIINc7Wv4P1//hFPFuia35H2r+zb6C98jfs8zy5FfbuwcZ24zg4z0oA+0/jb+zv4C8P+FPjbNB4J0TQl8KXMceg33hnxDcanfHMgG2+tjdTiFcZy0ixEZ6Z68B4j/YJ1Tw3p3xb1SfxSv9keBrWOa2uX07Y2ryG3inkRE80+WqCZFL5fkjjsMjxl+1roGqf8LRv/AA54AvNH8R/EKNrfUtQ1LXxfRW8LsGkSCFLWHGccMzMR712Hif8Ab4/4Wl4n1uz8QeGm0bwlr+iR+HGgtdQ3tpscksbXN5nyD5sjKg+XaOEUc45AOVl/Y90iH4U/8JMfH1wdf/4Q1fGZ0UaGPJEDNtEX2j7Tndnv5Va+t/8ABPzxDo3g3Ur1tR1ZvEWn6GmuzWr+HJo9KdSAzW8WpF9jzqrA7dgBOQDwcdtc/tM/BXxF8QfGOiy2Gs6D4Su/Cb+D7DXYtSMsAs4FJtvLtBYeajOwGS7kDccj08U+IP7Sfhv4kxjXdX+HIf4jDTILAeIY9adLVZYgAl2LQRA+aFUDmUpxyp6UAdBqH7Gmmxap4l8Maf8AESK/8e+F7KHUNZ0U6Q0dvHESnniC580+a0QkUkGNAc4B64u+Nf2DdU8E+GPix4huvFCNpfgqZYLJ20/Y+sEeX5rKvmnylQyou7L5ORxiqWoftl6bJqviXxPp/wAPI7Dx74osYdP1nWW1dpLeSIbPPMFt5Q8ppRGoJMjgYyB1zf8Aip+3rqnxTX4h2114WSx0vxNpMGlWNlFqGV0zbN50spPlDznkcknhP4euKAI2/Y88In42aj8LU+JOrr4g020e9vLufwtGtksa2guTsdb5pGOGUY8sd/QZh8MfsX6f8Qrnwdd+DvHk2t+HPEiahFHey6GYLqC7tYzIYGtvPbO8AbWD9+nY7Xwd+P2h+Pf2wvEHxF8QwWXhjTNS0O7jazv9SVY9y2CwLH57BMs5j4wActgZxzh+Fv2ydH8CXHg/TvDvw+nsfB/h9dRZtLm13zrq7nu4zG8rXJtgF2qcKojI9c0AefeE/wBmjxTqN34utfFWnax4GutC8L33iaKHWNIlie8W3KAxqshQgNv++N2MdDmvIa+mIv2xNP0X4dnwNoHgm6tvDyeG9W0KFtT1wXl2sl80ZaZpRbRqVTy+IlRQc/eGK+Z6ACiiigAr2/8AZr+HHhjxLpXxF8ZeLrCXXNG8F6OL8aJHcPbi+nkfy4leVCGVAck7cE8c+viFemfBH40n4SXPiK0v9Ei8TeF/Emntpur6PJcG2aeLO5WSZQxjdW5DYPU8egB6Z4U+FfgT9qPUfCmlfD7S38B+LCLuTxBpdqLvULWK0iXctzB5rvI7nhfKDnJIxjrXXaT+xvqPw31S28X28z6vYWnhzVNfh0bxr4Qe3luZbQpG1ncWLzEgSCYFJVZsYBAzg1xHhn9rfSfh3qHhy28HfDey0zwxp8N3b6jYahfC7vdWS5XZKJbwQxlQFxtATCkdDT/hZ+1X4R+B/jSTXvBHwr+wl9Gu9MdNT197yWWSaWORJZG8lUKx+WAEWNSQeX4oA9E+NH7HF9eeVq15faB4Z1iLwRca9/wi3hfRCkMTWjIjWu43DPLJmT55m3NkYINeaaB+yNDqieDpLnxTfA+IfDT+IVsNK8PTahfkiQoLeCCOT963GS7NGAK574h/tTeJ/G1h4BlsbjUvDviTwxbXcMuv2GpulxeyXExlkkyioY8kkEBmznr2rvbT9um8v9LtdN8UeHL/AMRwS+Fz4b1S9fxBJFqF7++MonW5MTlDzgqwfcO9AFPxJ+xaPBfiHxA/iLxfPo/hDRvD1n4hn1O50R49Q2XTtHDbmxeVSkxkR1KtKAMcnmvMdZ+EuiJ8WPCvhTw741tPE2j+IpLFYNZtrbY9uLiQIUmt952SxkndHv8ATnmvUNd/bF0TX57rS5vhv5Xge88LWXhe40JNbYzKlpLJJbTxXLQHY6GT+JHBxXleqfFXRF+LHhjxX4d8F23hrR9AmspINGguzI84t5A5aa4KDfK5By+wdvl4oA9S+Of7F/8AwpzwL4m8R/2/rTDQtVj0vyPEPho6UmpbzjzbKT7TL56DqTheATXO/AH9mbTvjjp1uI/Feow63c3n2UaZonhq41YWSHhLi9kR0FvEz/KGAfHUgAHGh8Rv2qNF8U+GPiTpugeCr/Rrvx9qEOoapc6pryahFCY5PMC28K2sQQk8bmLNjvwMYPwi+PHhL4e6PoUeufDCx8S634f1Q6rpms298LGZn4Kx3WIXNxGrgMo3IRjGcZyAe/fsz/sm6P4M1+S8+Jk9tdalf2Ov21p4ck0VL1Atl+6lvN8rqAVf/VgLlsg7lHI83v8A9h28uNC1bWfDnih/EOnnSNL1bQSul+TJqovZ2hWJlMx8h0deeXByORXpH7NH7WWjeNNfa0+Jlvb2up6fYa/cWviOTWlso2W9/ey2hjlRlJL8RkMCuANrDg8bpP8AwUBvPCdhrVh4Z8Fx6VYt4ds/D2hRzambh9JEDSt9oZjCPOkLS5/gAKg80AR+Kv2FdO8B+I/FFh4h+I4t9P8ADvhqz8RXl9ZaJ9o3edM8TQxoLgbipTh9wDZ5C9ah0/8AYOu9Xmn1jS/Empa94E/sS01q01XQ/Dct7qN2Lh2RIEsElyHUo+8mTaoAOeuOm8GftKeFviB4W+JF54u0qC0gt/AmmeHo9IfXFhudVaCdizQyNHkOQ+7aEkxt53CuI1H9srTta0i/8H6h8PxL8MZtEtNGtvD8WsFLu1Ns7SR3C3hhOZN7sTmLaeOBzkA9B/4dv2v/AEN3jX/w2l7/APH6K8Q/4WV8DP8AoiWtf+F0/wD8h0UAeI199fsCft9/D79lf4O6x4T8WaP4m1DUbzXptUjl0a1t5YRE9vbxAEyTxnduhbjGMEc9QPgWigD7I/Zs/bJ8F/Bz9sT4p/FjWtM1668O+Kv7V+xWthbwvdx/adQiuY/NVplQYSMhtrthsYyOa439vv8AaX8MftUfGLR/FnhOw1fT9Os9Bh0uSLWYYopjKlxcSkgRySDbtmXnOcg8dCfmmigAooooAKKKKACiiigAooooAKKKKACiiigAooooAKKKKACiiigAooooAKKKKACiiigAooooAdFIYZUcdVIYfhXY2d9FexB42Ge6k8iuMooA7qiuFooA7qiuFooA39f1GNoTbRsHZiCxHQCsCiigAooooAKKKKACiiigAooooAKKKKACiiigAooooAKKKKACiiigAooooAKKKKACiiigAooooAKKKKACiiigAoorqvh/8Mdf+Jd/PBo1vClpaKsl9ql/cJa2NhGxwJLi4kISNScgZOWPCgnAoA5WivXJ5PhX8M5Psq2rfFvWVwJ7p5rjTtFjPO5YVXy7mf8AhxIxhGQf3bDBrM+OfhPRfDur+G9S0HT5dEsPEmhwa2NFmnac6cZJJU8oO3zMhEQkQt82yVMlvvEA82ooooAKKACSABknsK9W8R/stfE/wn4ev9a1Pw0sNrp9tHeX0EWo2k15ZwvjbJPapK00S8jJdBjvih6LmewLV2W55TRXWfFX4a6n8IPH2qeEdZntLnUtO8rzZbF2eFvMiSVdpZVJ+VwDkDnP1rk6NwCit/wj4D13x2dZGhWP246Ppk+sX376OPybSEAyyfOw3Y3D5VyxzwDWBQAUUUUAFFFFABRRRQAUUUUAFFFFABRRRQAUUUUAFFFFABRRRQAUUUUAFFFFABRRRQAUUUUAFFFFABRRRQAUUUUAFFFFABRRRQAUUUUAFFFFABRRRQAUUUUAFFFFABRRRQAUUUUAFFFFABRRRQAUUUUAFe5/C/wxJ8XfgnrXhO2vf+Efl8N6jN4km1O+V10u5SSCKJYbqdQRBKnkP5BcbXNxMuVJGfDK9h8Da54X8WfBqX4fa74oj8D3Vrrza9DqN3aXFxZ3yvbpCYZRbo8iyRbC0R2Mp8+YFk/iAPRfiV4s+AfgXw38J9f+HulnWvidp+k6XPr+n39r9p8PT3AtU89biKUgtLv6iI7M7s/NXmf7SwXVPG+l+K2bUY7nxdpEGvT2WqXb3U1m0jyIsQmf5nj2RI8e7JEciKSSuTBF418E/DbcnhHRE8W64oK/8JF4ptUe3iOCCbbTyWjODyHuDJkYPlRsK8+8S+JtW8Za9e61rmo3GrateyebcXl3IXkkbpkk+gAAHQAADgUAZtFFFAFzRg51ixEd3Hp8hnj23cxISA7hh2IBIC9TgE8dDX3n8RvAet+JdG+Jvifxt4YfwD4kttBnuJPib4S1uWPRPFOVVUtmhf5ZVuBgYjIJYDcgzivgCiiXvR5fX8f6+fW4R92fN6fg/wCvTpY/Sf4j+M7vxn49/aM8IeLr+W/8DaHoOl3tvpbDEVqytaO0sYUAhzvkyw5OcHIAFY3xfHis6b8bv+E3EH/CnBYwf8IHgJ9h+0edF9g/s7HH+p8zzPL7Z31+eNFaQnyTjPsvvd/i/wAS05X0avrsTTTg3ru0/SyWi8nb3l102tr+kt58WviJ4i/ay+Pfg/TfE2sFrfwrq9t4d0fTrlocXaxxNF5KRkZmBLsG+9ksQeTVH4S2Xim5+AmjaNcR3/hvTLbw/q/2rVLfyL7wxdHdK0y6xE2xobwMAgbexBCkDG4V+dFFcqg1R9lf7Nr+euv46rqaRfLPn87/AJafho+lwooorYkKKKKACiiigAooooAKKKKACiiigAooooAKKKKACiiigAooooAKKKKACiiigAoAJ6DNKBmlycVSjcBuKUIx6KT+FOAyRkge5qePADEMDtxyOhq1BESbSKxjYdVI/CjY390/lVxj81Np8iEpXRW8t/7rflR5b4ztOPpVoE456UxCGAPc9vSjkHzMg8t/7p/KmlSOxq6Bg8/0puOeVzx3NHIHNYqhGPRT+VG0+hq1GAByPqD2pWA3dOMHvRyIOYp7TjODj1pdpzjBq2x3qBxuA4456AfyFDEZPRgRzx0HSk4JC5ypsb+6emelKsburMqllXqQOBVpQZedwG1eQxIyOgx+v5U1fMCGJRkc8DH55pcpPtCfSfDer68JDpmlXuoiM4c2lu8u3jPO0HHFW4vAviWeRY4/D2qySMcBEspSScgYxt9SB+IruvgH40l8G+Kchh5E8bgq0m0AkDJ9uFX0HAz0FfYngX4ajx5qthc6akQgcANatxtGA2U3AnaRkYAyDuwQQDWNRuCutjoppTPg6D4UeN7pZzD4O1+YQcSmPS528vv82F4/Gn3vwj8dabv+2eC/ENrsba3n6VOm07guDlODuZR9WA71+kfj221/wPo1zFqGnNZ2c7ERTSskr/vFbgYJwxIHC9AqDo67PCNe+K93rFrE14YdjWaWt3aSruLmJXVcn+IjzmBJJJ+Y8hs1FOpGoroqVOUXZnxvc+HdWspDHcaZeQOMgrLbup468Ee4/OiDw9qtzE0kOmXksajLOlu5AHqSBXqfjLVJdQnkEpL3K5JZiGYjPTI+gH4Z65re8AebB4d1GeZSrcEBhgMD0/Dr+o9MTUq8iuaUqXtJWPn9o2QkMpUg4II6Um0+hrY1+DytVuQpJQnIPr3rN6dK6YJSVzmejsRrE7DhGP0FL5Ev/PN/++TWhZj9wMDuec+9WkXA7D8abjYnmMYW0xPETn/gJpws7hiAIJCT6Ia3Y1yQcZxV+zXM8ZxzuBq1TMnVszlf7Ou/+fWb/v2aT+z7r/n2m/79mu+CDaAAcdqaU5zjFbew0vczVdvocH/Z91/z7Tf9+zRXd+X7H8qKPq/mP2z7HntFdl5Omf8AQGtP+/s//wAco8nTP+gNaf8Af2f/AOOVy8p1XONorsvJ0z/oDWn/AH9n/wDjlHk6Z/0BrT/v7P8A/HKOULnG0V2Xk6Z/0BrT/v7P/wDHKPJ0z/oDWn/f2f8A+OUcoXONorsvJ0z/AKA1p/39n/8AjlHk6Z/0BrT/AL+z/wDxyjlC5xtFdl5Omf8AQGtP+/s//wAco8nTP+gNaf8Af2f/AOOUcoXONorsvJ0z/oDWn/f2f/45R5Omf9Aa0/7+z/8AxyjlC5xtFdl5Omf9Aa0/7+z/APxyjydM/wCgNaf9/Z//AI5Ryhc42iuy8nTP+gNaf9/Z/wD45R5Omf8AQGtP+/s//wAco5QucbRXZeTpn/QGtP8Av7P/APHKPJ0z/oDWn/f2f/45Ryhc42iuy8nTP+gNaf8Af2f/AOOUeTpn/QGtP+/s/wD8co5QucbRXZeTpn/QGtP+/s//AMco8nTP+gNaf9/Z/wD45Ryhc42iuy8nTP8AoDWn/f2f/wCOUeTpn/QGtP8Av7P/APHKOULnG0V2Xk6Z/wBAa0/7+z//AByjydM/6A1p/wB/Z/8A45Ryhc42ivQNL8PRay7rZ+Hracp94iWYAfiZcVo/8K9uv+hYtP8AwKf/AOPV1U8HiKseanTbXdJv9DkqYzDUpclSpFPs2l+p5dRXqP8Awr26/wChYtP/AAKf/wCPUf8ACvbr/oWLT/wKf/49Wn9n4v8A59S/8Bf+Rl/aOD/5/R/8CX+Z5dRXqP8Awr26/wChYtP/AAKf/wCPUf8ACvbr/oWLT/wKf/49R/Z+L/59S/8AAX/kH9o4P/n9H/wJf5nl1Feo/wDCvbr/AKFi0/8AAp//AI9R/wAK9uv+hYtP/Ap//j1H9n4v/n1L/wABf+Qf2jg/+f0f/Al/meXUV6j/AMK9uv8AoWLT/wACn/8Aj1H/AAr26/6Fi0/8Cn/+PUf2fi/+fUv/AAF/5B/aOD/5/R/8CX+Z5eOlLXqH/Cvbsf8AMsWn/gU//wAeo/4V7d/9Cxa/+BT/APx6rWBxa/5dS/8AAX/kUsywf/P6P/gS/wAzy/jpU0PKyDPQA/zr0r/hX13/ANCxaf8AgU//AMepV8A3iZx4YtBnr/pT/wDx6q+pYv8A59S/8Bf+RMswwb/5fR/8CX+Z5sDwOetGQTgZJzivSf8AhX95/wBCza/+Bcn/AMeo/wCFf3eMf8IxaY/6+n/+PVX1LFf8+pf+Av8AyI+v4P8A5/R/8CX+Z5v0/CmgsMfIeeQO+K9MXwJfKMDwzaY/6+n/APj1B8CXx6+GrX/wKf8A+PUvqWK/59S/8BYvr+E/5/R/8CX+Z5upU8n5c03BdjxnB7V6T/wgV7u3f8Iza59ftT//AB6l/wCEDvuP+KZteP8Ap6f/AOPULBYv/n1L/wABf+QPH4T/AJ/R/wDAl/mebIrc55Ip5Jx7j9K9HHgW+HTwzaf+BL//AB6geBb4Z/4pm05/6eX/APj1H1LFf8+pf+Av/IPr+D/5/R/8CX+Z5nCgIwCA+SSS2OMcdfxqe3iV7wRSkKudpOOOeQf0/WvQT8Prs9fDFoec83T/APx6mv4DuoImY+GLbaOSFuJGP5CbNT9Sxa1dKX/gLD69hJaKtH/wJf5nB3VokUpCSKFwCpc4JH5VAzY3gchjkjtnH/1/5V2NtbQahMlrDolvNKSdqB5yc9/+WntWr/wgF4f+ZZtP/Ap//j1Y0sPWrK9ODkvJNlVK1GhaNWoovzaX5nD6dBLMzGANI8URkfy1J2xjILEf3R3Pavtb9jb4vPL4q02xuJB9oW4TDvJjdngAnoTxHzx0PqQPFPhP4k8e/A3xU3iTwPZ2+hay9rJZPcK4mDwuysyMksjIwJRTyOqg1Rnn8VzeJJNdj0PTrDUpHLl9OVLSMEnJ2xROqKM9goFRVy3Gzi4qlL7n/ka0MxwVJ3daP/gS/wAz9r/H/gjQviF4cW1KKmFyjAcrgH5fwOPyr4Q+In7C+paWLqa01dGheVhHtUBjH1+b3zuOfp6V4zZfta/tBaehS31S2iQ4yos7TB/T2qLU/wBqz4/axF5d5qdvMmc7Ta2o/lXmrJ8zj8NNr5S/yPThnGVJWnVTXrH/AOSJ5/2XtQ0bUY7vULhXhiwSF7FTjH4gD9KzfFfh93097TT7YxJGwjCoOvrz35Ofasm6+NvxfvUZJ2tZFPUGKD6+vvWTb/EH4k2obyrWzXd1zHEf5tSWTZm3eVN/dL/I2/tzKoq0KiXzj/meOeOfDF3odx5s6gKwHfnP+RXJj8vrXsniDTvEXimVJNT0O0uXXpibYB+CygVj/wDCAXn/AELNp/4FP/8AHq9ill+MhG0qUv8AwF/5HiVMxwTk3CtG3+Jf5nA2OPJAB+YdR+Jq4i5/Cu2j8EahEoVfDVoABgD7S/qT/wA9vc08eDtSHTw5af8AgS3/AMdrX6jir39lL/wFmLx2Ef8Ay+j/AOBL/M45AAB+uKvWSj7TGPQn9BmulHhHVB/zLlp/4EN/8dqRPDGrxuGXw9aBh/08N/8AHa0+p4r/AJ9S/wDAWZPGYT/n9H/wJf5mUUAAqM9a3ToOuHroFp/3/P8A8dpP+Ef1vOf7AtM/9dz/APHa3+r4m1vYy/8AAWZfWcN/z/h/4EjC2D0ord/4R7Wv+hftP+/5/wDjtFT9WxH/AD5l/wCAsf1rC/8AP6H/AIEjtf2iv2dZvgpc2V7ZXsmp+H75zFHLMoEsEgGdj44OQCQwA6HgY54PwX8LvEHj/TtV1DSI9PSw0toY7y71PVrTT4oml3+Uu+5ljBLeW/AJ+7X1l+3T4y0+08DaX4aEiyareXiXflYyY4UVwWPoSzKB6jd6V4J8J7BPEfwT+JXh+31PRrLV7zUNGntrfV9XtdO85IvtnmFGuJI1bbvTIBz8w9anNKFLD4qVOjt+R24GrOrQUqm55r4w8Ga54A8QXWieIdMn0nVLY4eC4XGR2dWHDo3VXUlWGCCQQayra3a7uYoEKK8rhFMsixoCTgZZiAo9yQB3r7F0XxN8PrqW80qSTQ/F3ijwt4Y0rQ7G7v8AULCzsrpo7id702s2pQS2zhPNgRS8YZkjkMZxy3Oa74j+Guo+GfEnjSLw34Y8P+JfD7aho1p4Viu7W8ju5LiRBb3S7E8q5W3828IcIykRW43Y2keQd54p4t+CXinwR4ct9d1b+w10y5UvbSWfiPTrt7lRIYy0UcNw7yAOCpKAhSpzjBrhK+nvA2r+Fr/wX8P7O5vfDdx4isfB+tR6Xb69LA1pb6m2pSvEtwsx8lWMDSsguMIWMZPVavM3htrbWv7NHw3HxWGh6YJvM/s7+xTN9pn+1fZ/P/4l/n/Z/wCz9+z5d32jy+d1AHzX/wAIhq//AAh//CU/ZP8AiQ/b/wCzPtfmJ/x8+X5mzZnd9znOMds5qlpGlTa3qdtYW720c9w4jR7y6itogT/ellZUQe7MB719eSeKfBNhZLZaZZeEPEATxmt3P4fTVbWx02Wb+xAl1NC13mJbZbzzTEXUxNtRFBBUHySTTvD+mftU+FYtS1zw/wCIPDrazpEmo3cNhZWWnLCzQGeOWK3ZrVVQblcxu8bYZixyaAPF7m3a0uZYHKM8TlGMUiyISDg4ZSQw9wSD2qOvefG8Wg3X7O+hTW58OeG9StBbQHS7VtL1G91dn3u901xETeWrAlt8E/yAbFUg4QdL8ONa8DDwp8L9A1O38ILbanpOvr4iury1tDeLKPtRs99w4MkDg+WYyrIzZUEsNoAB8w0V9d6nrHgXw+mpaklh4A1T4e2nh+zn0CyiSwfV59UU27bLkAG8LFxcCQSgwlMjnKitPxXF8FPDWn6/NpsvhbUb7w5DdazproIZ11STUDdLDZtGMiUWo+wHb/ARKcIN2QD4xor6S/ZGsPBym4vvEl/4en36xZW15pfiCXSrZIrHEjSXQkvoJWkGQUMVtsk5Ulx8pGxeN8LX0BNXs7vwzYavdzJ4JWy+xwXEVgi3rsdZaJz+8/0NYU83PzSM5LEk7QD5l0PQ7nxDeta2slnFKI3lLX17DaR4UZI3zOq7vRc5J4AJqfxb4R1bwNr0+ja5afYtShSKSSDzEkwskayodyEjlHU9eM4ODkV9SfFODwBDeaCFbwi8y2XjCKV7O70efzFXSwNNkkFhbwwo7zbmiQh5A7ABywCp22gy/D7xB8WtU1rVdf8AB+saXd6lo1ldWuqXmjRxw2aabb+dcCa7gmllUuGhMVsYmVlJMi/eUA+JfEPhHVvCkWkSapafZU1axTUrI+Yj+bbuzqr/ACk7cmNxhsHjpyKg17w/f+Gb6Kz1K3+zXElrbXqJvV8wzwJPC2VJHzRyo2OozggEED62m1zw5qnw38GjVrvwDfeFbLwDPa6mJZ7KTxBHfgT/AGeK3DEzpIsjQsoQBBulMmeKn8LeIPADaS9+mmeGvFviqK38NwTWura1pNkjWUehWqPGsmowyxHbOksciw7JlO3LACgD5A0vRrjWBemCS0jFpbtdSfaryG33IpAITzGXzH5GI0y55wpwcUa9Y+Hx8LtqfxYOoWel6fbnw9fHRrS9uYrnyLj7TB5SQTN/rJFTeA6csAxHBNejfHXWvA2vaf8AFqy0q38IWsGkatpTeGToVraW8ssTrMLrZLEA9whJVmDM6odu0KMCgDyHQvgN428S+GLHXtN0y1ubG/iuZ7KEapaLeXaW+7zzDatKJ5dmxshEJ4rz+vrH4deOvDMXw1+FugHUtH0nxSdM163sfEc17tk0O8lnfyRcKzmJIZkLIWkjLKJBIjKVBqK28OeB30mXWRJ4HktV+HK6ctrNqNikz67HIqSfuRIJRIdjkXAADKQVkO4ZAPlOr13o1xZaXYahJJaNBe+Z5SQ3kMky7CA3mRKxeLJPHmKu4crkDNfWesSeG08d6ff2tn4FddU0y9jXQlm8MGPwwxktws4uNwtdSIzJ5cU5SUqGyynMtJYaL4DtrzQktvEXgvVtR06LxFNcyxQaPZJrMgvo1tYz9sie3ttyO0iFo2ASNlj4IagD4/rX1Pwlquj6Bout3lr5OmayJjYz+YjecIn2SfKCSuG4+YDPbNfYPivxJ8MfCviWf+wbH4fXkN9450yCd5rWwvUi0x7C2a6MeU2JF53mBnVFCtv27DkV4Z8eb3TU8NeE9G0W60e40XSr/W4bFNP1P7XcLAb9jGZk2/uwV2lDufevzZHSgDH+GAH9hXBxyblhn/gK17De/B/xhp2n+FL650WSK08UuI9IlaWPFyxKhQfm+TO9SN+3IORxzXmHwN0qLXWs9NmvYNNhvNUS3e9uWCxW6v5amRySAFUHJJIGAea++b74l/DTx3qeo+H9O1OTRx4b17TdT0ybWdRgTT3hs5IrR1tCAAFaBfMCFm3EZHQmv0jC4mpQwlBQjdW18ui/F/cmfl+Lw1PEY2u6krO+nn1f4L72j4z17Q73wxruo6PqcH2bUtPuZLS6h3q/lyxsUddykg4YEZBI9DVCvtPTPEfwn1PxH4k8Q+IIvDGoXOn+MNTsVhme3Y6naX1/FsvSSD5ogja4ZX5AAXkZyH+DdO+FmmeI5beTUPBGoWujvpGizG4OmxRX8SQlru/8yeOQuGkmZSIf3h8pMyAcjr/tJqL5qbuv6/Vff5M4v7MTkuWorP8ArX7n93mj4por67uIPh5H4G1jx1b+H9Ank0S5v/CNtYtFEtrqE0lwrWdyGJ2MUtnmzKfmOwNnCg15z+1EPDF1J4Z1Hw4dF043aXH2jw9o/wDZsw00r5YXdcWWRMH+Yr5jMw2npkiuiljfa1FDkavdfNa/09vnoc1bA+xpupzp2s/k9Pz6b/LU8Kor698ffEDwFox+JY0TQPh3dnR7fRpPD7pp1pL9plljjW7IxxNt3PlRlVK5IyCT2PhvTfg3D8QvEcsl34Hl0KfxBHH9kll01IYrVrGFmeNpUdzH5zuoWAptZDlgM453mTjHmdJ7X/BP/wBu++6OhZYpT5FVW9vxkv8A237rM+HbrR7+y0+yvrixuYLG93m1uZYmWO42NtfYxGG2ng4zg8Gr3/CHax/whv8Awlf2P/iQfb/7L+1+an/Hz5fmbNmd33Oc4x2znivqTwT4o8KeIvhp8JrTX77wfLJpmmaxBFaasLSOKDUvMk+w/a0UCQQMgLOxGx22s5LkE60HxA8P6D4H8M6Tq8Pw1uby78Z2K6rY6f8AY7qyjtmtlSa6EagRRnA2tIoKqc4YE8KWPqJ8qp6pv7k2v0/EccvpNczqaNL72k9fv/A+PfDfhrVPGGu2Wi6LYzalql7IIoLWBcs7dfwAAJJPAAJJABrttc/Z1+IPhxLh77Qo0jt7C41OSSHUbWZVt4GjWZspKQSpljBUfN83A613Hww17wv4b+O3xI02PWbTQNG1m01jRNI1iOTNtaGWTEEm9TxHtXAYHGCDnFa3wqsIvgl/wmp1Xxf4P1xLrwjqQsbC11aK+t2ufNtMIyZ2M0gQYTkuIiCMLWtbF1Yy9xLZNJp3d/O9lb5mVHCUpR99vdptNWVvK13f5HzTRX1j4r8T+AdM8B+J9f0jT/A7eJ7zw94bnhtFsrOZIL2TzxfCG3YMqsoKb0C/L8pYZxXRA/CwalOJ/wDhXn/Cvja6Z/Yf2fyP7Z+1eZBv+1Z/e7ced5vnfLjb/tUnmDSv7N/1b/P52fYpZam7Kov6b/y17XXc+LKK+xJviD4ATVbjy/D/AMOfKT4inR4m/s60K/2GzHdPjoU+UYmOQu4hSBjEsEnwp0rwdeW2m6N4N13dqGtwag+oa1Z2csUQnlFo8JeCSd18kR7DbMPmxnIJIX9oSVr0n+H9f8HQFl0W3aqtPX+v8lqfIuvaHe+GNd1HR9Tg+zalp9zJaXUO9X8uWNijruUkHDAjIJHoatN4O1dfBqeKjaf8SB79tMW781ObkRiQpszu+4wOcY5xnPFe3aTeaB4p/Z51i41e60bR/FcX2q8fVbyXTr+/12R5t2x1k3XkEmdwDrtBHzEnNbf7P154P1D4SaJo/iPX9GsJIfF99f8A2HU2t281f7LVY9yT5jRWcELJICm5QOTxWk8ZKEHLl1i7P7un9O3XUzhgoTmo82kldffs/wClfpofLtFfYfjrXvh14W8P+K9X0bT/AAJf+IE0HQ2t7R0sb6P7abq4S78tI40jZxHsL+XGq42sVwRXQRaX8OLvxnrNv4Sj+HVzNc+LrJJYNT+yTRvpjWcBdLJGyCxnaZcRDdnA7Vl/aVld03/Vv8zb+zLuyqL+r/5a9rnw5RX25Z+F/hncfEvw7LczeBtK07QPFviSDXLDU5LS2aSBrhhZqYnA82NQMLwVTtgZxheGtO+E6/CG1tdfufDN0r+H7W7muop7GG/iu/tCGWFEjT7U0qoW3F5MNgBY2y20/tJaWg+n4tr9L+jF/Zbu71F1/BJ/rb1R8gUV91y6B4Cl07xhqfiGx8Az+CrbxPpUWl3vhaC2aeCwa4OUnkQZAZFUyBj5h/ffw+WK8R/agvvC8sGk22h6H4Zsp0vbwpf+HdWs7pprbK+WJY7S3iRB83yb90mFYMT1N0Mw9vUVNQfr8r/8P2Ir5d7Cm6jmvS3nb/hu58heEEUePdYAAwvnY9v3or363+BPjm58Ff8ACWDRBHoRtXvVmnvIIpHgXO6RYWcSMvyk5CnI5GRXgXhH/kfda/7b/wDo1a+5/Dt/oGofB6yvPH914J1e58PaXHc+HprXU421VmjcPFp1zbYPmRHLowZflBPXO6vMwVadDDXgt5vz69NV/XRnrY+jCvirVHtCLWtunXR/11R8r10Gq/D/AMR6LYxXt5o13HZyWMGp/aFj3xpbTMVhldlyEDsMDdjJ4r651s/BbQl1eTTh4Q1A6KLjxPbiQ20n9pNcpfLHpoGORCxs22fNjn5RjJyE8U+G7P4UeItA8NX/AIMs9RvvBHh6bybhdPVbm+R914sjSja8wVc7XJYPhgA3Nd39ozlbkptK6382vyTued/ZsI3U6ibs9vJP82rf8OfK3g/wdq/j7xDbaHoNp9u1S4WR4oPNSPcI42kc7nIUYRGPJ5xgc1jV9xaTr3grwx8Y/D1/pNz8OrLwRFJL/Zt5Y3NvDqKxnSbtXW7IxJh5GQHzGB3bAoJY4+efjLrGgeJvh/8ADXWbCz0DT/Ed1a3yaza6FBFbhClyVgMsMf3GMYBBIBYHPSt6ONnVqKLhaLS+TfM9fu+TMa+BhRpOXPeSb+aXKtP/AAL5rsU/EH7MvxJ8MaPe6pqHh1UtLK3+13Pkahazyww7Q3mPHHKzhdpByV4FeX19neJ9S0Dwr8etb+LL+OvDt3oK6QsMOlaVqkd1e38p01LYQGGMnavmDJZuBsB9xQ8Y+Kfhn4V8N2V54f8AC/g7WdEtYdIuIJptQsJdQlKyRm6iezNt9oaR1Miv50hQDDLhhtrmpY+s1FShzXS20Sb3Wr3X9bHTWy+inJxny2b31bS2eiWj138tdT5r+Hvwu8SfFPUZrDwzZQ393EFLRS3sFsTuO1Qvmuu4k8YXJqDx58PNe+GetJpPiK1hs794ROIobyG5AUsy8tE7KDlGG0nIx05FfQPim++H3gj4wfC3R/C93oFxp0HihNe1DxBaGHbFDJfgwW7zg/KsMCAspIUFs4GDW94avPBF9qC3dpN8PrkzeMNRk8TzeLGt3nksWnBhazMnVDFvOYvm37e2at46omp8vutbW167u/W2mnVIhYCk04c/vp73Vumyt0vrr0bPjytnxN4O1fwc+mJrFp9jbUrCHU7Qeaj+ZbTLujf5ScZHY4I7gV9Z+ET8IhY6AdOHgv8A4Qktqf8Abw8ReR/be3zZfs/kb/333PL2bOcY3c5pdD1zwV4j1PQbDU7rw00J8DaDZnxFe3Wl3B0a4jjk8yP7NeEiUno6opdNqjA3A0SzGSbtTdlvf1t/wbau1rasI5bHlV6iu9rel/u6X0V730R8fado9/rBuRYWNzfG1ge6n+zRNJ5UK/fkfAO1RkZY8Cqde7/szeJbTwtr/wARtOj1XREF/wCGb+10661qO2jhurgFRCm66G1VfJJjchWwN4O0Y9A1Y/DcfDq9+y/8IQfDZ8GD7Hv+zf8ACQ/215Yx5m397nfnd/BjpxW9TGSp1XBwutLfP+tPmc1LBRq0lUU7PW/y/rX5HgXgD4IeM/ifpV3qXhvSor2xtZ1tpppr+2tgsjDKqPNkUkkema5TX9A1HwtrV7pGrWkthqVlK0FxbTDDRuDgg/4jg9RX0b+zr8SvCfgL4Ka+viWDS9YR/EthK+j3koMzwAYeeOLOWMfUcFcjBrr59B8H+I/Efn6x4u8D61fw/EePVr/V9RvrNDe6O0MLCPr86Z3IYh8obdkAZNYSx1WnWnGcfdW2j8v8/LpvqdMcBSq0YSpz9976rz/y7vrtofGlFfoF/wAWP/6p9/5I0Vl/a3/TqRt/Y/8A0+ifkTqWpXmsX017f3U99eTNuluLmQySSH1ZiSSfrVaug+3N/wA8LT/wEi/+Jo+3N/zwtP8AwEi/+Jr8ybvqz9X2OforqLBbzVLuO1stPivLqQ4SCCxjd2OM8KEyeBW1/wAIL4v/AOhQv/8AwSH/AON0gPPaK6e+F3pl3Ja3lhDaXMRw8M9jGjofQqUyKhW7kYMRb2pCjLEWcXAzjJ+X1IoA56iug+3N/wA8LT/wEi/+Jo+3N/zwtP8AwEi/+Jpgc/RXQfbm/wCeFp/4CRf/ABNH25v+eFp/4CRf/E0Ac/RXQfbm/wCeFp/4CRf/ABNH25v+eFp/4CRf/E0Ac/RXQfbm/wCeFp/4CRf/ABNH25v+eFp/4CRf/E0Ac/RXQfbm/wCeFp/4CRf/ABNH25v+eFp/4CRf/E0Ac/RXQfbm/wCeFp/4CRf/ABNH25v+eFp/4CRf/E0Ac/RXQfbm/wCeFp/4CRf/ABNH25v+eFp/4CRf/E0Ac/RXQfbm/wCeFp/4CRf/ABNH25v+eFp/4CRf/E0Ac/RXQfbm/wCeFp/4CRf/ABNH25v+eFp/4CRf/E0Ac/RXQfbm/wCeFp/4CRf/ABNH25v+eFp/4CRf/E0AangTxXZaLaT2l6zRK0nmLIFLDkAEHHPYV1X/AAnmhf8AP9/5Bk/+Jrgftzf88LT/AMBIv/iaPtzf88LT/wABIv8A4mvfw2d4nDUlRik0u6f+aPm8VkOFxdaVabkm+zX6pnff8J5oX/P9/wCQZP8A4mj/AITzQv8An+/8gyf/ABNcD9ub/nhaf+AkX/xNH25v+eFp/wCAkX/xNdX+sWL/AJY/c/8AM5f9WcH/ADS+9f8AyJ6/rPx8Ov8AhnSfD15ra/2JpRZrWyt7EQRq7AAu/lxr5jkD777m5PPJrnv+E80L/n+/8gyf/E1wP25v+eFp/wCAkX/xNZXijW7nTtCubi3jtI5k27W+xwnGWAPBX0NRHiDEwVowivk/8ypcN4WbvKc381/kep/8J5oX/P8Af+QZP/iaP+E80L/n+/8AIMn/AMTXzb/wsTXP+e1p/wCC+3/+N0f8LE1z/ntaf+C+3/8AjdP/AFkxX8sfuf8AmL/VjB/zy+9f/In0l/wnmhf8/wB/5Bk/+Jo/4TzQv+f7/wAgyf8AxNfNv/CxNc/57Wn/AIL7f/43R/wsTXP+e1p/4L7f/wCN0f6yYr+WP3P/ADD/AFYwf88vvX/yJ9Jf8J5oX/P9/wCQZP8A4mj/AITzQv8An+/8gyf/ABNfNv8AwsTXP+e1p/4L7f8A+N0f8LE1z/ntaf8Agvt//jdH+smK/lj9z/zD/VjB/wA8vvX/AMifSX/CeaF/z/f+QZP/AImj/hPNC/5/v/IMn/xNfNv/AAsTXP8Antaf+C+3/wDjdH/CxNc/57Wn/gvt/wD43R/rJiv5Y/c/8w/1Ywf88vvX/wAifSX/AAnmhf8AP9/5Bk/+Jo/4TzQv+f7/AMgyf/E15D4K8RXmr6VLNdraSyLMUDfYoV42qeyD1NdB9ub/AJ4Wn/gJF/8AE0/9Y8V/LH7n/mL/AFYwf80vvX/yJ33/AAnmhf8AP9/5Bk/+Jo/4TzQv+f7/AMgyf/E1wP25v+eFp/4CRf8AxNH25v8Anhaf+AkX/wATT/1ixf8ALH7n/mH+rOD/AJpfev8A5E77/hPNC/5/v/IMn/xNdp4G/af1D4cWf2bw/r1vZxC5N5GZtJiuHimKbDJG8sLNG23jKkcV4b9ub/nhaf8AgJF/8TR9ub/nhaf+AkX/AMTWc8/xFRcs4Qa80/8AM0hw5hqb5oVJp+TX+R6Hd/EfSdQu5rq61SS5uZ3aSWaZJHeRycszMRkkkkkmov8AhPNC/wCf7/yDJ/8AE1wP25v+eFp/4CRf/E0fbm/54Wn/AICRf/E1f+sWK/lj9z/zI/1Zwb+3L71/8ie7+Nv2q9X+IejrpWueJUn04XH2tre20yO1WSbGPMk8mJN7YJ5bJrg5fH+hxxsy3bSEDhVifJ/MAVwn25v+eFp/4CRf/E0fbm/54Wn/AICRf/E1nDPsRTjy04RS8k/8zSfDuGqS5qlSbfm0/wBCTw74mi0/xPc6hcIVhuS+7aMlNzbv6V3X/CeaF/z/AH/kGT/4muB+3N/zwtP/AAEi/wDiaPtzf88LT/wEi/8Aia58LnGIwkHCCTTd9V39GjpxmSYXGTVSbaaVtGunqmd9/wAJ5oX/AD/f+QZP/iaP+E80L/n+/wDIMn/xNcD9ub/nhaf+AkX/AMTR9ub/AJ4Wn/gJF/8AE12/6xYv+WP3P/M4f9WcH/NL71/8id9/wnmhf8/3/kGT/wCJo/4TzQv+f7/yDJ/8TXA/bm/54Wn/AICRf/E0fbm/54Wn/gJF/wDE0f6xYv8Alj9z/wAw/wBWcH/NL71/8id9/wAJ5oX/AD/f+QZP/iaP+E80L/n+/wDIMn/xNcD9ub/nhaf+AkX/AMTR9ub/AJ4Wn/gJF/8AE0f6xYv+WP3P/MP9WcH/ADS+9f8AyJ33/CeaF/z/AH/kGT/4mj/hPNC/5/v/ACDJ/wDE1wP25v8Anhaf+AkX/wATR9ub/nhaf+AkX/xNH+sWL/lj9z/zD/VnB/zS+9f/ACJ33/CeaF/z/f8AkGT/AOJo/wCE80L/AJ/v/IMn/wATXA/bm/54Wn/gJF/8TR9ub/nhaf8AgJF/8TR/rFi/5Y/c/wDMP9WcH/NL71/8id9/wnmhf8/3/kGT/wCJo/4TzQv+f7/yDJ/8TXA/bm/54Wn/AICRf/E0fbm/54Wn/gJF/wDE0f6xYv8Alj9z/wAw/wBWcH/NL71/8id9/wAJ5oX/AD/f+QZP/iaP+E80L/n+/wDIMn/xNcD9ub/nhaf+AkX/AMTR9ub/AJ4Wn/gJF/8AE0f6xYv+WP3P/MP9WcH/ADS+9f8AyJ33/CeaF/z/AH/kGT/4miuB+3N/zwtP/ASL/wCJoo/1ixf8sfuf+Yf6s4P+aX3r/wCROr8Vx6rbaPPba/oJ07UVuIXgmi0qK0QRbZBICY0Xdlmix1+6eR34yvVviz8WLT4m2MoWW7082VyRa2md0N1CejuP4ZBjPcYbA7k+U18qj689D+HOiaDbaa+ua74kGircC90yCD7DJcFy1sEZ8p02/aFOCOcdfTlPFugw+G9dmsba+GpWwjhmhuxEYvNjkiWRG2nlflccGun8O+FofGPgWztl8Q6Fo1xZ6ldSPFq975DOskVsFKjByMxsKXxt4OuLzXVay1PQr2CKys7bz49atFV2jtoo3IDyK2NyN1ApAYPj3/kOWv8A2CtN/wDSKCsiy/49tQ/64D/0Yla3jx428QIkc0M/k2FjA7wSrKm9LSJHAZSQcMrDIJHFZFm6rb3wLAFoQFBPU+YhwPwBpiKtFFFAHrWofCrTrbxdomjf2P4gtLG9nhjOsXEymCcPFvYRDyFAIJ/vNwp49OEj8B63Lpkd+trH5MiLKsZuYhP5bOEWQw7vMCFiAHK7eQc4NdFN8SdJbxdYeJodCvU1SCSF5FfUkaCQJGEwqiAMpOAcljjng9if4t3NzoGnWLtrMU1nBBbeVb6wyWEqREAbrYxnkooBw4BI3Y6gvQWpSk+Dfi6K4ED6bCspla3Cm/t/9cMHyf8AWf60ggiP7xHIBArFtPBurX2jtqcUEX2XZJIqvcxJNIiAl3jiZg7quGyyqQNrc/KcdAvxQ26nFd/2Z/q/EZ8QbPP65ZT5Odv+z9736VI3xXuJvCceju+s2rwxTQRHTtYa3t3R3ZwJoPLYSEF2BIK7lwD0zRoGpVh+EXiJdQs7e9t4LJJrmG3kdryBmg83JRnQSZUMASpbAbgA5Iqrr3w41TQ5dSZ5LF7OznkhFwdQtl84pgny18zLsAy5VdxUtg88Vo3HxSeTU9avY9OEcmozWcyq024RG3ZSP4Ru3bfbHvT7r4jaZJbeIIodGvWj1WSWZLa91CO4treWRcGVUNuCJFycOrKcbQcgHIM4GiiikBc0bSp9d1ix0222/abyeO3i3nC7nYKMnsMmt7UdM8P31yuk+HYNXvtVM6QQXEkkbR3pPynbCEDR5PK/O/HB65HPaZqM+kalaX9q/l3NrKk8T4ztdSGU/mBXWw+PdJ03XbbXNL8OG01VbhZ5RJemS1/6aLFGEVkDEn7zvtBwOcGmBRHwy8RyXtrawWcN5LcmVYms72CeNmiTzJELo5UMEGdpIOCOORSH4ba+t08LwWkarbpdG5fUbZbYxsxVSJzJ5ZywYABsna3HBxfi+IFjpVoLHSNIuLbTyt6Xju74TyNJPavbg7hGgCoHyF25JzluRiTw38SbfRU0tLnT7u6isbL7G1tFeIlvdr9ommInjeGRXX98Bt7FdwIJGDQNTGtfh/rt7pqX0NpE0Ukck0UZuoRPNGmd7xwl/MkUbW+ZVI+VvQ1fvPh1eXGprBpSo1uLOwmea+u4bdPNuLWObyw8jIpJLPtUZbC98E1bg+JVtGLC9bRmGuafayWdpcQ3ey2RG37S0JQsxQSNjEgHC5Bwc3NL+Mc1jbXNqYtUtLeWKyUPo+qmznV7e2W3JL+WwZXChtpXg4weOQWp53PBLazyQTxvDNGxR45FKsrA4IIPQg9qZU+oXbX9/c3LvNI00rSF7iTzJGJJOWfA3NzycDJ5qCkMK7PW/CunaT4U0+7itNTvJ72CJ49VhmRrLz2OWtygQlXVQwOX3ZUHYFYGuMrsNK8cWXh7SbmLStLuLfULqGGK4knvRLbExujiRYfLBD7owcl2A3NgDIwwIZfhd4liuIYPsEUk8lwloYobyCR4ZnzsSVVcmJjgjEm3kEdjVLRfA2t+IUtnsLMTJc+f5bNNGgPkqrSklmGAodTk468dDXTxfFa20zV5NS0rRZLS6u9Rg1G+We986OQxyGTy4x5alFZmOdxc8Lg8HMB+I+m2WmQ6dpWhz2trHb6hD/pN+JnY3UaIWJESj5dg4xyO+eSC1MGTwJrMdmLpoLfy3kMcKC9gMtyQ+zMMYfdMpbIDRhgcHBODVl/hn4gS6jg+zWr7hKWmj1C3eGLywDIJJRIUjI3LkOQfmA6kVZh8eWyQ6FdSaZK2vaIsSWd4l0FgZY5fMTzYTGSxGSMq65GO4Ode++LgvdbgvjL4pMEZkY2s3iITKCxGFXfbkBMblZWDbgQCeDkDU89vLV7G6lt5GjaSJijGGVZUJHo6kqw9wSK53xt/yLF7/wAA/wDQ1rrPEGpxa1rd9fQWUOmw3ErSJaW4ASIE8KMAD8gB6ADiuT8bf8ixe/8AAP8A0NaTKR5XX0E/7Nulap+ypo/xH0TUb248Yb7281DRZCrRyabbzrBJPbqqbsxNLE0m5iAjs3AQ18+17D4a/aP1Hwhpnwog0vS0iu/Al3qE5mln3x6jFeOhlgePZ8iGMPG3LZEh6VkUdB8Sf2Stesviz4p8O+B7U32haXqFvpdrd67qtnZyXd1LAkq28TTPCs8x3f6uIFgCmR8wzz/iD9l3xbpHgrQfEdo+m6ml74em8Q39jFqtkLvT4Y7qeBw0AnMrhVhRmIQbHd4mAeJwPTb/APbsuNVvvFyjS/FnhjTNZ1xNctl8GeM30q8t3+yx20kM0/2aRbiMrBCwzGjKytyQxFcX4P8A2mdN0C48A6hq3hO98Q6x4fs9Q0nVZbnW8Qa7p15LeSzQzRmBmV999IfMLuDjlCcEAHNxfsr/ABVn8QXeiJ4Ouv7VtfsHm2rTwhgLxS9uRl8MCquzEZEYjkMmzY2Eg/Ze+I93qUFpbaPYXkc+m3Grx6ja67YTac1rA4S4k+2pObf90zDzB5mUBDMApzXp1z+3frN/L4YkvPC9revp+ralqGqNPeOW1KC7+1qLcMFBh8qLULtEb58bkIUBNrcnpv7SGieE/DN94Y8LeC7qw8PXGh6vpoXUtbF3eG71D7Mst08q28aFVjs7dFiSJPuklyWoAj+KX7MWqeEfC2h+INFhN1pC+GrXVtc1G61O0+yxXctxcxeTbShlWbcLfKJGZGYZYFgRXhle9eLf2n7bx78GtD+HWveE3udN8P6TBbaPdW+orDLaX6NL5l0T5B8yOVJI0eBv+eCFJEJOfBaAPRvhz/yBJ/8Ar4b/ANBWu20WyTUtZsLSUssdxcRxMUPIDMAce/NcT8Of+QJP/wBfDf8AoK12mlX39mapZ3mzzfs8yTbM43bWBxnt0rVbEs77X/htZXkF4/hu3v45LLVZ9NmXUrqJo5FjQsZvN2RrGFC/MGyBvT5ua51Phtr7yXo+zW6R2aRSTXEl9brAEkBMbCUuEYNggFSRnjrxWzafGPWE8YX2tXd1qN1DdR3ECQjUXWW1ilO7EMpB8sqQuCFx8vSqGufEFtYsNYtGGp3Qv2tStxq2pfa5ohD5ny7/AC13AmQ4GBjHfNMnU0/F3wouNL1iSw0xYmjsoIftd/eatarA0rrnAJKrGSQ2I2ZnwN3Q1hx/DTxJIrk6eISt9/ZhS4uIonNzlB5QVmBJ/eKeB0JPQEjV1P4kWPiGTVYtX0aeawvbiG7jitL4QywypF5X32icMpXqCvpg9cxXvxPl1HWNK1CewTfY6zJq3lxykKysLcLEMgkBRbAbjnO7pxyaBqQS/CPxVDEztp0WAshAW9gZmZAxeNVD5aRQrZjALjHK1lxeCtWuNJXUoEtbi1JQMIL6CSSPe21d8auXQFiBlgOSPWtrS/iT/Zt7o1x/Z3mf2df3l9t8/HmeeqDb93jbs685z0FaI+LyR+Ek0SLTLpEENpGU/tD/AEVWhkRzIkAjAV5CpLMWJJYn1BNA1MO/+FnijTbu3tZtMDXE9wbRYoLiKZklA3FHCMfLO35vnxwCegJqG3+HetXVzJDF/Z0mzYpmXVbTyNz52oJfN2FztY7A27AJxitmz+Kps7/Up/7KWWO/1aXUZYnnOPLkimikhyFByVnbD9iAdpp+gfE6z8MWN7pumW2vafp1zLHcA2euCC6WRQynMqwAMhBHylOCoOaNA1OBngltZ5IJ43hmjYo8cilWVgcEEHoQe1MqfULtr+/ubl3mkaaVpC9xJ5kjEknLPgbm55OBk81BSGFd94i+Gi2vh3whf6O095c6yqQz28hX5Lhz+7C9PlcbgM90bnpXA13+m/Fy60mFY7exUbdITTULyZ2SozlLlfl4ZRI4A/2jzTAXxj8MUsfEkll4euUvdNis7e4bUL+7ht4SZFyMSOUT5iGKrncQCecEjLsvhV4p1GF5INKLbZprcRNPEsryxcyRrGWDMygE7VBOAfStzS/jHNYWz2vkalaW72lnb+ZpOqGzuA9vGUDeYI2BVgzZQqedpB45o2nxPa2vNKneznvGsJ76YyXV55ks32lAvzvs5ZcZLY+b0FPQWplH4c68L8Wv2e2JNt9s+0C+tzbCHeU3mff5YG8FfvdeOtPi+GniKWS9X7HDGln5JmmlvYI4sSqzRMsjOFdXCnaVJB4x1GbmnfEK3i8P2+h3+lyXWmixNnOIboRSuftL3COjFGCkF9uCrAjPTIxFrXjY+ItNl0eCyFrbyS2KWvm3IPlR28c0aq7EKCWM5Yt8oBB4APCHqYeoeGtS0uG8lurYwpaXhsJizr8s4DEoBnnG05IyBxzyM5ldx8U/Ea6td6ZYq8E0lnbI97cW0iyJPePHGJpA6khuEjUkEgsjEEgiuHoAK1vCWhHxL4l07TCxSO4mAlkBA8uIcyPz/dQM34Vk1u+EvFcvhC4v7m3toLi6uLN7WJ7iNZEi3su9ijKVfKB0wRj589sEA1NU+Hd1ceJruy0BGvbD7IupwTXMscRFo4Uh3ZiqjbvCseACrHAAOK6fDLxG9zdw/Y4FFrFFcSzvewLAIpB+7kExfYVboGDEZ468V1fh/wCIlnrenX8evWVqslrotzaBrRorI3MbTwukSKke1WU+awIU5zyvByyz8aaLqnhrxFDe2Lw6dDaWNlZ6emoKl06RysxYSNGQzbmZmxHjDYAHBAIzbT4ZzW2nP9vsLubV4dRktJLGG6iiBjW1abcHKsvbdkZDLwOoNc6fBGqx2VldTLZ2sd5sMKXWoW8MrKxwrmN3DKh67yAuOc45rqIvi8IpmKaOqQrOzQRLcn93ELI2kcZJUliqbSW7kHgZ4qWfxC0tNX0nWrvQZrnWbOOKGWRb1VgmWOPy0YRtExSQIEO4MQGXdt7UaAZn/CutV/5+9C/8KCw/+P0V0/8AwuH/AKf/AB3/AOFd/wDc1FGgannnlWH/AD83P/gOv/xdHlWH/Pzc/wDgOv8A8XXpXxl+BWofCuaKVpEurGbJjnjzg4xkEHoeeleVVlTqRqx5oPQ6sRhquFqOlWVpIt+VYf8APzc/+A6//F0eVYf8/Nz/AOA6/wDxdTeHfD194q1q10rTYfPvLltqLnAHGSSewABJPtXoF58FbS21J9DXxdp7eKFwo0yWCSJHY9FWZgASewxzkVpc5jznyrD/AJ+bn/wHX/4ujyrD/n5uf/Adf/i6jvrGfTLye0uomguYHMckbjlWBwRS2sSSQXjMMmOIMpz0O9B/ImgB/lWH/Pzc/wDgOv8A8XR5Vh/z83P/AIDr/wDF1Ur0qX4Hz2Om6Rd6l4w8MaT/AGpYxahbwXtzOsnlSDK5xCRnqDgnkGtqdKdW/ItiJTjC3MzgPKsP+fm5/wDAdf8A4ujyrD/n5uf/AAHX/wCLrv4vgfPe6Zq95pvi/wAM6uNLspb+4hsri4ZxFGpY4zCBk9BkjJIFea0VKU6VudbhGcZ35WW/KsP+fm5/8B1/+Lo8qw/5+bn/AMB1/wDi6t+F/DV14s1dLC0aOI7GllnnbbHDGo3O7nsABW9eeAtNutKvLvw94ij12axj8+5tWtXtnWID5pE3H5lUkZ6HHOKxuWct5Vh/z83P/gOv/wAXR5Vh/wA/Nz/4Dr/8XVSrFhEk07K43ARSNjPcIxH6gUwH+VYf8/Nz/wCA6/8AxdHlWH/Pzc/+A6//ABdVK+vfhF/wTc8X/GP4b6D4z0vxXollY6vAZo7e7SYSphipB2qR1U9D0x06Ur2A+TfKsP8An5uf/Adf/i6PKsP+fm5/8B1/+Lr3b9pz9jjX/wBl3SNDvtc17TdX/teeSGGPT0kGzYoLFi4H95cYz36Y58Y8PeDtU8UxXMunpbGK3eOOSS6vIbZQ8m7YoMrqCTsbgZ6UbgUPKsP+fm5/8B1/+Lo8qw/5+bn/AMB1/wDi6ivrKfTL24s7qJoLq3kaKWJxhkdThlPuCCKhpgW/KsP+fm5/8B1/+Lo8qw/5+bn/AMB1/wDi6qUUAW/KsP8An5uf/Adf/i6PKsP+fm5/8B1/+LqpVmPTLmXTLjUEjzZwTR28km4fK8iuyDGcnIifkDHy89RkAd5Vh/z83P8A4Dr/APF0eVYf8/Nz/wCA6/8AxdVKKALflWH/AD83P/gOv/xdHlWH/Pzc/wDgOv8A8XTLWJJILxmGTHEGU56Heg/kTVegC35Vh/z83P8A4Dr/APF0eVYf8/Nz/wCA6/8AxdfZ/hr/AIJX+N/FXhzStatPGWgR2upWkV5Ck0c4dUkQOoYBSAcMM4J+teE/tM/szav+zD4j0fRda1iy1e61G0a8V7BXCIgcoASwBJyp7enPPCuh2PJvKsP+fm5/8B1/+Lqjrej2GsaZNZ/bbmHzNvz/AGVWxhgenmD0ro9C8Cax4jsUvLKO0+zyXBtYzc6hb25klAUlEWR1LHDr0B6isy80W80+KZrqIW0kM5tpLeaRUnRwMkGIneAPXbjPGc8UCOF/4VdYf9Bu5/8AABf/AI9R/wAKusP+g3c/+AC//Hq62rmpaPd6R9l+1w+V9qgS5h+YNujbO1uCcZweDzSsh3OG/wCFXWH/AEG7n/wAX/49R/wq6w/6Ddz/AOAC/wDx6u51jR7vQdRmsL+HyLuLG+PcGxkBhyCR0IqnRZBc5L/hV1h/0G7n/wAAF/8Aj1H/AAq6w/6Ddz/4AL/8errat6TpF3rl8tnYxefcsjuE3BcqiF2OSQOFUn8KLILnD/8ACrrD/oN3P/gAv/x6j/hV1h/0G7n/AMAF/wDj1dbRRZBcq+HPD1h4fsXt/wC0LmfdIZN32RVxkAYx5h9K1fKsP+fm5/8AAdf/AIupfD/h+/8AFOsW2laXb/ar+5JWKHeq7iASeWIA4B6mm/2HfCyvrtrZkgspkt7guQrRyPv2qVPOf3b9uMc44piGeVYf8/Nz/wCA6/8AxdHlWH/Pzc/+A6//ABdVK0LLw9qOoZMFpIR9lkvQz4QNDHu3upbG4Ao44zypHUUwIvKsP+fm5/8AAdf/AIujyrD/AJ+bn/wHX/4uqlFAFvyrD/n5uf8AwHX/AOLo8qw/5+bn/wAB1/8Ai6d/YeoCeWFrKeOWG4W0lWSMp5UzFgI3z91jsfg4Pyt6GnatoV5okjR3iwxzJNLbvElxG7o8bbXDKrEqM9CQA2DgnBoAj8qw/wCfm5/8B1/+Lo8qw/5+bn/wHX/4uqlFAFvyrD/n5uf/AAHX/wCLo8qw/wCfm5/8B1/+LqpVvS9Gv9cuTbabY3OoXAUuYrWFpX2jqcKCccikAeVYf8/Nz/4Dr/8AF0eVYf8APzc/+A6//F1Lq/h3VfD7RLqmmXmmtKCYxd27xFwOuNwGcZFZ9AFvyrD/AJ+bn/wHX/4ujyrD/n5uf/Adf/i66/wT8PtL1zTV1PWvEMWnW0k32eCwsojdX9zICMhYVOVGD94+3HIrotU+Evh2RhaWeq6x4e1V0Jgg8V6cbSK5YDJAlzhM9t30zzTsB5d5Vh/z83P/AIDr/wDF0eVYf8/Nz/4Dr/8AF1VkQxSMhIJUkEqwYfgRwfwqeOJG06eUj51ljUHPQEPn+QoAf5Vh/wA/Nz/4Dr/8XR5Vh/z83P8A4Dr/APF1Urq/h18ONT+JOstZWG2GKJC891KDsiHbPqSeAB7noDSA5/yrD/n5uf8AwHX/AOLo8qw/5+bn/wAB1/8Ai6freiX3hzVbnTdRt2tby3cpJE/Y+oPQg9QRwRVGgC35Vh/z83P/AIDr/wDF0eVYf8/Nz/4Dr/8AF1Ur0Txn8Iv+ER+HmheKf7W+1/2n5H+ifZtnleZC0n395zjbjoM5zxQBw3lWH/Pzc/8AgOv/AMXR5Vh/z83P/gOv/wAXVSimBb8qw/5+bn/wHX/4uiqlFAH1/wDtcePNJn8O2uhW1xDd3izGaXymDeVhSoUkdzuzj2r5ArSurTVr1909tdSH3ib/AAqD+x7/AP58rn/v03+FcuHoLD0+RHq5lj5ZjiHXkreR2fwW1K3svFV5aT3C2b6np1xp8F2xwIZXUbGz25GM+9enaZ4N1rxzapp3jDT7vSdb0UhrTxLs+SWNTkpI/RsAEhvxPOd3z9/Y9/8A8+Vz/wB+m/wrRmvPEtzp62E0+qy2K422rvKYhjphTxXQ0eXc0fizr1p4l+IuuajYuJbSWYLHIo4cKqpuHsdufxrnbL/j21D/AK4D/wBGJR/Y9/8A8+Vz/wB+m/wp6abqMayKtncgSLtYeS3IyD6eoFMRRr3P9n+6/wCE307WvCerWEOsWunWL6np32iISvbOJY0dEyD8r78kdMrnvXi/9j3/APz5XP8A36b/AAq1pi65ot4l3pw1CwukyFntfMjdc9cMuDXVh63sKim1ddV3RjVp+0hyrc9f/aAvD4I0vR/CGk2EGkWWp2MWqal5MIjkuZPNlWNHwB8qbMgerZPQV4XWrqa65rd7JeaiNQv7uTl57rzJJG+rNkmqv9j3/wDz5XP/AH6b/CjEVvb1HJKy6Lsgo0/Zw5XubPgPxDaaBql2mopI2m6jZy2Fy0IBkjR8fOoPBKkKcd8Gux8Had4a0S8v4dO8VQ6lq2pWU1hZb7WW2hiaRcbpXbocZAABG4jJ715r/Y9//wA+Vz/36b/Cj+x7/wD58rn/AL9N/hXLY2G6npl3o2oT2N9A9rdwOUkhkGGUinaX/wAfL/8AXCb/ANFtVrUU1vWJ1nvo767mWNYg8yOxCqMKMnsAKgi03UYWLJZ3KkqVz5LdCCD29CaYFGv2d/Yu+JXhDw/+y98PrDVPFWiabfQ2L+Za3eowxSpmaRhlWYEZBB57EV+Nv9j3/wDz5XP/AH6b/Cj+x7//AJ8rn/v03+FS1cdz9EP+CrHjLQPFvhH4f/2Hrmm6z9nvrrzv7Pu45/L3Rx7d2wnGdrYz1wfSvhrwbqmi2HgvxDHrNvJfpJfWDx2UF6ttJLtFxuOSjkqNwBwAfmHI78p/Y9//AM+Vz/36b/Cj+x7/AP58rn/v03+FNKwnqeoWfizRddfw5Pr0Gkn+1dYuZ9XcQoZkj3xmJC5DPHHkkcHJUEZIzWibnTLjxDDGdE0Gyla0kiOof2ro9ykeZEKy+SEit2ZfnG1lDsr8MNoI8e/se/8A+fK5/wC/Tf4Uf2Pf/wDPlc/9+m/wp3Eer3T+HLLwdcx2VppWuOVvVu7s3tjZymbzJAkscMkRmC7PKdFhcKcbSud25L248L+I/FmraDctoumaMi29xZ6haQwxbTGFMyeaoy5dGmwGYjeEAAwAPKf7Hv8A/nyuf+/Tf4Uf2Pf/APPlc/8Afpv8KAPWYtc8OX/g+e/g8P6RLPc/bXvbX7fZWkluSW8oRpLCZWCxmMr5DDcysCCSc8z8ObrRE0qW21yaFbOTXdOklhlb70axXgZiB8xQF0DEdAw9RXGf2Pf/APPlc/8Afpv8KP7Hv/8Anyuf+/Tf4UDPWrJtLxANcXwu3iRTeNZfZDZizI8geSJ/J/c/6zdt8znI+f5SK5b4p2q29r4VkeHSYr6fTnkum0dYhDI/2mZQ2YvkJwoBK8ZUgcCuY0yHVNJvo7uDTy8secLc2SzxnII5SRWU9e4ODg9RU+u3OveJb1brUIJ5ZEjWGNUtRFHFGowqIiKFRR6KAMknqTQIzrL/AI9tQ/64D/0YlVKvJpuoxrIq2dyBIu1h5LcjIPp6gUz+x7//AJ8rn/v03+FAz90/hR8V/BGnfC3wdaXfjHQLW6g0azimgm1SBHjdYEDKylsggggg9K/Pv/gqh4l0jxV8UvBt3ouq2Wr2qaM0TT2Fwk6K4nclSykgHDA49x618Yf2Pf8A/Plc/wDfpv8ACj+x7/8A58rn/v03+FSo2Hc7DStI/wCEj+HWn2UGoaXazw6xcyzLf6hDbmON4bcB9rsGYZVvugn5TxmuvbXfD+s6i99FBp2rT/2kIFe/mt7aWWFLERefm4+XbvXzAsgKk4BGTXkH9j3/APz5XP8A36b/AAo/se//AOfK5/79N/hVCPa/Cen+HLbXNRGpanoOr2c14IZmePTbJIo/IUl1Uo5YFmKYt2UAxlt5DAjN1O+sLzwrYfaZfD0+kxeGxFITJA2oLehW8pUwTMpD+VkDEe3fu5zXk39j3/8Az5XP/fpv8KP7Hv8A/nyuf+/Tf4UCse5vqnhu41XW7uK00jXtQa/h8xbvUrK3R7YW8e0I9zG6kbxIGMRVx8vPTHmvgM2Ek2uvEmnRar5AbS01l4mt1PmDeCZsRF/LzjeMdcfNtrlv7Hv/APnyuf8Av03+FH9j3/8Az5XP/fpv8KAPWtKttJj8F6wNXm0G4vp7S+lJhk02M29ypYRxxrGhlfJUOrRuseGCgHoZLPULHSfGenXVo/h1PCccMv2XY9qtwxNlINs5BFxyxYEOQNxAH8NeQ/2Pf/8APlc/9+m/wo/se/8A+fK5/wC/Tf4UBY9b8N3/AIb1KxstRvbbR5fEMmmSAW6tZWMJlW7YfMskTQJJ5JGN6cgZHzYNeaeNpbefxTqElrYwabCzg/Zra6juY0baN22SIBCCcnCAKM4AAFZ/9j3/APz5XP8A36b/AAo/se//AOfK5/79N/hQM6D4XXtvp/jexnup4raBY7gNLM4RQTBIBknjkkD8a7az8QeHPEPhpNS126ijuL3VtPTWbQORLMIhNvuQq/MVdJF3bedyuf4hXlP9j3//AD5XP/fpv8KP7Hv/APnyuf8Av03+FAHb+Pmh/wCEeRdQHh7+3P7QcwHw/wDZtn2XZzu+z/Ljdt27/n+9niul0DxWkHh7QbqabQngtPD19aG3lS1WY3Ae5KRuoxIysjRnB+VmYk5ZiT5H/Y9//wA+Vz/36b/Cj+x7/wD58rn/AL9N/hQI9Nvtb0WLw1eapBBoJ1ufSrI7BaW7BJ/PlSUpDt2K3lhNwC8ZDYBwaf4iu9IsdP1Oe2Tw6+jJBbNoYt47aS9+0Axk+auDKRgTeYJwVJ4HVa8v/se//wCfK5/79N/hR/Y9/wD8+Vz/AN+m/wAKAPa9f8SSXeoeMI0vfDTQTa5bahA6DTw0tmTc7mDgZaUBo+/mDcx/ibNO81Pw2urX2oMNFvp/P16cfaBFIsrZU227+9k52evOK8g/se//AOfK5/79N/hR/Y9//wA+Vz/36b/CncLHqaXOm39ibzS08Mp4muNMtHZLxLSK3UiWVZyscoECy4W3+UgHaXIHJrkPi5ZW2n/ELVbezgt7a3QQ7YrRNkS5hQnaOwySeefXms7Q7rWvD00ktpp0bu+Mm80uK6xjoVEsbbT7jFVdTi1nWdQuL6+hvLq7uHMks0kbFnY9SeKQGXWr4V8SXfhDxDY6vZNi4tZA4GcBh0ZT7EEg/Wqv9j3/APz5XP8A36b/AAo/se//AOfK5/79N/hSGbvxK8d3HxE8V3OrTK0MJAit7ctnyoh0H1JyT7k1y9W/7Hv/APnyuf8Av03+FH9j3/8Az5XP/fpv8KALfhnxVqvg/UWvtIvJLG6aNoTLEBu2N1AJBwfccivZ/CuqWHxJ1DVdLS58Q6z4ftbSK8j0bVdTiaa8ugygxK5w6qSW+4eSMnGQteG/2Pf/APPlc/8Afpv8KltbLVbG4juLa3vLeeM7kliR1ZT6gjkGmgOm+L/g/TvBHi4adprS+S1tHO8c0yStE7ZJjyh/h4Hzc8Z6EE8pF/yCbn/rvF/6DJSvpWoSMWazuWYnJJiYkn8qcNN1FYWiFnc7GYMR5LckZx29zQBRr3n9nDX9a0KWZL2y1EeF5oJJIZbXSJJlkuPMQZ3xRlmwA45OBjHYV4j/AGPf/wDPlc/9+m/wo/se/wD+fK5/79N/hSauB2Xxlv8AXtW8X3d3rFrdQWbXEyadLdWBtTJAH+UDKKzYUr97JGRmuCq3/Y9//wA+Vz/36b/Cj+x7/wD58rn/AL9N/hQBY8MvqsWvWUmhx3Euqxv5lulrGZJCygk4UAk8A59s19DeNviZ4y13wJb2Gm+Edesdau0Md9MmnzBYgOD5Z25+f81HHJ5r5x/se/8A+fK5/wC/Tf4Uf2Pf/wDPlc/9+m/wosO5Uoq3/Y9//wA+Vz/36b/Cj+x7/wD58rn/AL9N/hTEVKKt/wBj3/8Az5XP/fpv8KKAMX7fJ6L+VH2+T0X8q9d1r4a6F4g1MWenXD6brF54m1azwbZVtY4YTC23d5oCqkbFgQgyXKnaFVjhXfwr0azku538WRyaba6c1/K9tHb3VwjC4ih8sxwXLoC3nKVJk55B28kFguef/b5PRfyo+3yei/lVdsBjtJK54JGCRSUgLP2+T0X8qPt8nov5VWooAs/b5PRfyo+3yei/lVaigCz9vk9F/Kj7fJ6L+VVqKALP2+T0X8qPt8nov5VWooAs/b5PRfyo+3yei/lVaigCz9vk9F/Kj7fJ6L+VVqKALP2+T0X8qPt8nov5VWooAuQXbyyqpC4PpVys2z/4+E/H+VaVAHa+Afgr46+KdpdXXhHwtqXiKC0kEdw+nwmXymIyAwHIyM4z1wfQ1r+I/wBmb4qeENDvNZ1vwHrek6VZx+ZcXl3amOKJemSx4HJA9yQK+5/+CQ//ACKPxI/6/rP/ANFy19Hft0f8mm/Eb/rxj/8AR8dTfUqx+H1Feq/sw/8AJYrL/sFax/6bLqu4j+CXw9hsIYrlvExvbfwbYeMr66ivLfy2R3txcW0UJgznZK5SRpMBtoKMAWNEnzlRX1Pb/so+FtE1nUdO8Ta7d2s1tHquuQmG4UJLolttS3mYpBK6NM7M+9Y5AI4X/d5Py8XrPgT4SaRoXifxFY6prvivS7KbSbSzt9MuxbeXc3MV408cs9xZqzqn2TcrrAmQ4Ur1ZQDwyt3wX4F8QfEXXE0bwzpNzreqvG0iWdou+V1XliF6nA547ZPavQf2sNM8P6L8cdbsfDmkf2JYQw2u62R4zEXaBH3RqkaBFKsvy/MSwZt3zbV9H/4Jpf8AJ2Xh/wD68b7/ANENQxnnH/DIXxp/6Jl4k/8AAFq8mvLSXT7ue1nTy54JGjkTIO1gcEZHHUV/RnX873jH/kbtb/6/p/8A0Y1SncGZFFfbHjSz8MJ8avjjPa6vq03iFvB+oedYTaVFHaIPskOStwLlnY4xwYV6npjnlfEXwi0Hw54xTxBr994s8W3EviLR9EsyL5GuUkk0+3uDJLI8L+cBvSOOECMlUI3jFUI+UaK+tfif8Hvh1HrvifxL418XTaJe+IvEniEWboZylsbe7kjQeTHZzCclypYGaDCuuM9a8V+G3gTQNS8F674s8Rwazq1lYX9npcel+HpY4rjzbjzGE0kjxyBYwsLKq7Mu7qNy4OQDzSivtr4ifAHQviL8dvFUXiG5utIvtavbm30O5S+IaZ7awikkzaLaShthKFvMuIMhiFJKk1wmvfD7wH4mPgJYfDt3pVjD4Hj1vV9SXXIbSKOFZ5YjLL5enyySSeZsQsqOx3INoCM1AHzBRXvsHgHTvhN+2j4S8Oadczz6bY+JNFljmvGzIFka2mIY7EzjzCMlFPHKjpW3+zfpd34Z0fX7XVbeSwuP+E58M6cEnG3dcxXczSxA9CygZIHQY9RQB8z0V9822s3WrfEzwq/9rX/jKwbxL4kxrWrg/adKmSylRtMCl5NkW1UmQiQBwf8AVoY2z8u/Br4ceG/iFo+sQSteav40V1/s3w7a6nFphuIQjGSVZpoJUldTt/c5jYqrFSx4AB5fY2rX13HApwXOM+g711kfhqwRAGiMhH8TOcn8jXPeHP8AkM2//Av/AEE19q/CrwPn4Q2/heYaQl34+iubhvt+qW9pcwtF8umbIXcSyh7iOTBRSCsvAPQyxnyXJ4asHQhYjGT/ABK5yPzNcxJprR381qz4Mau27HUKpYfnivtrxdDJb/BTUopUaOVPA+hqyOMMpGrSggjsa+Nr/wD5GK7/AOuEn/og0LcDCor1b9lQ4/aM+HxyRjVouR1HWu20Tw/4c+L9t4n8VeL/AIk+KvEmh+GrazgS48SNLaTiW5lkGN8a6iUiUR/3PmaQAlMZahHznRX1Jovwh+HHjjT/AAn4b0BtUv4L7xXrNpF4st2RWmgitrK4WNoXtldmMRaONGdQsvmyAMsnlrjfDW+8Cy/CP4wTroniG28OpBo/m2B1iCa7mm+1S7dtx9lRI0yUzmJz8rf3htAPnSivo3xP4Si/Zqb4j32javdLfz3Ufh3w9deYiXUcUkcV1dSnA++kLwQl0xzcEgLkY9X1dtQ0nxV8OJoLO003WNe8c6O3j5LGbJi1RRbywW7AKo2OGmuGX5wJ/NG790uQD4bor6++Hdl4XtbD4hN4f1jV9TuH8W6B9qj1LSorNIj/AGlJjYyXMxfnd1CdB1zxmftY6vLrPg2/kTWdR8YW0PjnU4H1HWF2TaJIowNPiUvIfJdQJFZXCnygNiMpoA+VKKK+lND8WzfDvwf4NkvLbX9It7vwQYH8SeH4iuoaMz63qE0EiEsg2ShQrLvjLo/yvjhgD5rorufjh4f1nwx8VfEOn6/qMOsausyTT6jBF5YuvMjWRZWXapDsrqzbhu3FtxJyT0v7PdrOkXjrWNEs0v8AxnouiC/0WJ4RMYWW5hE1zGpBBliiLuh6qRuAJUYAPIaK+gPAPxp8TxWd3feNtS8VWsGrW0WmWXxEs1aTUNNUTSyhVnO1543kR1ZPOVtsbhSdmw9nott400TxbqXw9u9e1Pwv8QdY8Qy3MXiTR7UtpfiCZoIyLa8CojGJWIbcVkVTdTebEMlgAfJlFFfS/wACvA2n/Ev4QaH4Y1Wa5t9O1L4gxwzS2bKJVX+zZTlSwIzx3FAHzRRX0hafBX4beJNF8OT6MPFVveeKNK1q70031/bNHazWCzMvnBbcF1lEQyqlTGcjdJnIZ4h+A3grSLHx7pUKeKJfEXhHw7aatNqrTQ/2dcTzCBvL8vyd8a4nymZGLhWPy45APnKiivr7w54Aj+M37M/w08EWsaR+JFa81TTrt1QKkI1LyLxWYkHaEmjmIHa2bvgEA+QaK+xfGvhDwX8ZP7K8SXF7JpPgzwv4MiisoY5pYpJraPWb6zgkeRLW4dB5caux8hjuYAlclhz3w6+Fnw/8PfEHwfrul6hr3jTTdU8YRWGh3WkAQx2fkiCYm6EsAeVt0yrsVYdyQySZAYKoB8t0V+pVFAH5m2/jzxPaSSSRajEkz6g2qed9miMiXLEFnRtmU3bQCqkKQMEEcVUv/Emr6gt0rHT7ZLq3FrOljp9varJGJUlAIijUZ3xoc9eMZxkVkf29qf8A0Ebv/v8At/jR/b2p/wDQRu/+/wC3+NMCL7BJ6r+dH2CT1X86l/t7U/8AoI3f/f8Ab/Gj+3tT/wCgjd/9/wBv8aAIvsEnqv50fYJPVfzqX+3tT/6CN3/3/b/Gj+3tT/6CN3/3/b/GgCL7BJ6r+dH2CT1X86l/t7U/+gjd/wDf9v8AGj+3tT/6CN3/AN/2/wAaAIvsEnqv50fYJPVfzqX+3tT/AOgjd/8Af9v8aP7e1P8A6CN3/wB/2/xoAi+wSeq/nR9gk9V/Opf7e1P/AKCN3/3/AG/xqdNc1E2Urf2hdbhIgB85s9G9/akBT+wSeq/nR9gk9V/Opf7e1P8A6CN3/wB/2/xo/t7U/wDoI3f/AH/b/GmBF9gk9V/Oj7BJ6r+dS/29qf8A0Ebv/v8At/jR/b2p/wDQRu/+/wC3+NAEX2CT1X86PsEnqv51L/b2p/8AQRu/+/7f40f29qf/AEEbv/v+3+NADYLR4pVYlcD0q5VX+3tT/wCgjd/9/wBv8aP7e1P/AKCN3/3/AG/xoA7/AMA/Grx18LLS6tfCPinUvDsF3IJLhNPmMXmsBgFiOTgZxnpk+prX8R/tM/FTxfod5o2t+PNb1bSryPy7izu7oyRSr1wVPB5APsQDXlP9van/ANBG7/7/ALf40f29qf8A0Ebv/v8At/jSsgNTS9WvtEvFu9Ovbiwu1R4xPaytHIFdSjruUg4ZWZSO4JB4NXG8X682/Ot6id9iumNm7k+a0XG23PPMQ2rhPujaOOK5/wDt7U/+gjd/9/2/xo/t7U/+gjd/9/2/xpgdNb+OvElpq2m6rB4h1WHU9MgW1sb2O9lWa0hVSqxxOG3IgViAqkAAkd6PEPjvxL4te4fXPEOq6y9w0TzNqF7LOZGiDrEW3sclBLIFJ6CRsY3HPM/29qf/AEEbv/v+3+NT3GuaisVsRqF0CYyTiZufnb3pAa2veKNZ8VTWs2tavfaxLa262lvJf3LztDCpJWJC5O1BuOFHAyfWrXgvx14g+HWuJrPhnVrnRNVSNo0vLRtkqK3DAN1GRxx2yO9cx/b2p/8AQRu/+/7f40f29qf/AEEbv/v+3+NAHtH/AA178af+im+JP/A5q8mvLuXULue6nfzJ55GkkfAG5ick4HHU1Q/t7U/+gjd/9/2/xo/t7U/+gjd/9/2/xoA6GXxjr8+pX+oya3qUmoahC1teXb3chluYmAVo5Hzl1IABUkggAVo6d8VPGuj3l/d2Hi/XrG61BI4rye21OeN7lI12RrIwYFwq/KAc4HA4rjf7e1P/AKCN3/3/AG/xo/t7U/8AoI3f/f8Ab/GmB2mm/Fjxvo8WpRWHjLxBYxanNJc3yW2qTxrdyvw8koDjezd2bJPeqHhbx14k8DTXE3hvxDqvh+W4QRzSaXey2zSqDkBijDI9jXNf29qf/QRu/wDv+3+NH9van/0Ebv8A7/t/jQB3Np8YvH1gt6tr438R2y3svnXQi1a4UXEm1V3yYf5m2ooycnCgdhUWh/Fnxx4ZsLOy0fxl4g0mys9/2a2sdUnhjg3kl9iq4C7iSTjqTzXF/wBvan/0Ebv/AL/t/jR/b2p/9BG7/wC/7f40Aa+ta5qXiTUptR1fULrVNQm2+Zd3szTSvtUKu52JJwoAGTwABWxrnxO8Y+J7vTLrWPFmuatc6W/m2E19qU0z2j5U7omZiUOUQ5XH3V9BXIf29qf/AEEbv/v+3+NH9van/wBBG7/7/t/jSA63R/iT4u8OzXEuleKda0yW5uPtcz2eozRNLPhh5rFWGXwzfMefmPPNaN98bfiJqlte217498T3dvewm3uoZ9ZuHS4iIIKSAvhlIZhg5GCfWuB/t7U/+gjd/wDf9v8AGp77XNRS9uFXULpVEjAATNgc/WgC1Y3TWN3HOoyUOceo713n/Cxprm5sL2bWL37ZYpHHaSySyGS2WP8A1axtztC/whSMdq8y/t7U/wDoI3f/AH/b/Gj+3tT/AOgjd/8Af9v8aTVx3PVtU+LGo6nBcreeItU1BbiJYZo5rmVxKiuZFRtxwQHJcA8BiT1rz+TUmkv5rpkyZFdduegZSo/LNZP9van/ANBG7/7/ALf40f29qf8A0Ebv/v8At/jTSsBqaVq19oWo2+oabe3GnX9u4khurSVopYmHRlZSCD7g1d8L+Mdf8Eag9/4c1zUtAvniML3Ol3cltK0ZIJQshBKkqpx0yB6Vz39van/0Ebv/AL/t/jR/b2p/9BG7/wC/7f40xHWx/EnxdDDewp4p1pIb29GpXUa6hMFnuwwcXDjd80u5VbectkA5yKNe+JXi7xV9q/trxVresfaoo4bj7fqM0/nRxszxo+9juVWZmUHgFiRya5L+3tT/AOgjd/8Af9v8aP7e1P8A6CN3/wB/2/xoA7LW/ij4t8RtocmpeIL+7uNEZn0+6eU/aIHLhy4lHzl9wXDMSQFUAgKAKVl458Sabc31xaeINVtbi+uI7u7lgvZEe4njk82OWQhss6yfOGOSG5BzzXNf29qf/QRu/wDv+3+NH9van/0Ebv8A7/t/jSA3rLxVrWmi6Fpq9/ai6mjuLjyLl086WNi8bvg/MysSwJ5BORzQ/inWpYNWhfV794dXlWfUY2uXK3sisWV5hn94wZmYFskFie9YP9van/0Ebv8A7/t/jR/b2p/9BG7/AO/7f40wLsE8ltNHNDI0UsbB0kQkMrA5BBHQiuni+LPjiDxJN4hi8ZeII9fmh+zS6qmqTi6ki4PltLv3FflX5ScfKPSuSs9c1FpmB1C6I8uQ8zN/cPvUH9van/0Ebv8A7/t/jSA0b+/udUvri9vbiW8vLmRpp7idy8krscszMeWYkkknkk1Lo+tah4d1O31LSr650zUbZt8N3ZzNFLE3qrqQQfcGsn+3tT/6CN3/AN/2/wAaP7e1P/oI3f8A3/b/ABpgd3H8ZviBFrcusp468Spq80K20moLq9wLh4gcrGZN+4qCSQpOMmqVn8TPGGn6dqun2vivW7aw1Z5JNRtYdRmSK9aQbZGmUNiQsOGLZyOtcj/b2p/9BG7/AO/7f40f29qf/QRu/wDv+3+NAFqtfSPGGveH4YYtL1vUdNihuftkSWl3JEsc+0p5qhSMPtJXcOcEjOK57+3tT/6CN3/3/b/Gj+3tT/6CN3/3/b/GgDoLXxdrtilgltrWo26WCTRWaxXcii2SUETLHg/IHDMGAxu3HOc16NdfHyeL4TXXgyw/4SWQ3tpb2M82s+JHvLS3hjdZHSztFijWDe8cY+ZpCqAoPvEnxn+3tT/6CN3/AN/2/wAaP7e1P/oI3f8A3/b/ABpAWq1bbxbrtlHYJb61qECWCTR2axXUii2SUESrGAfkDhm3AY3bjnOawP7e1P8A6CN3/wB/2/xo/t7U/wDoI3f/AH/b/GmB0+iePfE3hm8tLvR/EWraTdWdu1pbT2N9LC8ELO0jRIysCqF3dio4LMT1JrTtPjJ4/sLnULi28c+JLe41FxJeyxavcK904UKGkIfLkKAMtngAVwv9van/ANBG7/7/ALf40f29qf8A0Ebv/v8At/jQB2f/AAtbxt/0OOv/APgzn/8AiqK4z+3tT/6CN3/3/b/GigCjRRRSAKKKKACiiigD6D/Z/wDHmhad4UsdM8T3Gk2+m2fjPRbsRyW8Ec7xBbzzJZWVRJNHGzRk7ywQNgAbsH2HQviFqFv4a0O3m+I+jJ8VLS5sX1nXZ/E1tILjSlvrt2tzeeaY5toeJ2hDMxQqu1tuwfDdFayqOTTt1T+5JfjbXum0D1i491b8W/v107OzPvrQfiV4Kh8QW0tr4q0Ky+GcmnQJ4d0ae8jU6brYupHS4a1JMlttJlZp3VUKyJlmGAPD9Xu9B8YfGX4Y2nxC1nTvEFxFpsdt4p1QaskkM7iSdohJexPtkdYDbo0iueVwWJBr51orGK5UlvZ3117/AOevdKK6BL3oyitLq2nTb/L7231PqvQ9L+C2vLp7SeFtAtpZNL0/VZraLxRJbsbh7rybi0Vrm7VFVYh52x3WTqPNUMNvhfxY0rTdF8Z67aaPJpT6ak8JhGiytLbIDETtDNPPlhnDbZpVDbgrsoBriKnT/jwm/wCuqfyem7X08/8AgfcKKaT5nd6fgvLvuQUUUUDCiiigAooooAKfbxNPPHGpRWdgoMjBVBJ7k8Ae54plFUnZpg9tD7V1bxTr1loeo6VF8RNJ1LxtHp8p0rxi/jDTkP2iS6tWuLa1dLk/ZLYQQsIxJ5W7dKAse8R10Ws/E3wPca7NczeJtGn+FksN5HrmhLeRs15qrakH+0rZA+ZIG/dyLMilQiMMr90/BFFHM3byv+P/AA/3pPpqmrxcOjaf3W/y+5tdT7svviJqTaBrcFv8S/D4+Kv9qyz6Vro8RWoEehm9icW/2zf5YXcryfZmbd5eV2YOyvFPD0/wt1T4ifE/WNS0vS9T0U6rEdDsr2+msYzBNqASR0WOSNiFgZmA6KACRgEV8/UUoWhypq6j+Oy/S/q2+oVeapGUYuzbTuvK/wDnbXokj62tfB/wb1Zb8WGleFraWK41LToLi/8AEzfZ40gnjW2u5o2v4ZZPNjaQlrcsBsysD5AHyjdgLHbAMGAjI3Dofnaq9T3P+ptP+uR/9DapStb0/pld/N3/AOAQUUUUxBRRRQAUUUUAFdb8KLm+s/iBpE2nX1zpt0juRcWevQ6HMq7G3BL2b5ISVyMtnOcYJOK5Kiqi7O4mrqx9y6r8Q9EOs3F3H4x0x/DzTak/jLT11eFZNSjk0q3jt4iomb7e6uJI/NhLAyh5QIw4NW9V+IdhMfFMX/Cd6JLr9xNqMnw9votbgX+ybR7aNViWfeBYbkARUlMZDo3Ck7j8H0VM/wB4mnpdW0/p9tOyb3vcEklFfyu/57/fd7XdnpY+3fiB8RtIvfDUht/GGh3OitoepW/jLTrfUIQdV117SJY7hLfIa4JuViZbiJSq+W7blBO7yL4cWnwrt/hjYz+INF0fVfEUljrF7LJd6zcQSrNbeU1nAY45lAWXMikbQ7j7jKRmvn+iqbu2/K34t/g3ouiSWwSTaik7Wlf12TT9bavvqfR/xc8I/DW2+Heq33hW08OWN+kttcRzDXvtk8iSxW7PBbRLetIhjkeVSJrdwVRj5ysFU/O+of8AH/c/9dW/magqfUP+P+5/66t/M1PXTYI6RSe/cgooooGFFFFABRRRQAV9G/sb3/gjwx4sXXtf8U6Po2v/AGkWdnBrK3CRwW7Rt59wsiQvHvIxEod0ADyHrsz85UU/ImUeZWufc/h7x1oeltPbP450SbQWstPh8Dr/AGunl6VqMelTxPcGF2D2Y+0N8zzIm5nRznG5ZLH4kWEVp4dY+ONEXXrS5sP+FiXEmsQN/bNklo6vGX3FdQxGWiKxGQlyp5OHHwpRRNubbfVp+tu/e/XurLS2rircn91W/rfbp2bfc+nP2k/F+n6z4N1C1i8RabrWiyatYT+D7Czvo7mTTNPWyZJ0MakvaqT9mUxSBSXjZtpwWOxHovwKfU7LTjonh5YW1Sy0uXUD4iuf+PeawEs14f8ASNoaKcFAf9WNxVlZsEfJdFDs73629dLLfu0tX3d9yZKTceV2smraW1v08m9P+HPYvjX4f8LaRF4YuPDFroumLcafILqxsNVXUbpZRCu55pY7u4iKli20gQMfnDQqApPjtT2P+ub/AK5Sf+gNUFLuadEgooooEFFFFABRRRQAV9b/AAM8b6Onw38G2PivW38PeHtEvknEMPi22kttVkfUo223WkKDMAiln8xztCwg4O4A/JFFVF8rTtt/X9fkxNXVv6/r+tD7k0L4hahb+GtDt5viPoyfFS0ubF9Z12fxNbSC40pb67drc3nmmObaHidoQzMUKrtbbsGtoPxK8FQ+ILaW18VaFZfDOTToE8O6NPeRqdN1sXUjpcNakmS22kys07qqFZEyzDAHwLRUNXtd9W9PNW+/qn0ld+Rbd5ub6q39X77PvGyPorV7vQfGHxl+GNp8QtZ07xBcRabHbeKdUGrJJDO4knaISXsT7ZHWA26NIrnlcFiQa6HQ9L+C2vLp7SeFtAtpZNL0/VZraLxRJbsbh7rybi0Vrm7VFVYh52x3WTqPNUMNvypRV3Td2urfbe+np/l6mM4ylK6l0S+62vrbTTv5I+zP+Fb/AAn/AOgf4I/8Glt/819FfGdFbe0j/Ivx/wAy7eZpTz6W06mK2mWLYgKs2TuwNx69zk1Z1S70GWbNjY3EEfzcSPk/6xyP4v7hQfUGsSiuexVzemvPDzLc+Vp90rM7mEmTO1d6FQfm5wocfUim6dd+H42tvtlhczBZ42m8uTG6IZ3qPm6njB9qw6KLBc2FutEF3CzWdwbcKnmIH5YgDfg7u5ziu5/4SD4S/wDQqa7/AOB4/wAa8uopWC56j/wkHwl/6FTXf/A8f40f8JB8Jf8AoVNd/wDA8f415dRRYLnoOra18NpnsTp/hzV7dUuFa5Et4G8yHncq88E8c0aLrXw2gtpF1Pw5q9zMXyjQ3YQBcDgjPXOfzrz6iiwXPUf+Eg+Ev/Qqa7/4Hj/GiTXvhW1rKYvCuuL0GTfjAbB25GfrXl1Tp/x4Tf8AXVP5PRYLneaLrfw1g02NNU8N6vdXoLb5YLwIhG47cDPYYH4Ve/4SD4S/9Cprv/geP8a8uoosFz1H/hIPhL/0Kmu/+B4/xqjqut/DWaCQaf4c1e3lMMiq013vAkK/u2+90B5PqK88oosFz0fTNc+GEVoFvvDOsz3G9yXivQq7SxKjGey7QfcVa/4SD4S/9Cprv/geP8a8uoosFzvNc1j4e3C/8Srw/qlqfJkX9/db/wB4WTY33ugAkB/3h6Vzkl1ohgtwlnOJQhErFuGbdwR83pxWNRRYLnT2+oeFFnuDNpd68TFPKUTcqA6Fs/NzlBIPqw9KsaRqfguG9tm1LRtQubVVcTRwz7GYkDaQd3Y7vzFchRRYLnqP/CQfCX/oVNd/8Dx/jXO6/qfgu4af+yNH1C0UuhiFxPvKqEYOD83dihH0PrXIUUWC5vabeeHooLwXun3U0rRYt2jk2hJNw5bnkY3DHvXTatrHw6k0RY7Tw7q8OoNGvlzS3gaMfN8x256HDce9ed1Pc/6m0/65H/0NqLBc3tdv/C1xO50rTLy1iLEqs8u4hdiAD7394SH6MPSuh0rXPhlDZBdQ8NaxcXW+QmSK8CrtLkoMZ6hdoPuDXnNFFgueo/8ACQfCX/oVNd/8Dx/jR/wkHwl/6FTXf/A8f415dRRYLnoOi618N4LeUan4c1e5mMmUaG7CAJgcEZ653fnWh/wkHwl/6FTXf/A8f415dRRYLnZXuqeB3t9SW20XUYppNv2NnuMiL94xbcM85jKD6gmtez134Wokn2nwxrMrGRihS9CgJn5Qfm6gV5tRRYLnqP8AwkHwl/6FTXf/AAPH+NYGp6p4Il1VpLHRdRg0/Ee2GWfc4IdS/O7uocD3IrjaKLBc1HuNJNsVW1mE29iGLcbcDA+9/vfnXWaDrPw4t7AJq3h3Vru7zzJb3excYHbd65rz+iiwXOq1zUfCE9/dPpWk31raMkYhjnm3srBhvJO7oRkCqYudEjupBc2Ny5EJRgJOfO2YLZ3dN/NYNT6h/wAf9z/11b+ZosFz0r/hIPhL/wBCprv/AIHj/GsrXNY+Htwp/snQNUtG8iVc3Fz5n70lfLbhhwMPnr1HFcHRRYLm5eXegPLAbaxuY4xGBIGfln3HJHzdNu0fhW7o+r+AIZydS0HU7mLMmFgudhwdmzqx6Ykz/vD0rhqKLBc7fxLq3gK6jQaHoWp2ThGDG5ufMBbcmCPm4+UOPxFZM174aa5naPTrpYTDGsamTlZAy7yfm6EBwB7iueop2C52Xh7VPBFtcs2s6LqN5BtfC29x5ZByu053dgG/MUa1qngeeeQ6Xomo2sReEos9xvIUb/NB+b+LKY9Np9a42ilYLm9e3nh17q7a10+6it2lcwI8mWSPd8oJ3ckDIzXUX2ufDGTSpo7Xw1rEV+YiI5XvAUWTHBIzyM9q85oosFz0uy174WR2Vut14X1qW5WNRK6XoCs+PmIGeBnNTf8ACQfCX/oVNd/8Dx/jXl1FFgudt4a1PwTBfTnVNE1K7gMbeWltc+Wy8knJzyNvFLq2reAptQjfT9C1O3swI90c1zuYkOS/O7uuAPeuPsf9c3/XKT/0BqgosFztF1XwMFtM6JqOVS2Fx/pH32Vm88r83G4bQvpg1rW+vfC1ZLgzeGNadGkzEEvQNqbRwfm5Odxz715rRRYLnqP/AAkHwl/6FTXf/A8f40f8JB8Jf+hU13/wPH+NeXUUWC5295q3gF5NYNtoWpxpLb7dPD3QJhm2kbn5+YbsHHpVvT9a+G0d7eteeHNWmtn8v7OkV3tKYQB8/Mc5bJHPA4rz2iiwXPUf+Eg+Ev8A0Kmu/wDgeP8AGj/hIPhL/wBCprv/AIHj/GvLqKLBc6i61Dwm8MIg0q9jkEJWRnmyGk2RjI+bgbxKfowGOKZot/4Wg1eCTVNMvLrThu82GCXY7cHbg7vXb+Vc1RRYLnqP/CQfCX/oVNd/8Dx/jR/wkHwl/wChU13/AMDx/jXl1FFgueo/8JB8Jf8AoVNd/wDA8f40V5dRRYLhRRRTEFFFFABRRRQAUUUUAFFFFABU6f8AHhN/11T+T1BU6f8AHhN/11T+T0AQUUUUAFFFFABRRRQAUUUUAFFFFABRRRQAVPc/6m0/65H/ANDaoKnuf9Taf9cj/wChtQBBRRRQAUUUUAFFFFABRRRQAUUUUAFFFFABU+of8f8Ac/8AXVv5moKn1D/j/uf+urfzNAEFFFFABRRRQAUUUUAFFFFABRRRQAUUUUAT2P8Arm/65Sf+gNUFT2P+ub/rlJ/6A1QUAFFFFABRRRQAUUUUAFFFFABRRRQAUUUUAFFFFABRRRQAUUUUAFFFFABRRRQAUUUUAFTp/wAeE3/XVP5PUFTp/wAeE3/XVP5PQBBRRRQAUUUUAFFFFABRRRQAUUUUAFFFFABU9z/qbT/rkf8A0Nqgqe5/1Np/1yP/AKG1AEFFFFABRRRQAUUUUAFFFFABRRRQAUUUUAFT6h/x/wBz/wBdW/magqfUP+P+5/66t/M0AQUUUUAFFFFABRRRQAUUUUAFFFFABRRRQBPY/wCub/rlJ/6A1QVPY/65v+uUn/oDVBQAUUUUAFFFFABRRRQAUUUUAFFFFABRRRQAUUUUAFFdX/bcf/QJ0z/wG/8Ar0f23H/0CdM/8Bv/AK9MDlKK6v8AtuP/AKBOmf8AgN/9ej+24/8AoE6Z/wCA3/16AOUorq/7bj/6BOmf+A3/ANej+24/+gTpn/gN/wDXoA5Siur/ALbj/wCgTpn/AIDf/Xo/tuP/AKBOmf8AgN/9egDlKK6v+24/+gTpn/gN/wDXo/tuP/oE6Z/4Df8A16AOUqdP+PCb/rqn8nrpP7bj/wCgTpn/AIDf/Xpf7dQKV/srTNpOSPs3H8/egDk6K6v+24/+gTpn/gN/9ej+24/+gTpn/gN/9egDlKK6v+24/wDoE6Z/4Df/AF6P7bj/AOgTpn/gN/8AXoA5Siur/tuP/oE6Z/4Df/Xo/tuP/oE6Z/4Df/XoA5Siur/tuP8A6BOmf+A3/wBej+24/wDoE6Z/4Df/AF6AOUor379mDwPo3xq+OXhrwZrljBa6Xqf2nzptPhRJ18u2llXaXVlHzRqDlTwT9a+9X/4Jp/CKNkVr3XVLnCgy2Y3Hrgf6N7Um0gPyMor9Bv2vf2O/AXwE+FcHiPw6b+5v5b9bMrqIt5I1UwTSZASFTnMa9TjGeK+Gftzf88LT/wABIv8A4mjcDn6nuf8AU2n/AFyP/obVs/bm/wCeFp/4CRf/ABNVdX1ee30q7ljjtRJFA7ITaRHaQCR1X1oAyaK4v/hYmuf89rT/AMF9v/8AG6P+Fia5/wA9rT/wX2//AMbpcyHY7SiuL/4WJrn/AD2tP/Bfb/8Axuj/AIWJrn/Pa0/8F9v/APG6OZBY7SiuL/4WJrn/AD2tP/Bfb/8Axuj/AIWJrn/Pa0/8F9v/APG6OZBY7SiuL/4WJrn/AD2tP/Bfb/8AxutXwv421bUddtre4e0khfduX7BAM4UkchPUUXQWN+iug+3N/wA8LT/wEi/+Jo+3N/zwtP8AwEi/+JqhHP0V0H25v+eFp/4CRf8AxNH25v8Anhaf+AkX/wATQBz9T6h/x/3P/XVv5mtn7c3/ADwtP/ASL/4mlbUHdizQ2rMTkk2sWT/47SA56iug+3N/zwtP/ASL/wCJo+3N/wA8LT/wEi/+Jpgc/RXQfbm/54Wn/gJF/wDE0fbm/wCeFp/4CRf/ABNAHP0V0H25v+eFp/4CRf8AxNH25v8Anhaf+AkX/wATQBz9FdB9ub/nhaf+AkX/AMTR9ub/AJ4Wn/gJF/8AE0Ac/RXQfbm/54Wn/gJF/wDE0fbm/wCeFp/4CRf/ABNAHP0V0H25v+eFp/4CRf8AxNH25v8Anhaf+AkX/wATQBjWP+ub/rlJ/wCgNUFdCuoOpyIbUHBHFrF/8TSfbm/54Wn/AICRf/E0gOforoPtzf8APC0/8BIv/iaPtzf88LT/AMBIv/iaYHP0V0H25v8Anhaf+AkX/wATR9ub/nhaf+AkX/xNAHP0V0H25v8Anhaf+AkX/wATR9ub/nhaf+AkX/xNAHP0V0H25v8Anhaf+AkX/wATR9ub/nhaf+AkX/xNAHP0V0H25v8Anhaf+AkX/wATR9ub/nhaf+AkX/xNAHP0V0H25v8Anhaf+AkX/wATR9ub/nhaf+AkX/xNAHP0V0H25v8Anhaf+AkX/wATRQB0lp8I/HV/rF9pNr4L8Q3Oq2LRpd2MOlTtPbs6F0EiBNyllVmAIGQpI4FULvwD4nsP7E+1eHNWtv7cCnSvNsZV/tANt2mDK/vc70xszncvqK968Y/tNeH9R1O1bRU1q2s4rzwy8uLS3s/Pg01LrzQYYHEa7nmgdI1GwFP4dq5f4e/ao0XR/Esuq3Flq180vjfUtfLSpC7x2V1aNbDAdmVpkDBvLYbDsUFsdEB89+JvCOu+C9RGn+IdF1DQb8xiUWup2slvKUOQG2uAcHB5x2NZNd/8XPH6+NLnR7W01eTVdJ0y2aO2WTw3Y6H9nLyM7osNo7oVJIbcTnLNwOp4CgAooooAKKKKACiiigAooooAKKKKACiiigAooooAKKKKAPoT9gH/AJO38Cf9v/8A6QXFfrLrHg+TXdRubq5vZY9gUWQiOPJIAJY+pLZ/D8MfkT+xFdy2P7T/AILngfZKv23DYBxmynHf61+rP/CWar/z9f8AkNP8KiW5SPDP+CjiTx/s4aUty4kuV1aISuvRm+x3OSPxzX5TV+m3/BQDW73UvgdbRXM3mINVVgNijn7Nceg96/MmqWwmeiy/DTTx4MHi2O9u20j7NtMBgPni7+7tPG3yt3O/0+X73XyzXf8AkCaj/wBe8n/oJrqk8b65HcGZdRl3Gz+wbTgp5G3b5e3GMd+nXnrzXK67/wAgTUf+veT/ANBNAHjtfVvhD9im98W+OPg3HZaD4wvvBPivRrHUNc16ys2kgspZWlEqpOITHGFCIcPuI3ck5FfKVe2aV+0p/ZnxP+EvjD/hHPN/4QLSrLTPsX27H277O8rb9/l/u93m4xhsbepzxmUcfb/AzxrdeCm8VR6VCdLFk2piE6hbLfPZrIY2ukszJ9oeAMGzKsZQBHJOFYjTh/Zq+IN9Fokum6VYa9FrF+umWj6FrdhqI+0tGZRHKbed/JIjV3Jl2hVRiSApI7HUv2sb7XPg3pHgm6fxjp0+maK+ho2geL3stKvIMvsN1p5t3WUhX2NtkTeoAOK7nxD+3tb6rb6ZZWnge/g0m31Y3r6Xd+JXktrazfTp9PlsLBIreL7FF5NwxjK7jG4BO/gAA4XxR+yhrOn+Cfh3caQkOo+Itei1e71KSLW7CbSba2tJIlWYXqP5CIBIVd3mID4TKt8tcvJ+yx8TY9M1bUT4fgbT9MMCy3SatZNFM08QlgFuwmIuTKjL5Yg3lyQq5bivRfC37Y2nfD/TvDuieFPCWt6LoOmaVq2kzTR+KSuryJfSwT+bDeRWsawyxy26EEQspT5SuSWPI+OP2k5fGvhefQLtPFWo2z+I7LXYtT1/xOdQ1SKOC2eE24uDboMlpXdXCAJwNjcsQDzv4hfDLXfhdqi6b4g/suO/3SJJbafrNnqDwOjbXSYW0snlODxtfaeDxwao+Cf+Rnsv+B/+gNXb/Hj402nxjudAlt9CnsJ9NtWhudX1a8hvtX1WQsMPd3UVvAJtiKiKXQvwxZ3yAvEeCf8AkZ7L/gf/AKA1NbgeqV6X4k+HmiwQazb6WL+C+0o2W64v7uJrec3AX5c7EERBbILMw2q2cYzXmld1f/FnUNU8X6dqt4s95pdlLDJFo9zdNJAmxFQ7ARtUnBIO3gnocc6kGLqfgHW9JsJr6e3geyiRJGuba8hnjKu7ICrRuwb5lKnGcHGcZGde/wDhfqEGnaRHFA51ieW8W7hkniEUCQrG25nyFQAOdxZsDGDgg11el/EyDXdUgv8AUImk0nSdNmguotb1UXVzqG5zLEmSqs581Y/urhQoJwBXLWHxQkSyjtdQsWv0lF8l7IJ/LknFyY2YqdpCMrRggkMD3GKegjHk8BavBqQsZhYW8rQC5jkn1O2jhljJwGjlaQI/II+VjyD6HG34O+E2q634lsrLUrY2Vm1+1lPuuYYpiUYCYRI5zIUzyVVgO9W9J+LNtooNvaaVe2lhDbJbWjWup+VeRAStLJuuBHkiRnO4KqfKFHbJnX4w2Fx4ittav/D0txd2Wp3OoWaxah5carNMZdkg8slyrFsMpXtkEDFLQNTzGiiikM6TwJoen65f6j/aa3MlrZ6fPemO0mWJ3Ma5C7mRwAf901q678NpnCX2hxSLpR0+3v5hqV1DG1oJd4VWdtgbJjJUhRkMoxkjOJ4N8XXHgy+vby0Eq3M9lNaxzQzGJ4WcYEgYDOR14x9RS/8ACY3VxouuWd802oXeqzW80l7cTl3Bi39c5LZ39c8Y70xFk/DPxGIt4sY3YKWeBLuFpov3bSbXjD70YojEKwDHBABPFRWngzUZdAkvzpdxcCdYntZIbmMEBpmiBMOC77mVlXG3kZ5FdLr3xp1DV76y1GOXWIb2G6hu5LabV2m09mTkhLcoCgLDOC7AAkd+KzfFmS31LULqx0xLVJJLFrG3ecyR2iWrho06DeDjn7vJJ6mgNTC1H4e67pdvPcTW0EkMCPJK9reQzhNrIrg+W7YYGVMr94A5xgEiprPhHV/Dz3iahZtbPZyQxTqzqSjyxtJGDg91Vj7Y5wa7O4+MXneI7TUJIda1CwX7QtzpWr6213DIkqFdiZiGwAE9d2cL6ZOH4u+I974x0LTbG8iAuLeWWa4ug2TcszZQkYGNgJUcnrQGpyNFFFIZ6dd/DfS7bwbBqUltq1q0ujjUF1eaZPsTXG4gWwUxglmA4xISM52kA1zB+GviINbKLFHlnkSLyUuoWkhZ1LKJkD7oflVjmQKAFOcYNXI/iKGjhtbjTjPp39jrpNxbCfHm7WZ45lO0hWVypHB6EfxGtfXPjJPr95bXc8/iW2lEyTTw2niBkt9wQgmCMxHyTuww5bAyAOQQxanPWfwz1/UPtLW0VjNDbyJDLcLqlr5AdxlF83zNhJ9AevHXiktfhn4kvDKqaeqSpPLbCCe5iilllj4kSKN2DSsp4IQNyQOtdfeeOPDeteF9Rn1DRR5cmqWrrp1pex2077IJA0rlYtp3HO4rGvLDkHrmSfFmLUr201HVdGN3qmn3k17YSQXZihRnfzFWVCjF1RxkBXQkcE9waBqc/wD8K68Qf2Gur/Yk+wtbG7Q/aYvMeENtaRY928qD1IXjvih/h5rsd1b2rW9stzNGZjCb6DfAgUMWnG/MAAIz5m3061ePxGd5oZZLIySJok2kMxm++ZPMJl+728z7vt15rbsvjMmmPaG20++MiW81rPfzakp1Bo3VQqx3CQqVCFQV3h8dBgcUBqcBrWiXnh+9+y30apLsWRWjlSWN0YZVldCVYEdwSPyqjWz4s8Qt4m1c3jT6nONioratf/bJgB28zYnGScDHGaxqQy5otkmpazYWkpZY7i4jiYoeQGYA49+a6q9+FGty32otpdoJ9Ohvbm1t5JrqFJJjCTuVVLAu+0Zwoyewrk9Kvv7M1SzvNnm/Z5km2Zxu2sDjPbpXZr8VMa5pGo/2X/yD9Tu9R8v7R/rPPZW2Z28bdvXBznoKYEVv8M7nUtBvNSj8vTPsmn2955d7qFuftPmPt3qSyeWuOQpDHI25JYVUn+Hup3utXllYWUdtNAVX7Bd6rbNcklA2FGUMmc5ART1A5NWf+FiW9zYy2N5pkslpLo8GmMILoRvvikEiShjGwxkYK46HqK6LSfjqml6tdaguj3Uc010LhltNS8hZlEKRiOfERMqLtZlGQAXbg0aC1Oa1H4V6rbJoptJbS/bUbH7cypdwD7Oo37i58w7UCrkyNtXJI6g1UT4Z+InuZ4RaQYgtlvHnN9ALfyWbaJBNv2Mu4FchjggjqDWhY/EW1gstPhudJmuHi0yTR7pkvAgmt2d3UoPLPlyKWHzEsDt+7yah1D4gwzaFe6LZaa9rpj2cdnbJLdebJFtuPPd3bYodmbcOAoAxwcZIGpxtFFFIYUUUUAdJ/wAIDqP/AD0tv++2/wAKP+EB1H/npbf99t/hXtnxO8O6b4Y8Vi00gXSadPp2n6hFHezLNNH9psobgozqiBtplK5CrkAcVHpngVr3TbK8vdb0rRVvy32OPUJJA84Vihb93G4RN4K7pCikq2DhWI+//sLBcim5Ss/T17H5z/rDj+dwUI3Xr6fzHi//AAgOo/8APS2/77b/AAo/4QHUf+elt/323+Feg0Vt/q7hP5pfev8AIw/1mxn8sfuf/wAkeff8IDqP/PS2/wC+2/wo/wCEB1H/AJ6W3/fbf4V6fe6Je6fp2n31xD5drqCu9tJvU+YEcoxwDkYYEc4qjSXD2DeqnL71/kU+JcbHRwj9z/zPPv8AhAdR/wCelt/323+FH/CA6j/z0tv++2/wr0Gin/q7hP5pfev8if8AWbGfyx+5/wDyR59/wgOo/wDPS2/77b/Cj/hAdR/56W3/AH23+Feg0Uf6u4T+aX3r/IP9ZsZ/LH7n/wDJHn3/AAgOo/8APS2/77b/AAo/4QHUf+elt/323+Feg0Uf6u4T+aX3r/IP9ZsZ/LH7n/8AJHn3/CA6j/z0tv8Avtv8KP8AhAdR/wCelt/323+Feg0Uf6u4T+aX3r/IP9ZsZ/LH7n/8keff8IDqP/PS2/77b/Cj/hAdR/56W3/fbf4V6DRR/q7hP5pfev8AIP8AWbGfyx+5/wDyR59/wgOo/wDPS2/77b/Cj/hAdR/56W3/AH23+Feg0Uf6u4T+aX3r/IP9ZsZ/LH7n/wDJHn3/AAgOo/8APS2/77b/AAo/4QHUf+elt/323+Feg0Uf6u4T+aX3r/IP9ZsZ/LH7n/8AJHR/sfeEL3S/2i/CV1M8JjT7XkIxJ5s5h6e9fpbXwH+y7/yXTwz/ANvP/pLLX35XyOb4Knga8adJtpq+vq/Jdj7LJsdVzDDyq1Uk07aeifVvufOn7dq7/gxarhznVFGI13Mf9GuOg7n2r85P7PX/AJ4ap/4Af/Z1+kX7bv8AySfTP+wzF/6Inr4brxU7I92xwP8AZ6/88NU/8AP/ALOoL/RVvbG4t/K1RPOjaPd9gzjIxnG+vRaKOYLHhP8AwqNf+frVP/BT/wDbaP8AhUa/8/Wqf+Cn/wC217tRSugPCf8AhUa/8/Wqf+Cn/wC20f8ACo1/5+tU/wDBT/8Aba92oougPCf+FRr/AM/Wqf8Agp/+20f8KjX/AJ+tU/8ABT/9tr3aii6A8J/4VGv/AD9ap/4Kf/ttXtE+Gy6PqcN552qTeXu+T+y9ucqR180+te0UUXA4H+z1/wCeGqf+AH/2dH9nr/zw1T/wA/8As676iq5gscD/AGev/PDVP/AD/wCzo/s9f+eGqf8AgB/9nXfUUcwWOB/s9f8Anhqn/gB/9nR/Z6/88NU/8AP/ALOu+oo5gscD/Z6/88NU/wDAD/7Oj+z1/wCeGqf+AH/2dd9RRzBY4H+z1/54ap/4Af8A2dH9nr/zw1T/AMAP/s676ijmCxwP9nr/AM8NU/8AAD/7Oj+z1/54ap/4Af8A2dd9RRzBY4H+z1/54ap/4Af/AGdH9nr/AM8NU/8AAD/7Ou+oo5gscD/Z6/8APDVP/AD/AOzo/s9f+eGqf+AH/wBnXfUUcwWOB/s9f+eGqf8AgB/9nR/Z6/8APDVP/AD/AOzrvqKOYLHA/wBnr/zw1T/wA/8As6P7PX/nhqn/AIAf/Z131FHMFjgf7PX/AJ4ap/4Af/Z0f2ev/PDVP/AD/wCzrvqKOYLHA/2ev/PDVP8AwA/+zo/s9f8Anhqn/gB/9nXfUUcwWOB/s9f+eGqf+AH/ANnR/Z6/88NU/wDAD/7Ou+oo5gscD/Z6/wDPDVP/AAA/+zo/s9f+eGqf+AH/ANnXfUUcwWOB/s9f+eGqf+AH/wBnR/Z6/wDPDVP/AAA/+zrvqKOYLHA/2ev/ADw1T/wA/wDs6P7PX/nhqn/gB/8AZ131FHMFjgf7PX/nhqn/AIAf/Z0V31FHMFj1D4zTQSeNoooLq1vBa6NpFlLLZ3CXEXmw6bbRSqsiEq+10dcqSDjgmptQn0LxrpPh2W68QQ6Hd6ZZLp91bXNtPKZER2ZZITGrKxKvgq5TDL1w2R88f8LK1P8A54Wn/fDf/FUf8LK1P/nhaf8AfDf/ABVfof8AbOB5YR5pJx628rdbn5n/AGHj+acuSLUujfnfpY+uNC+LGnWeoaLbtqm20tfDSWkBnFytvZ6gOsjCErIGKbo/NjywDgZKgitDwp8UNGtfFl5quoa7Y2d4bqyS4ls5NVFre2saHcyqCJJZwcKTcfKcnhskn43/AOFlan/zwtP++G/+Ko/4WVqf/PC0/wC+G/8Aiq45Y/LJX96Surbedztjl+axafLF2d9/K3c+xtJ+KeipB4fW514Nb2CahbRWdwLvZayO0v2W4AjAwqIwjBjYSIGG0DHHmHxP8RnxR4jjvHudMvZFto4mudL+1lZducGRrr967gYG454VR2rwj/hZWp/88LT/AL4b/wCKo/4WVqf/ADwtP++G/wDiq2o5nltGp7SMpX16d3f9TGtlWZ16fs5RjbTr2SX6HpNFebf8LK1P/nhaf98N/wDFUf8ACytT/wCeFp/3w3/xVd/+sGB7v7jz/wDVzH9l956TRXm3/CytT/54Wn/fDf8AxVH/AAsrU/8Anhaf98N/8VR/rBge7+4P9XMf2X3npNFebf8ACytT/wCeFp/3w3/xVH/CytT/AOeFp/3w3/xVH+sGB7v7g/1cx/Zfeek0V5t/wsrU/wDnhaf98N/8VR/wsrU/+eFp/wB8N/8AFUf6wYHu/uD/AFcx/Zfeek0V5t/wsrU/+eFp/wB8N/8AFUf8LK1P/nhaf98N/wDFUf6wYHu/uD/VzH9l956TRXm3/CytT/54Wn/fDf8AxVH/AAsrU/8Anhaf98N/8VR/rBge7+4P9XMf2X3npNFebf8ACytT/wCeFp/3w3/xVH/CytT/AOeFp/3w3/xVH+sGB7v7g/1cx/ZfefTv7Lv/ACXTwz/28/8ApLLX35X5qfsVeKdS8VftNeDdLMdrGJ/tvzBWGNtlO3XJ/u+lfqb/AMINf/8APa2/76b/AOJr47OcZSxuIjUo7JW/F/5n22SYKtgMPKlW3cm/wX+R8s/tu/8AJJ9M/wCwzF/6Inr438GXOjW3iC2/t+yF5pbnZKN7oY89HBQg8Htzxmvt79vPw3c6P8HtKmmeJlbXIkAjJJz9nuD3A9K+Ba8I9877xjD4RPj+x0zSLZLTRobiOG7u1uHcSgsN5DMxwFGRke554r2Xxrperap4v8eeHNP8S6h4a0rRtHluLTQreyU6bPYCJemJQNztI3z7GPU7sjA+XK3h4+8TjRv7IHiPVhpPleT9gF9L5Hl/3PL3bdvtjFNtPfz09V+n5N9wirSu/L8P8/0R7hffs9eCNM8R2fhi48Qam2vi4skmWKNyk8UpAkYZt9kOC3ykyyA7SDgnAdZ/s2+GfEl7pQ0vUdU0+3bXr3R7tb2WOd5Ft1d90W2NcMwiPBDY3Z524Ph6fEPxUlla2a+JtYW0tCht4BfyiOEp9wou7C7e2Onaqx8Ya8yxKdb1ErFdm/jBu5MJck5Mw54kySd/X3oTXXz/AEt+unmJqWln/Vnf8bfcez2vwf8Ah3f2Gs6nZ6prd9a6XpE19cWkLGMieOTaUE01rHuUg44jypBzngU/SPgVpT+DrrXJUvdF1m0trfVrexn1KO7L27y/K0iLboE3KDj94TkHKjGK8dvviD4p1QzfbPEur3fnQm2l8+/lfzIicmNstyuedp4oX4geKF0pNMHiTVxpqRiJbMX8vkqg6KE3YxwOMdqUW42a3X+b/wCB93zFKPNdPr+Vkv8AP7/kdl+07/yXTxT/ANdIP/SeOvLqtapqt7rd/Le6jeXF/ey4MlzdStJI+AAMsxJPAA/CqtRFcqSNG7u4UUUVQgoopwjZhnGB6msqlWnRXNUkkvM78HgMXmE/ZYOlKpLe0U3Zd3bZeY2in7FHVx+HNGxP+en6VzfXaXRSfpGT/JHtrhrMPtSpRfaVehF/NSqJr5oZRT9if89P0oaMgZB3D1FOOMotqLbV+8ZR/NIzq8N5jTpyqwjCoo6v2dWlUaXdqnOTS87WGUUUV2nzIUUUUAFFFFABRRRQAUUUUAFFFFABRRRQAUUUUAFFFFABRRRQAUUUUAFFFFABRRRQAUUUUAcN8QZ5brxFHPPI808unWEkkkjFmdjZwksSeSSSSTXrnhr4e6ZoUvgHQ08EaJ438ReJdMi1u4/t7X5NNj8uWd44bW0YXFuolKKCS5lLO+FXEZL+JeI9Xj1zVDcw27WsKwQW8cTyeYwWKJIlywVckhATwOT0ru/Cnx5vvDtp4ajv/DOgeKLrwzL5mjX+rpdLcWSiTzViD288XmRrJudVlDhS7AYDEU+ojpG/ZJ8d6n4b1XxNFpB0myjN/cW+lyQ3dzIYbYv5mLiKB4Bjy5FXzZUaQplVIdC0Wu/sj+MNLu7nT9N1LQvE2uWl3Y2l3o+j3MrXFs15kW7O0sUce1iADhyU3KWCjJHMa98bLzxh4ci07xL4c0PxFqNulzHa69drcxX1us0rykKYZ442CySOyLJGwXcQBt4rZT9qPxjbeJ/EfiC1h02z1PXLnTbuaSGGTEL2TK0PlgyHhtoDht24EjjNGgG5q37GfjLQ7pxf6npdhp0Vne3s+p39rqNpBFHa+UZvlmtElf5ZlZSiMr4YKWZStc5B+zrqd14AuPGsHiHTJPDVtIiz6idP1WOCONrtLXzRK9kI5AHkVikbNJt3fISrKKDfGw2d5rdzofgvw14afWdMu9KvU0xbwxvFcFCzKktzIEZdnyhAFG4gqeMWdY/aD1bW/AUvhifw/oKvLo1noEmtJFP9uaztp454owTMY1+eJc7YxuHXJAIAO5u/2N9Y1/4heMdK8Haxa6loGia1JpC3z2moXDxzebIqwTCCzZhIixgyShBACwxJyBV/w98MPDvhLUPgzoniTwRYanq3iXWbrRddF/e3geF49UFsTGbe4RQ6rlc/MpwDg9Tw2s/tKXniSXxAur+CPCmo6frt6mq3mnSJfJCb8bw12jJdLIkjiQhgrhDgfKDknn4vjXq9rdeApbXTdMtYvBV/JqGl26JMyFnuhc7JC0hZkDAKMENt6sT81AGL8SbvTrnxjqMWl6BYeHbO0mktVtNPkuZEbY7DexnllbcRjOGC8DAHOeYqzqmoSatqd3fTKqy3MzzOqAhQzMScZ7c1WpDCiiigAooooAKKKKACiiigAooooA+iP+CfX/J3vgL/ALf/AP033NfsxX4z/wDBPr/k73wF/wBv/wD6b7mv2YoA+Tv+ClrtF+z3ZujFHXWUIZTgg/ZLrkV+Sn9taj/z/wB1/wB/m/xr9af+CmH/ACbxa/8AYYX/ANJLqvyKrRbEsuf21qP/AD/3X/f5v8aP7a1H/n/uv+/zf41TopiLn9taj/z/AN1/3+b/ABo/trUf+f8Auv8Av83+NfU2p3NxN4DSytLyXUp/+ECtmPh64YrblCCGuk+9ukj2j5dqnGMMeg42++AHhK21+18LjxHdp4j860V8xSPFNHIB5jAeQqRdfkPmyA4wcE4GkqbjPk87fi1+n9WZHOuXmfa/4J/qeF/21qP/AD/3X/f5v8aP7a1H/n/uv+/zf417vo3wL8IeIJdGMJ1/T4rrX7nRpkurmFmKxRSsHQiFcEsiggg4+Yc9ayfB3wH0vxLpnhS6nvb21fUI9SnvU4JKWzqqpEAhYMc8nD9DhT0MW05um/4X/Iq+tvl+f+TPHv7a1H/n/uv+/wA3+NH9taj/AM/91/3+b/GvZtG+FHw+8SX8ttouv3ep6hNYxz2OlSXBs/tMu5hKiXM1qFf7uF/drk5yRgkZvxi8P6FoHw58ACy0V9O1SeO6FxKZ43cskgV1lKxgyMG+6cgKARg5yBrlWv8AW/8AkCld2R5X/bWo/wDP/df9/m/xo/trUf8An/uv+/zf419I6IpvPFvwDkgBljXTWBdegMYbeM/7OOa6D4famT4f8JfY9WkikudV1d7fTt5S11U7mIhlfkKCDkEo34HFDVr/AD/Bpfjf8OpHPt6L8U3+h82WGpz6PpcWp3V3Pdz3G5ba3eRigwcMz88+w/yMi88Tapey+Y97KhxgLExRQPoK7XxjZXd14a8NtdaV9ih8+UtFbJ++ClxCUA7bWgYBT0Ld81yfjfS7PRfFN/ZafaarY2cTKI7fXI1jvEyoJ8xVAAOSSPYivKwkFUcq1VfvLyXfls9l8rarfc++4hrVMCqeWYSVsM6dOatoqjlFNzl1b5+ZJP4Lctk0zP8A7a1H/n/uv+/zf40f21qP/P8A3X/f5v8AGvpi6+F3gPxP8MvCrS2Go2Pia08BXXiOW5057eC2uBBdyDbKvlM8krrvXzCw2bY/lcZAwPjhbfDXRNR+HIt/BetWkV54b02+nW11q2h8+J43+9ix+aYttLTHIbaRsBOR63L++jR6uXL/AOlK/wD5K/6tf4SL5o83lf8ABO3/AJMjwb+2tR/5/wC6/wC/zf40+LxBqcEiul/c5Bz80pI/EHg19KeMvhr8OfEH7QHxQ0w6Dr3h/TPDNpq2q3FrYahbKtwYHQxpbp9kUW8ZUsMHzMBlIPy4bPg+BXw6j8SQWM2oaob7XdC0zV/D3hu71eCxnmluUdpLeS+a1eEONilN6Qh/NQZB4ODUKkFzK6lbTfe9tPOzOqnWrYOt7ShNxlB7p2ata7vfTddTxmLWm8SKkRvJNN1LorrKywzH0Iz8p+nX8qw7nUdWs53hmvLuOVDhlaZsj9a6228FWNro/wAQxqmh+J11jQpYobZrBI57Kwfz2jkW/lC8cDajJgM4PatuXTbLSPhFoGueJEe71PX9Qlh09GCbY9PgGyWYkDfuMzBV5HEUnqDXAozw0eeiuaFvhvqv8Pf0volo7aH1qr4PPXGGYTVHEN29py+5PT/l6lblf9+MW5X96LfvPzL+2tR/5/7r/v8AN/jR/bWo/wDP/df9/m/xr0vxafCnhPQPB/h+fRZ7/ZLdahrlzblLW9lkaRo4rZLiSF9ixxRxuRsZS0rcZAI9S8eeEvC/iq+sta8R3Pie90LR/hlYavY2Ed7Zrdxj7UlvDamdbRUMaiXlzEX7ndjafRpSjVhzx21/BNv8np/wz+WxWDr4LFSwdeNqi0t80lbyd00+zR8xf21qP/P/AHX/AH+b/Gj+2tR/5/7r/v8AN/jX0237Ovw50bXtbi1OXxRe2C+INE0fTo7S9toZVTULZZy8ztA4YxgkfKq7sAfLnI8U8U/DbS/DmoeKbV/GujxXei6hdWMemXNvei8uhDIUDKUt3hXdjgNKMc5xVS912ktf+An+UlscMJKpFTi9Ht97V/vTOP8A7a1H/n/uv+/zf40f21qP/P8A3X/f5v8AGvo3xF+zf4TnsdW07wyniGbxJpFnoV3JJf31sLS9l1Bol+yxgRKYmzMpV2dgdrgqMbqxfjl+z/oXgrwvpGp+FLi8vr6fX7rw7cWCXUuoK1zEE4ikaxtCzByyEIkik4w+cinL3NX3t+KX5tL/AIARfMk11V/w5vy1/wCDdHhn9taj/wA/91/3+b/Gj+2tR/5/7r/v83+Neq/CD4LW3iLVPGsHjG1v9Mn8NWCXD6Xc38GiO0z3EUQjlurtGjgIEhYK65YjArvm+A/wvufE9vDo0/ijxLoWs+LR4U0u802+gItykULS3Mkn2YicFpyURFjBWFz5jAgiuV2TWt1dfeo/i2v6TGne/lf8Fd/hr8rLXQ+bP7a1H/n/ALr/AL/N/jR/bWo/8/8Adf8Af5v8a+idY/Zr8L6JFc+H3u9ZvPEsfhW98ULr0M0Q0xVgklHktB5RfBWLaZPO4dwNp6GL4w/CDwF8E/DUlxZ6jPe+NrK709LSG61ewu4rndAJ7iWbTRA0kCI37sRTt824ElhlTnGUGua+mn4u35/57aj1bS6u/wCCUvya/LfQ+e/7a1H/AJ/7r/v83+NH9taj/wA/91/3+b/Gvoi++F+hfEz43w2+py2fhrSY/Bdj4iv10q0SzWVl0yGaURxwQOIy7MzEpC+BuIRsYpmhfA/4a+Jdf1i+0TXLnW/BlhZ2Anuv7SuLaS21C5laJbVD/ZUkt1kplWW2iGGwTkc7OnJT9n1vb8WvxasvP1QT9xX6WT+9J/gmmz56/trUf+f+6/7/ADf40f21qP8Az/3X/f5v8a+poP2WfAtp4js/DF7d+JbvWNW8Uav4es720nt44LSO0UFbiaNoi0mN6llDp8oYhlwAfN9WS1k/ZOszZXOpwQ23jDyLqzmuLee1muDZsTcRYt0lT5VVdjSOvBPU8ZJpx5vT8bf5/fp3s2mpcr81911+cX93pfyH+2tR/wCf+6/7/N/jR/bWo/8AP/df9/m/xr1T4yfDPwr4d8Mab4g8CNea54YnuRZnxFNq8Uqyz+WWaFrL7NDNbONrN85dSuNrN1qh8NPg5Lqvi7X9P8YabrWlR6Bodzrt3paQm2v5440VkjTzUbZu3o28owCAkA8VPNH3m9lv8lf121Eru1uv6u356djzr+2tR/5/7r/v83+NH9taj/z/AN1/3+b/ABr2fwR8N/AXiXw7L4puNK8VSaVd+JLPw5ZaPYarbvdwNLEXaaSY2m2XJGEjWJMnI3cZr2fwv+xh8N5of7O1fWPE91rcV49pJcafPbRWr51G8s42VWidlOLTewLHngHnK3L3I80u6Xzaul91vvEmnFzT0Wr9LtX+9Nf8A+Mf7a1H/n/uv+/zf40f21qP/P8A3X/f5v8AGvVtOsfD/wAOfhZ4ZvPEeix6vf8AirVotQlt2CiWPRraQqyxyEboWuJfMG5TkrCOQDz9CfFj4Wab8YfiF8KVga0074Z38BsoYdG062sNQsJJbVtR8t1WLYcpPGQFeRQd5JV3YlzXJHm7NJ9lddfn7vroOPvN+l/x/p+lj4l/trUf+f8Auv8Av83+NH9taj/z/wB1/wB/m/xr2fwr4N+EvivQ/FfiGK08aW9l4d0hby40p9RtDJLO12kMYS5FvjYyyKWzCChBwXFbHj74C+D/AIVWvinW9WXxBrukWeqWWm2emWd9BZ3dsbizF3m6maCVdyA+XhY13MGPy421PS7/AK1svvf/AAbC3fKt9vuSb+5Nfpc8A/trUf8An/uv+/zf40f21qP/AD/3X/f5v8a9G8M6Pp3hf4NeJvFuo2MNxe63ONA0GK7iSby8bZbu5AZeGRPLjV15DTMRgjI9Y8W/szfD3QrvSPC0WvXsfjDUtZ0nSLeZ9as7gMtzGjXNzJp8cQmtxGzbBHLICSwO44wdFDmlyddF85Wt+a+/yYrrv3+6O7/Br/h0fMP9taj/AM/91/3+b/Givp//AIUd8LP+hR+Lf/f21/8AkWivnv7cy7/n7+Ev8j3v7DzL/nz/AOTR/wDkj5smhkt5DHKjRyDqrjBH4VLdadd2UFpNcW00EN5EZ7aSWMqs8Ydoy6E/eXfG65HG5GHUGr3iybTp/EV82kySS6WHC2zzRiNzGAAu5QSFOByASPc17vp8XhnxB8PvAHh/VfC0N/qb+Ate1GDXGvZ0ltXtrnV7iFUiRhGRvgfdvVtwkGNuz5vaPFPnKra6TfPpT6mtlcHTY5ltnvBE3krKysyxl8YDFVYhc5IUnsa+uNa+Afg+DTvFUVx4P/sTwrpy6EulePWvrgfb4rm5tI7m53vKbaUbJZGzGgSPOGGcEbj/AAp0d9Dg8J+IvBb/AA78M3PxMtrKNjcXCtqFslreiKTdcSNkucJ5sZWNt3ygbSaLCufGGg+H9U8VatBpei6beaxqdxu8mysIHnmkwpY7UQEnCgk4HQE1TubaayuZbe4ieCeJzHJFKpVkYHBUg8gg8Yr7R0bRPDPw+1Dxf9k+GWqaHenwTq5vLfxJpl7ptrciN48fZ1OoTyMGEhWRhLjCR7NmXLS+G/2a/BEHh/w4/ifQEBTVNCtX1myivLax1eO8T5zHO95J56EyRZkiit1VumVJALBc+MNN0e/1hrhbCyub5reB7qYW0TSGKFBl5GwDhVHJY8AdajsbG51O9t7Ozt5bu7uJFiht4ELySuxwqqo5JJIAA5JNfV3gj4R3Pwy8ASXOtaBdaD4o1Hwt4wjvUvd6SPFDb24hzGxwoG+QggDcGB5G01m+PPhnqXxA8e+BNdbwBbaX4KfT/DCXeo2k1wkd1DPbWVv5YM07FhG4aEeVhlABkLE7yWA+Y7+wudLvriyvbeWzvLaRoZ7edCkkTqcMjKeVYEEEHkEVBX2fH8APCCtocf8AwgDS+HL658RQ614p+23gGiw2t1dR28ofzfJjKpGv+uVxJsAA3bi3M6L8GfD9z8P7u6XwA95o0XgCXXYvG7XdyRNqvlb3hVkl+z4icyReQYxIDblmJGclgufOfifwF4m8ErZt4i8O6toC3is9sdUsZbYTgYyU3qNwG5c49R61hV9ReHNNj1nU/CHg7WvCfiPXdLvdHbxVJGsEupS3up3irGb+6W0m842qgD5Y2jl+UFlZmIbqvCX7PWir4i8OaXN8OdN8bSX/AIou9N8R3eianf8A2HQIYmiVY0cSgx8Oz/6TudsFBhuhYD4zor648P8AwO8OXmieHJbn4e58M3mm63c6141a/uh/Zz293fRQbB5oiRlEMHEiuJc4UBg7HyOPwD4cb4enVDo+dR/s43H2j/hY+ij955ed32Aw/aOvPkbvMP3c55osB5HRXtXwS8BeAvGPiO3tTc6t4l1pdKurtPDd5ZpYW99epAWjtY7iO6aSQM+QAEjZgvG0nFenaF8BtG1VtK1G78Cx6d4gXR5bjV/AUVrqF3dxE34gt7iG0N7BOgKHLmW42KpDhcOuCwz5Hor648XfBP4c6Pr/AIyuLbTI4tM+HupXj6xYXF/Op1K2mg8zToxJvO3/AEgG3Oz5trISzNy2HeeFvh7pPgTxDf8A/CA213qHhnw/4b1MzT6pebdQub+0iM3nKsq7Yg1wrhIyjb4/v7G8sFhXPmOug8J/D3xT48N0PDPhrWPERtdv2gaTYS3Xk7s7d/lqdudrYz12n0r6zl/Z/wDhTa+K9ee8sZLXRvDWtnTL+0W+laSVb82y2MjEvkLCZrk8YLrbDcWO4HNsvhfYaR4R+J3gi08E634nvNHHhqHVLLwreu1zc3/lXclxMC0E+1UeQxlVQD92D8pJFFgOX/Yc8Ka34Z/a2+HTaxo+oaSt0NSMBvrV4RMFsrlXKbgN2GBU46EYr9eq/MH9jf4U3Vj+0V8J9W0zRJ7JbPQtSv8AXxdTYlgkN3qtkm9HIO4eXBGVRRypJUfMa/T6kM+TP+CmH/JvFr/2GF/9JLqvyKr9df8Agph/ybxa/wDYYX/0kuq/IqtFsSwooopiNe38Ya9aXdvdwa3qMN1bwC1hnju5FeKEdI1YHIT/AGRxT5PHHiOawtrGTX9UeytijQWzXshjiKfcKruwpXtjp2rXm+EPiuDRjqjabE1qLFdTKpewPMLVuk3khzJt99vHOehrjqbunZ7/ANfqJWaujvtT+Mmt6v4JsNFuru/uNUstT/tKLWZr93mX92VVFz8y4JyCG/CuevPHnibULy0u7rxFq1zd2jF7eea+ld4WIAJRi2VJwOR6CsKii93f+u36AklodJ/wszxgJZZf+Er1zzZVCSP/AGjNudRnAJ3cgZP5msmTXtTl0ePSX1G7fSopPNSxadjAj8/MEztB5POO5qjVm40u8tLO1u57SeG1uwxt55I2VJtpw2xiMNg8HHQ0DLlj4t13TNKn0yz1rULTTZ9wls4LqRIZNww25AcHI4ORzUUHiPVrWGyih1S9iisZDNapHcOq27k5LRgH5WJ7jBrT1X4d+IdE8OaVr15prRaTqjBbS4EqP5pIJA2qxYE4PUDpUfjPwHrvw+1CCx8QWB0+6nhFxHGZUkyhJAOUYgcqeDzxQ7p6+glZrT1JLf4h+IUuoZbrV77UY42dhFd3TyLlzlyMk4JPJI6nrml8SW9zr89xrkd7Pqqy4eeS6mMtxGcYw5JJOMcHngegzWPZ6Pf6hbT3FtZzz20DIk06RkxxFzhA7dF3HgZIzWhqemax8PPEs9hfw/Y9UtCFmgLrIMFQ20lSQQQR0P61w1qE1P21HSXntL18+z6ea0Pp8BmdCVBZdmacqN7xa+Om3u433i95QdlK104y94iTxjr8USRJrmpJElk+mqi3cgVbRiWa3Az/AKokklPukk8VNe+PfE2peGbXw5d+ItWuvD1owe30me+le0hYZwUiLbFPzNyB/EfWnpDpniJtsQXS9QY8IT+4kPoO6n26VDqHgzWdK0GLWbuyMOmy3LWiTM65MqjcV253dOc4wfWtKWIjVbhJNSWrT9d+zV3uuvmcuOymrgYRxNOaqUZaRnG9r2+FppSjK32ZJO2qutTsvDn7SHxE8OajPf8A/CU6rql8dLuNJtbnUtQuJpLCKYJve2bzAYnHlpgjj5RwcCsLTfjF490bVNT1LT/G/iOx1HU2V7+8ttWuI5rtlBCmV1cFyASBuJxk1ycMMlxMkUSNLLIwVEQZZieAAB1NdDr/AMNPF/hOeKHXPCut6NNKCY01HTprdnAxnAdRnGR+dbykoLnm7dL/AI/meRRo1K8/ZUIuUn0Su/uRmWniTVrCw1KxttUvbey1PYL62iuHWO72tuTzVBw+GORuzg81sL4h1nxvrugLqMovk0u3gsrePyURIbWJshdqgDHzMSTyxYkkk82vCfwo1/xbffZLPTb+7uyhkWz06zkvLl1GNzCKMFtoyMnHGR61vW/wn8eXtvqdj4b+G3iu58iU2d9Ouj3Ms0cgCsYnCpiNsMuVPOGGRzXnzxLrRdPC6vuvhXS9+tr9Lu+mlz7LCZP/AGbWhjM7apxj73s2/wB7Pqo8lm4qVl71RRjbVc1knzWp+Npr3xtc6trVtb+LI/tdxM1tqks3lTmRmJLNDJHJ1IYbXHIHbipfGvxV1vxpqPnZj0SxXTINGj0vSnlS2SyiKskB3u7yLvUOfMZyW5zwMcpe2Vxpl7cWd5by2t3byNFNBOhSSN1OGVlPIIIIIPTFQ1206cacIwjsv6v6u7+9ny2MxdTG4meJqP3pPvey6JeUUkkuiS7I3JvHfiW4cvL4h1WRzPDdFnvZSTNCmyGT73341+VW6qOBgVk3t7cane3F5eXEt1d3EjSzTzuXkkdjlmZjySSSST1zUNFa76nClZWR3vxC+OPjL4ltYR6trN3Hp2nx2yWel291MLO3aCERJLHEzsEkIBJYY5ZsYzisvXvir428VTWcuteMNf1iWymFxbPf6nPO0Eo6OhdjtYYGCMHiuWopvXV+vzEkkkl0Vvkem/Dn9oTxT8Ode8QayjLrmq65CsN5f6leXiXhCur5W6t54p1JKruHmYYAAg4FR+J/2iviB4j8U65rsHiXUvD82siJby20S/uLeGZY4hEgf94WkIRQN0jMx5yTk15tRSaukulrfIa0bfU6CP4ieKofCh8Lp4m1hfDLHJ0UX8v2Infv5h3bD83zdOvPWvU/HH7Ynjrxt4dk0gLa6HHJPa3Hn6ZdX26J7chovISa5kitsMFbNukZ+UDOMg+GUUB/X3nYaj8ZPH+sappupX/jnxJfajprM9jeXOr3Ek1qzDDGJy5KEgAHaRmlX4zfEBNZutXXx14lGq3UC2098NXuPPmhBJEbyb9zKCThScc1x1FAPXc9DvPj/wCOrzwL/wAIp/wkOoQadNdXd3fyw3s6zak1wEEguj5mJl+TgMP4mznNZP8Awt3x3/wjQ8O/8Jr4i/4R8Q/ZhpX9qz/ZfK/55+Vv27f9nGK5KimG39d3d/idF4s+JHi3x7Hap4m8U614iS1LG3XVtQmuhDuxu2CRjtzgZx1wKYfiD4pPiiLxKfEusHxHEAI9YN/L9rQBNgxNu3jCfL16cdKwKKWw7u1jsLT4y+P7DWNQ1a18c+JLbVdRVFvb6HV7hJ7kIMIJHD7nCjgbicDpVHTviP4s0eCGGw8UazYwwhRFHbahNGse13kXaAwxh5JGGOjOx6k1ztFFugNtpp9Tf1bx74g1vW9N1e51SZNS0yG3t7G4tcW5tY4FCwiLywoTbtBBXBzk9STWv4p+Nvj/AMaeIrPXda8Yaze6vZKUtLs3jo1sCgRvK2kCPcqjdtxu5JySTXE0UeX9ait/l8js/h58XPEnwrtPEEfhm9fS7rWrVLSXULaWWG5gRZVkzDJG6lSSgU5zlSRjmqOhfE/xj4X1PUdS0bxbrmkajqTmS9u7DUpoJbpixYtK6sC5yzHLE8knvXNUU27gkkrfP5/0jZ1vxjrHiLTdH0/ULw3FlpETw2UHloqxK8jSOflA3MzsSWbLHjJwBj1T4iftceM/iN4SuvD1zb2OmWV1JbSSmyuL1wvkHMYhinuZIrcAhT+4SM/KBnGQfEqKVtLed/nuD1d36HoP/DRPxW/6Kb4x/wDB/d//AByivPqKYrI0PtC+ho+0L6GtPxlaW1nrarZ2yWkEtnaXHkRszKjSW0cjAFiWxuc4yTVmy+GXjDUvDkniC08Ka5daDHC1w+qQadM9qsSsys5lC7QoaNwTnAKMOxrE0JNA8fXnh3w14n0S2hge08QW8NtdPKpMiLFOk6mMhgAd0ag5B4J6Hmuf+0L6Gu41D4I+KZtaaw8NaJrHi4Q6Vpmp3MulaZLN9nF5ZRXSo4jDbceYyBiRu8snA6DmG8F+IUfY2g6mH+wDVdps5M/YyNwuen+qxz5n3cc5oAzvtC+ho+0L6Gujv/hL440vUNOsb3wZ4gtL7UkkksbafS50kulRdztEpTLhV+Ylc4HJrttC+Atnqmg3gvtb1bQ/FmmzWcOpaLqOgPDFavcXot44vPeUEzeW3niMxjKK+GOxsAHk32hfQ10fw/8AHa/D/wAU2evR6Np+tXVk6z2sWp+cYopkdXSXEUsZYqV+6xKnJyprS8T/AAU8VaN4w1LRdM0LWNet4dYu9Gsr600yUpfzQO6sIgoYFsIWKKWIGfTNYmqfDjxZoc/k6j4X1nT5jeLp/l3WnzRt9qZFdYMMo/eFHRgn3iGU4wRQBp+NPitq/j7SNDsdXEMp0o3bpcohWWdrm4a4laTnaTvdsbQox+daWk/GZ/DnhDU9E0TwvoekXWqWH9m32twLcyXtxASC6/vZ3iTftG7y4144GK8+vrG50y9uLO8t5bS7t5Ghmt50KSROpwysp5BBBBB5BFekeCfgXf8AjX4R+LfHEF+kJ0Rv9H03y9z3yxhGumDFht8mOWNzw24E9McgHnP2hfQ1r+EPF1x4K8WaJ4hsYo5b3Sb6C/gjuFJjaSKRXUMAQSpKjOCDjuK6u/8AgH4ontPDMvhnSdX8XyatocWtTxaTpcsxshJPPCqN5e/P/HuSGO3OSMcZOBqvwm8caFot3rGpeDfEGn6TaSGK5v7vS54oIXDiMq8jIFU7yFwTnccdaAG+MPiBeeNhpIvoYIv7MtpbWH7OjDcsl3cXTFsscnfcyAYx8oUdQSee+0L6GvTfiR8EoPA19qWg2Op6tr3i/Rkjn1bTotDdLaG3MHnSXMU4kZnhTKZeSOLIkVhkZxS+DnwT1H4qeL9N027mm8N6Ld2lxfvrlzal4Ut4so0igsgkXzQsRKtwzc9DQB5/9oX0NH2hfQ16NYfBePSNO8S6t431iXw3pOiaq2gsbCyF/dXWoKTviiiMsS7URWZnd1AyoAYtgYXxJ+H8XgefRbrT9U/tzQNc09NR03UTbmB3Qs0ckcke5gksckboyq7gEAhiCKAGR/ESa28A3HhSz060sbe8uorq/voDN9pvTF5nlJJukMYRPNYhURckKW3FQRzP2hfQ16B4s+HHhrwb4L8Oahe+JNVl8Qa7o6avbadBosRtEVp5Ygj3BugwP7ljkQnqPfHXJ+zp4et/i/J8OL7xxexa/Pew2Ng1toPnRO0kEUiPO32hTEhaXZlBKRsZmCjGWB4j9oX0NH2hfQ16FrPwq0fw38PtE1zVPEl1b6rrmnPqWmwRaUZdPmCTNE0BuxLuE42NlRCyqSis65JWx42/Z28W6D468QeH/Duja14zt9GMC3GoaXpMzopkhSUBwm8JwxHLc4zSA7z/AIJ/TK/7XXgMAHP+n/8ApBc1+yVfjZ+wLaT2H7Y/gi1uoZLa5gfUY5YZkKvG4sLkFWB5BBBBBr9k6APkz/gph/ybxa/9hhf/AEkuq/Iqv11/4KYf8m8Wv/YYX/0kuq/IqtFsSwooopiPpibxR4f1fR7TRrbV9O0zWZfBFvax6x9sjC7gG82xlLsUQsMcgK4OcnGBT9Sl+Gq6hplmml6BJ4Wa4sXi1RNTthcxgYDq8KxC4IJJ8zznYDrkYAHzJRWsp80ubzv+Lf6/1dmfJ7vLfpb8Ev0Pq22sfDNraeG9T8Q2HhE2T+Kbm2a70+3tGtjbGCXylkaMbcAlT83I+UtyK5zw1pHgTSYPBNnr03hybUI11MztDd28sbTF1Nt9olTeu3aTjflR0I6ivCpPFOpy+GYvDzXWdHiujeJbeWvExXaW3Y3dOMZx7VlVF7aLy9dkvvvd3KS7/wBav8Ndj6W0a78Jarql1bX2h+GPDktxp8Uf9sR6ppN+ttKrPh2tyqwsWAG7yVzjaOC3y8d8XfE1pr/wt8DQafqGlXyWBuLe5EEVvBOrB8RsIgBIiMoJOAFJxu5xXjVFJu+n9f1qNKzv/X9aH1P4Q8a+Erzwx4U0HXtVsfsVlpNtqg3XCfurq3ncmIjPDujY29SBUWqeLfCXjXxJY6trFzpV/qzeFEe1guLuBYUvDJIzxs0qvEkgDcCVSMnpnBr5doqnK9/m/vuvya+4mMOVWXZL7rf5P72fSreNtJm8JeO9KsLbw54fupJbC4TT4ruymhdcKZjHLtVHcAH5UyVbOznFXPHWueA/FWreLp9cutFura21nTDa3Fl5IuZrcqguNskf7yZQC2eWxjjGBj5eopqdmnb+tP8AL8WLk7P+nf8AzPpG5XwG+sWK+Iz4ZCHxQ/2I6KbYR/2bt+X7R5HGzd5f+t+f73bdUl+9lPpNm51XwSPEM2pXYlE2pqtoLUIxiyLdwFPA24xngNk5r5qorlq0KVePLVipeqT7a69dPxZ6uBzLH5ZN1MBiJ0m9+SUo3V27Pla0128kdXoPjLUZ9c06O9vlFm9zGsxdEVdhYbsnAwMZ5r6KX4i/D1Pih4n8EaBp+n6RpdzLqtvY+KtX1SK9hjuDBJFZNDN5aLBbh/m3MZG3MjGTCZr5KorJYLCx0jSit9kr628unTzPRrcSZ5iIuNbHVpLR2dSbWl+nN1vr5I+uNM8SXeg/D7wt4EkufBvjYx2NzF4k06/8V2lrClrLeRT28EN99pRWlQwyN+7eRU83DKelcl4ei8FfDzxr8cNG0HxLb32gt4RurHTL27u4ybuZntmMUbgKszBhIoKDDhNyjBr50orpkuaMovqpL/wJNfhfqfOx9370/mrfnZfLTogoooqgCiiigAooooAKKKKACiiigAooooAKKKKACiiigAooooAKKKKACiiigAooooAKKKKAOj8Y3lte62rWlwt1BFZ2lt5yKyq7RW8cbEBgDjchxkA47V9BaB8SPDPw08GfB7XdSuvEN1r2meGNWOnaPbRRNpsrXGoalAGkkaUNHn5g4WN96rGMjbz82eSn939aPJT+7+tZlH0f8PP2gvh3oHiSw1vVdGv49TsP+Ef2XyaLZalLPFY6dDbzW6i5kC2uZoQ6zxgyFSB8hAre8S/FyTwV8OvDXiu+0K5h8Uavq5Ww/tJmSa78Nw3o1CMHk7FeaRYg2CGjjIGVC4+UvJT+7+tHkp/d/Wi4WPp6f9qfRbT4jWmu2mr6vcaGNS1LVG0mLwnpmly289xaTwxyfaLebdcSAzKGdwpIXdycCvGPDHjrS9G8L+FrS4uNYku9J8Ttq8lnGsP2LyCluGZekjTkwYwx2BQMYLNniPJT+7+tHkp/d/WgZ9Waz+1r4Q8QePtQ8Uy2esWE99pup+HzZDTLW9s7W0mkeSC6jt55ijTH5BPA3ySFpHEgJ2mfwb8Vpr7QfF3i3VmvPEnhLwxaWdx4e1K/0K20e3ttbg3x2dulrayNEwAumdgrZ2RISAFTHyZ5Kf3f1o8lP7v60XFY9Y8F/H2Twx4Sh0mbVviUsymVnGi+OTYWRZ3ZyVtzaSbc7st853MWPGcDovCn7R3hfwfB8N9Ii8F22t6LoNnLBqd3qqzfbHa9Z11JYEjuVgdGify081CcKN3pXgvkp/d/WjyU/u/rSGe9WXxa+HQ1zw7qDzeIrOfwx4dXSdFun0W2vTFdi8uJVu3ia7jUlIpVKDJHmncQRGBJoab8cPh14Y8D+INL0pNZudR1Xw7e6TcXF14dslnvb2aVmF7Lem4kuFUp5atbqSgK7gSc5+dfJT+7+tHkp/d/WncD6h+FPxFsr/V/DHhXwcPFfj24g1u3msIde02FToWmMHhvoFlSaUvDLDKqSErFGoTzNoYjbheM/jh4P0JPF+h6TocXi+3P2Hw3p51oOLX+xrIbtyy2s0UvmTXSRzkA7Dj6AfPfkp/d/WjyU/u/rQB9A/ED48+B/i7p1/p2v2Ws6CmoyWmtS3uk2kVybbVkt1trlEhlnUy20scaOGaVZFkBzvB45XxPbH4sad4e0nwfLp9l4Z8KWP8AZ1ufEuvadplzdTSSPPPcGKe4XbveQ4VWkCBVG4nJryjyU/u/rR5Kf3f1oA9b8afFhtc0nwh4EuvE3iHR/CWjaQula1Z6ZKl5az3UVzPL5sUKXKw3C5aEBy4zsyMhVz1mt/HXwL4p1zxhr6T+IPB3iTWNRKW+r2Gj2+o3EelrbJAkSu91D9nkfDmRowSQQgfaWDfPHkp/d/WjyU/u/rRcD17w38SfBng74eeJNFs7/wAU6wmr6bPaHw5qdrANMW9Z1VNRVxMxSRERGCiEsD8nnFcsfYNK+Pvgr4rfFrwghm8U6BNbeMbbUdOjsLaDy75pIbO3Auj54MbK8BAkUSfupCNua+QfJT+7+tHkp/d/WgR9ofsrf8IX/wANzabs/t7/AISX7Z4g87d5P2P7XuufL2/x+V9l8zOfm83bj5c1+o1fjd/wT+iVf2ufAZA5/wBP/wDSC5r9kaQz5M/4KYf8m8Wv/YYX/wBJLqvyKr9df+CmH/JvFr/2GF/9JLqvyKrRbEsKKKKYj0nxN8HR4aTSrF7++vPEWqWsNzZ2dtpha2nZ2A8tJ/MyzKrbjiPHbNZviL4LeMfD3iS90UaHfarcWio7y6ZaTTRMrjKsp2DIyGGcdVYdq6eH4saTovw+1Hw7a3mt6/HNLbS2VrrEESRacY3DMUkWR2OcAABUHJOOSD0g+NPgFvH2peLH03Uzqt1dWtyk8unwTtBGgQSQorTbQW8sYmxuAZgAuMnS0XLyu/0t92t/T5GSclHVa/1f+v0PMB8IfFL+C7bxMmmTy2VxeCyjgjhkacseA+0LjYW+QHOS3GKwo/CGuzNtTRdRdvtRscLaSE/aAMmHp/rMfw9favU7j41aJcWQX7LfRzWfi1vEVoghQpNEz58uQ+YPLbBPIDDIA75Gmfjl4e0sStod7rdldT+I59de4n0uCUIkkToYfL+0YcfMATuXgkjBApJRau/6+H/N/cXd2fz/AF/4H3nkNp4E1658VWXhyTTLmx1i7kSOO2vYmhYbujEMAQO+cdBWh4n8I6LpN5Lpek65d67rcN0to1vFpuyKV+Q3kuJGZ8OAoyi7s5FbGr/EfRdN+K9h4r8J6Iun2lo8czWki+Uk0g/1jBAzCINkgKGYDAPtWjo3jvwZ4T+I9v4v0tNauX+2tO+nXdvCiwRyI4k2yiVi7KXBXKr05PepWtr+d/wt+v8AwAbabt20/G/6f8E4G78FeIbDVLbTbrQdTttRuhmCzms5FmlH+whXLdD0Hauk8T/B7WfDmmeFH+zX1zrGuxzv/ZH2F1uIDGwGNvLNkHd90YFdv4c+OHh3wovh7TLeHVtR0yx+3tPf3MUcd2rXAIHlIJGA29yXGSSeO9jS/jp4Y0PTND0iCDVb2ztNHvNKmvruyt2lUzMjK6QtI6OoKYKMwGCOTjBatb+uz0++2oNu/wDXda/dd2PGL/wlrulxXcl7ouoWkdm6x3Lz2siCBmAKq5I+UkEEA9ciuu+B/wALLb4reMU07UdXGh6RCPMu73y97gc4RFyBubBGScDk89DY8b/EWx8VaLfQy674jvr0i2it42t7eysZI4+vmwREgFckJgnAxk9hkfCz4hJ8P9dee6tHvtNuAqXMEThHIB4ZSQeRk8dDmvMzCWJjhqjwavUW3ntf8L28zzsyli44OcsEk6ttE/XX8L28z0r9on9nXw78LtKtdX8J+J5tesWYR3NveRos0OTgOCpwykkDGAR79vPfhd8I5/ipdLaWvibw9ot/PdxWFjZavdSJNfTyBiqRrHG+B8oG+TYm51G7JxXQ/GH4y6V4z09NL8OafeWNgxD3El+6mSQg5ChVJAAIz1OeOlP+A3jvwP8ADq01vVdXuNas/GrqING1Kx0iG/h01SCJJ1SS6hzOQcITkJjd8xI282TzxtTCOePjyz1suttPx332X3HDk08xnhebMIqM7uy300tf53fpoU9L/Zx8Tat4Tl1iG80xdQXS7jXE8PtJKdQlsIJDHJcgCMxBch8BpFZghKq3GW+NP2dPEngjwvqutXN7pl8dFmtbfW7GxeZptKluE3RJMzRLEx/hPlPJtYgHFeo2H7Vei6X8PINMibWJNV0/QrvQYoI7CG3g1PcJYba5vJxcNJiKCdyLcIy+YSwfLZFb40ftS6J8Q/AnibTNMt9VhuvEstpNNpc1tDb2GlsjedcvEySM1xLNPyZXSM7QoxhVA9qpom49/wBf1W/bfR+6fSLlaT9fyX5O/r57v5looooICiiigAooooAKKKKACiiigAooooAKKKKACiiigAooooAKKKKACiiigAooooAKKKKACiiigDqPEtqtlrVxApQhAg3RoEVjsGSAOmTz+NexP8L/AAv4p+HHgeVNe/sfxU/hDVdWGnQaRvS9FpeajKzzXAkXa7RQsina5xAASo2A+Eb1/vD866C2+IOuWf8AZvk6gE/s7TLrRrX91GfLtLn7R58fK87vtdx8xyw8zgjauMloWeqeIvgTpvgKw8XXcHiw3/irwRDp95qGmT6Ij2Ukk80CbI5XlYSrG0uG8yFQ2MbWBJG74k1fV2sPhloOn+EfDGt+O9WgfXJBbeGNPjUJcRvHaQlIoURlSPNwwlDLl0LZVMVxyftE6nrfw28b+HPE1z/aN5rNjYWtreRWFqk0jW9zC4a6uFVZZsRRFVZzIcntkmuQg+L/AImh8aSeLDf2lxrklp9hea60+2njaD7OLYxmF4zGQYR5Z+XkE56nLEe5a3ceGIPDnjzxdoeleHtQ8S6BpWiaZeXVvpVtNpRv5ZpBdXEFs0ZtyNsUcW9YwhYyOmdyu2N46+HFofjv8TdO0FLHQLGz8OXGsmzk02K7jjzYx3EsESyD9ydzsqyLho8DbjFeZQfHPxRa3tzcW7aFbJdW4tbmzg8OabHZ3MYkEi+bbLbiKRldQVZ0LLjgiut8JftCT2PhXxsniLWNT1rVtah1EW9j9kgFubm9iihnupbnf5gIjjwIljK5VcFcmgDc1D9lfTZtc1LwvoHjZtW8Z2FnYX0unXOk/ZbUx3LwJgXBmb5o/tMbEbMEH5SWyox9c+F2hfDvT5vFeg+IIvF8ug+KY9An03XtFW2tZZ9kziYn7Q6yQ5h4D7d3O9QvDL8Vv2mtV8ceIZ4NG1O40TwvOmmozRafaxah/o0cWC08eJZAkyvIitLgfL93AxZ+KX7Qdl4j8B2uhaXqN5rGqN4hHiG51i70Cw0YeasTIv7i1eRZpGaR2eWRtxwgwcZoA2PEPgPw78YfEGuy6Tcot34YtrbTZ7XwToVrPPrkymUT6hBZxzQJ5AYKu6He20pIyIGO3Bf9njRodL1y2l8Zzr4v0Xw0niS90gaPm3VHjjkEC3Pn/M4WaIsfLCjccFsGuI0n44eLNE8R6v4gtb3Tv7e1W8k1C41OfSLKa5W4dmZ5IpHiLQElmP7org9MYFdb4M/aT1Sy8KeJPD3iO5F/YXfheTQbBrbTrVbhCNggWW4CrK8KKHAVnYD5cLwMAFn4i/s+eH/BR8V2Fn47k1LxB4Zt7O9v7S40Zre3ME8sMW5JhK5Zozcwbl2DIY7S201weseANJsbVH0/4geGdeu3lSJLOzTUIHO5gNxkubSKJVGcks4wK7H43/tH6n8RvEesrod0+l+Gr6W0m8oWVta3kzQRKqefPEPMlCPuKK8jBflwBtGOH8RfGLxz4w0t9N17xv4h1vTnZWez1HVp7iFiDkEo7kEg8jigDpdH+CcVrpfiLV/FniG10zSNFS08yTw7La67LNLcySLEi+TcrEMCGVm3SqQFX5TvFdt4M/ZNh8XeJr7SV8Uzw27SwDStYFhAlnfJPaJdwf6+7il83ypIy8MUczR7hnIIJ8b8G/EjW/AS6jHpF3bC11GNYryyvrOC9tbgKwdC8E6PGzKwyrFcrk4Iyc9XpP7TfxF0W+ur238QwyXtxfvqRubvTrS5liuHjWJniaSJjCDGiR7Yyq7FC4wMUaAdFpH7NcOsS6XeReJX/wCEa1LT9OuLfVksFYm7u7oWotDH52N8brOWIY4WBjgFgK6W3/ZQ8LX+p2mn2fxKubi6u9euvDEQ/wCEdKr/AGhAgdsk3HEJ3KPMwWyw+TAJHm+pfGA6P8P/AAR4X8MalqRTRb8+ILi41GKIKmonaESCPL/uYtrFSx+dppWKLkCsex+NnjDTdQtr621sR3VtrM3iCKT7NAdt/KqrJNgpg5CL8p+UY4AoA9A0X9lDWvFPhG51zQtTTVTJpenX+l20UIX+0JZ2dbm3DlwqtbNDOG5JIRchS2B1fxI8K6N8OvgrpOnaVrvhNJvteu2Fxe6t4aSTUNY8idY1NvMLacwkZYKxmjI3KcjHy+MeHvjr428KQeF4dK8QPZxeGXuZNJRYYWFs1wGEx+ZTvyGbG/dt3HbjJqPSvjR4k0jwtZeHEk0a80eyMzWsGp6DYXzQGU5k2STwu67iAeG7D0FAH0dq/gHQNU8LeBtbHha10e++J+o6VpOqlbO1EOhxudrSWUWD5DXSr5qMV+VVkAxuFec+H/GNv4n+OfhvwdeeBfDWl6CvivT7OLTv7HhW5tYo7pYmhlnH7y4LrlZBO0oYknAOCPN7v42+Mb6+8S3dxrfmz+I1hXUi1vDiXyiDCUXZiIx7RsMYUqBhSBV67/aH8dXs9lcy63b/AG61urW9+3pp1ol3czWxBge5nEQkuSpUN++Z8kAnJ5oA+5f2Ovh94Yl+PmseN9A0ywi0m/tLkW1mIkL6LfxSCK7gj5JjVhIHTGP3U6rjg1911+S//BPb4oeJbX9pTR/D8OruNH8RzXdxqdnsQpPIlpcSKwyModwBJTbnAByBiv1opDPkz/gph/ybxa/9hhf/AEkuq/Iqv11/4KYf8m8Wv/YYX/0kuq/IqtFsSwooopiCivofV/hj4Y0/wGuozaBFFbHwrb3/APaltdTy3S6hIDsDRCRlWJyp+ZkVc5AbPA5GT9mXxjDbWssv2SF5Z7a3kil85fIabAQs5j2OASoby2faTz3xo4SUnD5fjb+vVEqStf8ArZP9TyaivWoP2btaupLZIfEOgSPc3s2nRASXI33MQYvHzB22Nz90468jOTpXwN17VbTTyLvTbXUdRinmsdKuJnFxdJFncVIQxjODjc65we3NR5/13/LX01HdHndFew6h8AftuneCE8PanHqOq67ayXM8cnmCNEXkyJ+6BCKOCCS5JG1TXE/EH4bat8N72xt9UMcgvbcXMEkSyJlckEFJER1YEchlHWh6Oz72/r7gi1JXXqcpRXvnxG+CFj4d+EVjqFnpN3B4g0/7K+p3Ugl8u4E4Pypk7SUcop2jvzWZb/BCPRvBnjVdSksdS8U2C6etvaWc03m2ck0i/K4KqjFlcDguAc9Kpxacl2/rT7xKSkovueLUV7rYfAGFPCGvWMt5pd94si1az06KW3uJ9lm0jAMkmUCnORyofocHIrm9I/Z51/XdU1Kz0/UdNvI9PuBZ3N3At1JElwWKmL5YCxIxkvt2AEZalZvb+tE/1Qcyt/Xmv0Z5dRXpuofs+eJdItrJ76extZ769bT7W2ZpWMswk8vHmLGYkyQSA7qSAcDiszxD8JbnwzfaxZXviDRYr3S4DNLbTPPBJKc4CRCWJPMY9RtyCMEGp2V/67lf1+hwtFaXhpNHk12zHiCa+g0bfm6fTYkkuNgGcIHZVyTgZJ4znDY2n1rx38NPCPgP49ap4Ii0XxJ4ms5DYw6XbWusQWt2Zp4IZNryG0kV/mlKgBE7c1UYuTUVuyZSUVd/1/wx4nRX0l4Z+Cfw68T/ABz17wLZjWZtMtLxLKPU28S2UE0Tqm2bZbvah74iZXCrAFZlC8fMDXznfWr2N7cW0iujwyNGyyoUcEHBBU8g8dD0rNSUrNdVcta38v6/T5dd0Q0V7befB/wdqnhH4W6loesarZt4n1uXRdRv9aEKQwFPswaZIkPyKpnbhpWyEBymSB2vi/8AY/Pm6bNpmna94N0/+2b3T9Ql8WzJKYrG3jEh1P5IYtkRQS/K2QSqhXbdxc/c+LRd+nTX095ff2TEneKkuqv59V9/uv7vQ+XaK9B+Ovgvw/4E8e/YPC0+o3Gg3GnWOo2smqsjXOy4tY5sPsVVz+86Acep61s/s++AvBnxK8QLoHiFfEIv7p3f7dpk0EFpplrHC7yXVwZEcuqkLlf3YCgneSQoTur36f8ADFzi6bSl1t57q6/r7jyWivX/AAV8PPBnjP4beKr2P+37TW/D+ltfT61PNCultcG6WOC0EXl790sZyrGUHcGxGQuT3Hxf/Zb0jwB8PfFOq2k+p22p+Gbm1t5JNSuomXV0d/ImnhtljWS3iWcFUZ3kEgV8H5TRK8N1/V7f8P1trtqKzvb+u/8AX+Z80UV6T8CPhnZ/E/xLrFpeRalqA03SLjUodH0VlW+1OWPaFt4SyPhjv3EiNztRsKeo9Ym/Zo8KaF4m13TdXN9HqR0rStR0bw1e+KNP0m8eS5JWe2kuLiHy3kiYNwiKTgcAnAJe64xfXb8f/kX92vQi6s32/wCB/mv6ufL1Fdpf/DmaF/G8k91Y+GpvDdwIm0HW74f2jKWmaPyogEUTPHjLkBBjkDnFei2n7OljD8B9T8SX1zfyePGSwvdP0Oz2si2d1cLDA0y7CzSS/OyKrDChCc7wARfMk11t877W/P0TKknF2fn8rf8ADperR4NRXvHxF+CXhT4baJ4NeW9vtd1mTV7nR/EcEGo29pbR3McVtI0ME7xusflm5EbySbl3RucKBXNfHv4YaV8Nr7ww+jLeJZ6xpK3zx3F/DqMcUvmOjJFewIkNwoCqSYxhSxUkkUSajbzdvwuvVND5Xp5q/wAr8v336b/c7eWUUUUEhRRRQAUUUUAFFFFABRRRQAUUUUAFFFFAG34k0iLQ9V+zQXD3UDQQXEcskQjYrLEkoyoZgCA4B5PSsyuj+IEMlt4hjgmjaKaLT7COSNxhkZbOEMpB6EEEEdiK+jvh/pvh/T/hv8ObvX7XwFb+Ernw5q9xrx1BLMa5eSfa7+KAxbx9oLArEI2gwcxsHO1VFZ9Sj5e13w/f+Gr2K01KD7NcSWtteom9XzDPCk8LZUkfNHKjY6jOCAQRWfX2T8Lm8Cal4wt9U1fWPDGpQ/ZPCmn32n6xcaTFFBax6PbrcTiW9gmaQpIjwvDbbJAw+Z1wuMieD4YWfha28a3mnaSdNa+XwLLYWlkrRhI7syy6irAlnkNgYk81cv5j7s5I2lgPk2u40r4K+L9c8JweJLHT7a50uYx7SmpWvnhZLn7KjtB5nmqhn/dh2QLnvX03q2rfDofFbQ47vwn4HttAtb/VXg1Vde0W7trm2+xT+RFLbWkMTKhdYWRrndKGO3duavFvCHjBk0XSdWkn8N6Xc6v4shh1g2phtbp7WH7LLEv2aONI7e1WRXcshAkkC7h+5U0AeR69od74Y1zUdH1OD7NqWn3Mlpcw71fy5Y2KOu5SQcMCMgkehqjX3L4h1L4W6v8AFLUNUsz4P1Lw/KusyWi3l1p8N/ca8ZZG33E06yobeRd7QPIrWwDRBx5nXm7AeA/HGs61Hq3hPw/4aTwnFa+LrpdJu9O1M6rBbxtFc2xns0jt085jZ4hRVUN5h25kJBYD4+roNK8A6/rfhDXPFNlprz6BojwJqF7vVVhaZtkYwSC2WwDtBxkZxkZ9I8M6h4O1bw+19rEPwwttVuZZ5pYdTi8SRXMZaVyFCWX+jKoBARU4C7Q3Oa9K+Gniz4f+D/BfgfwJqvi+5tE8SWd43iJdKtba6sd2oqIIftFy9wrW72yRwSsoibawbOckUDPmPXvCuqeGYNIm1K1+zRatZLqNk3mI/m25keMP8pO35onGGweOmCM5NfXOiS2Ees+D1GqeBtbs/Dng6GC/sNTu9GlW/uk1C82WkUt8SsYbeHd0wRFyMs0QaZ9O8H/8Kt8Vx+I5fA11qV5oN9qEcmlXehQfYNUFwzRWVvFbxm7faEDLIs/lMr7Np7lhHzh4s+EvijwPpEepa3ZW1nC0kUUkA1C2lurZ5Y2kjSe3SQywMyIxAlRT8p7iszwP4H1v4keKLLw74csTqWs3u/yLYSpHv2I0jfM5CjCox5I6V9M2zeHdY1621T4hp4R1TxNqmpw6HNe+H9SttQGuWlzE1vJevbo0htJ7crDMsoWBnLFSm4swRb3wh8FYfEkH/CQReH9c0SxtPCEN54YtrbUL6W+ZhdaneNFLJCzxh0Nqkhf5VbAAxhQD5y8J/DLxH40k1UabYxRxaUqtf3WpXcNhbWm59irLNcOkaMzZAUsGJBwDg4peL/Bes+A9XGm65Z/ZLl4Y7mIpKk0U8Miho5YpYyySRsDkOjFT2NfS/wAXX8K/Enwz4g0fwZ4k0W2uNX1u38bwWeqalb2KypcWwiuIHkkk8qK4hn8xjA8g/dy5QtgivHvjXqVhDo3w+8MW+oWetal4d0VrbUNSsphPGJZbmacWyyrlZFhWULvRmQkttJAFAGBf/CPxJpXhOz8R3q6VZ6beWovrZJ9csUu54C7IHS1M3nMNyMOE/hPoa2bX9nH4gXmt3ejpo9pHq1vL5H2GfV7KKaeTykmKQI8wM7COSNisW4jeoOCQK6n4ha1pfjDwp8MPC2l6d4ZvtZPheGF9cu9Wa2msJFvLqRoHd7lLWP5cHEqbv3vByUx6T4jfQ9T+L/in4n+Gda8Oa/r2nazFZ6NY6j4gsdOto5ILSIf2g32mVGnjWUfuljwGZNxfauxwD5yT4R+KX8Jf8JH9ggXTjbG+SJ7+3W8ktg5QzpamTz3iDBsyKhUBWOcKSMfxf4Q1fwH4iu9C120+w6rabPOt/MSTbuRXX5kJU5VlPB717Vb6ZY6r8KLq28dat4UvrbRNFuP7A1fTdZhfWLe6Ew8vTngV988Pmeb8zRMqrJvjmEYAPud9deFvGfxYtZfD03w8143/AIqtodffxHJYXM89j9js0iSz83LMhP2hSIMyGUKOgoA8S/4J9f8AJ3vgL/t//wDTfc1+zFflp+yX8OYNM/bb0fUrXW/DsFsLnXrmLR4LsLcwJGbi1EHkhcLIQ4lVAf8AUozdsV+pdIZ8mf8ABTD/AJN4tf8AsML/AOkl1X5FV+uv/BTD/k3i1/7DC/8ApJdV+RVaLYlhRRRTEehWnxv1y1u7aU2enTwxaIugPaSxyGGe2XOC4Dgl+eoI+lLdfGvUb7XbLXrjQ9Fl1+2eCRtUMMwlmMWNu8CXZzgAlVUkcZFeeUVTk2+a+u/6/qTyq1v6/rRHpNl8fPEFjNp8sdnppax1W41eMNFJgzTBw6n959wbzgDB6cmotP8Ajnrun21kFstNm1CwiuIbDU5YpDcWiTZ3BMOEOMnbvViMmvO6Knpb+trfloOyvf8Arv8Ameh6P8cde0W18PxRWunTyaLFLbQzzxOzS28md8Eg37WQ5HIUN8ow3XPM3HimJ9c03UrXQ9M05bFkdbO3WZoZSrl8yb5Gds5wfm6AAYxWFRVXd+bqHKrW6Hdt8Ztek1zxXqckdpLL4kga3vIXR/LQcbWj+bIZMfKSTj3rR1P4/a7qVvq2NM0i0v8AVTbNealbwyieV7dlMT/NIUBBQZwoByeK8zopJtJJdAsm7nqr/tFa2JrmaDRNCtZ7rUINTuZYYZ8zTxEFS2ZiADjkKB36Ek1gWvxX1BLfX7S90zTNW03Wr06hcWN2kojSfcW3xtHIrr1x948cetcTRR/X5f5L7gsv6+f+b+89A074y3ukaFqmj2ehaTb6fqkhe8gU3XlygvuKhDPsQYwuUCttAwcjNP8AEfxt1XxTYGz1DSNHuIEsTY2xnhknktQWyZI5ZZHcP0GSxAAGAOc+eUUPXf8Ar+rsEki9omo2+k6rb3d1plprNvE2XsL5plhmGCMMYZI3A7/K4PFen6z+0pq+q/FCP4gweGfD2leJo7ZoFuLRLtkD+QII5wktw4EkaAbCMLkAlWPNeRUUt/6+QWT3O0+H/wATP+FeXa6ja+GtF1TXoJxdWWs6l9qeeylA+R0RJ1hYqw3jzY3GeuRxVSH4g3A8LeItHu9I0fU7rW7qO7l1y+tPM1G3dX3MIZt3yByTvGDmuWooev8AXp/kvuK/r8/836XPSNa+NCa18O9I8HP4J8OW2naXcNdW9xA+oeeJX8vzmJa7KnzBEoYbcAE7Ah5C3fx/8VWlvp9p4Sm/4VzptkJTHZeErq6thJJKVMkkkrzPLIzBI1+eQgCNQoHOfNqKptvUlKyS7f8ABf5t37nqOpftF+KPEnjvRfFHieDT/GMuk2K2EOm+I0lvrJ1FuITI8ckhzI2BKzAjMnzY7VW+Hnxtn+HngzXvDKeFdB1qy1t0N9PftexXEsa42w+ZbXMR8rOWKdCTznAx5vRSbumn1/zv+Y37zTfT9NEeoXnx1+2/De18Ev4G8NR6RaTT3Vu8MmoxypcS5HnttvAksiLhUaVX2qNvQkGbx9+0h4l+Ifh7UtMvrHSrW41hrRtZ1W0jm+16obaMJD5xeVkUDG7bEkalucV5TRSaurPy/AFpsdxrXxNtPEHjGLXr3wJ4VECWqWp0WytriysXKrgSlYJ0fzD1JD4J6irrfGiXUfGNz4j17wn4e8TXBECWVlqKXSWmnRQjEUMEME8a+WqhV2ybwQvOSWLedUU1pqvX59/xFZHZXnxS1DVl8aS6tpmj6zqniqZLi51W9sla6tJBKZGa2ZSBEXJw2AQV44ro9E/aj+KGheFNW0CHxprkttfx28Uc82q3TTWKxPuAtmEoEYYYVhg5UY4ryqipSSVlsXJuTvLf/M9Rv/2kPG3iPw1p3h7xTqd14y0W1vpb6W01zUr2UXhdI1WOZknVmjQxh0ClSrM5z82K5nx78Rr7x4NJtnsrLRtH0i3Ntp2kaYJBbWqMxd9pld5GZ3ZmZndiScZwABylFN67/wBaW/LQLvbyt8r3/MKKKKCQooooAKKKKACiiigAooooAKKKKACiiigC99m/2v0rR1PV7/WbLSLS8uvOt9JtWsrJPLVfKhM0s5XIALfvJ5Wy2T82M4AAteKNLttF8QXtjZ3IvLWF9sdyDkSrgYYex6ivQbz4Ba5e/Djwz4u0K1+2WV5ol3quoGe/tkdTb3lzFKYYWZZHRIYoGbar4LkkgEAZ2LPI/s3+1+lb/iDxhrPijRtD0nULuJtN0WFobC1t7SK3SINguxEarvdtq7pHy7YGScV1138CvFvhrR5/EGuaIv8AYmmpaXWq21vq1ol7bQTsgiEkW55YHkEi7fMizznaQprofE3hf4Y6B4R8Ha5caV4ssLjW3ubo6UdbtriVrGNXjik3/Y4/KMtwpUNtkASN2wxIFIDxH7N/tfpR9m/2v0r6J134I+DfDVhrXie7OuS6HYaJpOoN4dF9DHqNvd3zkLby3HkMoCxxvMD5CkrJEMDO48v4w+DkPhr4p+NPDOm2194ksNJ0ybVLaaO8itJYrf7OlxHNLvRhII0kXfGgVnIO0rQB499m/wBr9K37DxhrOmeD9T8MWl3FBo2pzJNeRpaRCWcoQUVptvmFAVDCPds3DOM812Wvfs4/EPw1pUuoX+goIoktpZILfULW4uVS4dUgc28crS7XdlVW24JOOtGp/BLWvh+bfV/HFg0XheDVF0zUZNE1Oyu7iOcK7tbYSVxFNtjYHePk4JU8KwB5d9m/2v0o+zf7X6V7Z4/+BUaavJ/wiCm1sLC1tk1mPxJrllD/AGbqUgkZrL7TJ5Ec0irHkqg3KdysAykDnV/Z/wDHb+FZPEQ0eD+zI9NGsSA6lai4jsm+7O1v5vmqjY+UlPm4xnIoA81+zf7X6UfZv9r9K9P8U/s6/EDwZpl3f6roUcUVoYBcw2+oWtxcQee22FngilaRVc8KxUAkjB5FYniL4Q+O/B+lvqWveCvEWiacjKr3mo6VPbwqScAF3QAEngc0AY3g7xRqngLXrfWtGltodStzugmubGG6ETAgh1WZGVXBAIcDcpGQRWTc+de3MtxcTvPcSuZJJZSWd2JyWJJySTzk103g34d6949XUZNItrc2unRrLeXt9ewWVrbhmCIHnndI1ZmOFUtlsHAODje0/wCAfjbUvEGo6DHp1lFrthMbeXSrrV7O3u5HCb/3MMkqvOpXDK0QZWBBUnIoA82+zf7X6V03hT4i+MfAdtPb+GvF2ueHbedxJLFpOozWqSMBgMwjYAnHGTW1bfBLxld63FpMWlRNey6fb6rGDf24je2neOOGRZDJsO95o1Cht25gMZzXSzfsmfFKB1R/Dtssjyvbon9s2JZp0Us8AHn5MwUE+UPnwCdvFAHkV/Nc6rfXN7e3ct5eXMjTT3Fw5eSWRiSzsxOWYkkknkk1X+zf7X6V2tz8JvFlpoeqaxNo8iaZpllY6hdXJlj2Jb3m37M4+b5t+4DC5KkMGClWA9R8Q/s8jwX8I7bWtQ8H+K9b8Q+Zqdvqdzo9/E+naNJbOEUz+XbSgjklh5yf6thkc4APnn7N/tfpV7Q9RvPDetafq2nXH2fULC4jurabYreXKjBkbDZBwQDggj1r3/VP2ffCjaZpWq6Pq91eWvja4stP8GWct7ELhbmRglyb8iLASCT5D5YBYuh4BNc7pnhD4W+JPiHoXgzR5/E801xrtjpb649zbG31CJ5linkjhEe63yW3RkyT8ABhzkMDpv2E7661r9s/wfqd9N597eTalcTybAu+R7G5ZjgYAySTgDFfsTX5yfsa/s/6b4W/arudTtr+81DRdMsJdT8O6grR7LuKUSWzrNgH54i0sbqCpEkZ4xgH9G6QHyZ/wUw/5N4tf+wwv/pJdV+RVfrr/wAFMP8Ak3i1/wCwwv8A6SXVfkVWi2JYUUUUxH1lqdzcTeA0srS8l1Kf/hArZj4euGK25QghrpPvbpI9o+XapxjDHoORm+EHgjwZ4q0zTLzUrzUtbt72w82z2v5N0krKGJzbbI1DMCP3km4KVyrHjxK38Ya9aXdvdwa3qMN1bwC1hnju5FeKEdI1YHIT/ZHFSN458SPY21k3iDVWs7VkaC3N7IY4Sn3Ci7sKV7Y6dq2c06nOl1v+Lf6/1pbPlfLy+X6Jfoe9eNvBPh7xf4t8aeJfE+r6laaVpWqR6WUa6aQxAtkspW3kKIN2Fj24yTlxmucv/g/4Psb3wVYxXOs30niO/mtxd+alusUUdwI8+U8O7cVPQkbSO/SvJrHxr4h0zULq/s9e1O0vrs5uLqC8kSWY5z87Bstz61HN4s1y4uLSeXWdQlns5GltpXunLQOzbmZCTlSW5JHU81nC0eVNbWv+v3vX8CpJu9n3/wCB9x7DafCLwKINZ1TUb/VdO0XTtbOhnfceZKWXO6bMVq/3vlCxlQMg5k5ArlviH4C8N+C/Bmg3trLqeo6lqzXQjuXkWGBFhm2BjCYt+WX+EsCp9elcVpnjPxBol1d3Ona7qVhc3bb7ia1vJI3mbJOXKkFjkk5PqaqX+t6jqsNvDe391eQ2+/yY7iZnWPccttBPGTycdTSeyX9bf56/gV1v/X9f8OfQXg3x3afD74O+BNSvbvUvsovNRD6ZZIrRX+cgRzFnACZI52v3wBXPXHwe0C7R7dZb631Sfw2/iZb2OWM2MYLEiDy9m7aF+Xf5nXnb2rxubVr640+3sJby4ksbdmeG1eVjFEzfeKrnAJ7461bHizXBoZ0UazqA0c/8w/7U/wBn+9u/1edv3uenXmiWt316fdb87P5ebFFctv663/K6+fkj6g8c+FZ/F1z4t06PV5tOiu20G0eMJG0T+ZtUM+V35XOQFZcnrmvKrH4aeFtf8eeIfB+nxa3ZatZQXSWD3l3E4u7mLkKUEKlVYKxwGJ6c15peeLNc1CK5iutZ1C5iuRGJ0mundZdn3NwJ+bb2z07V0nhj4rajpfiax13W7nVfEl5poZtPW61RwkMhGMtuDFk6ZVSuccnHFW3FybfW/wCK0+7UzUZRikulvw/zNf4m/D/w74Nsr6206LxDealYXENrc6jIiNpolMQaWPeFBDhjgKc8A8msP4RaH4R8Q+MEtPGusSaLo5t5WSWNzEJbjbiKJphDN5KliMyGJwADkDORz+o+KdX1VL2O51K5kgvbpr24t/NYRSTMeZCgO3dz1xT/AAv4x1/wPqTaj4c1zUtA1BozCbrS7uS2lKEgld6EHBIHGccCoi9W31/y6foaSWlov+v63/Cx9B+GvAng7wjovxjsfE/gTVvtmlaZZXkEf/CQ2V1LBBLPa7DDcpZum9vM3eagIKPs2g5auQufBPwy0L4YeFPEmsweLPtPid9UWD7DfWrpYC3k2QlkaBTPksgbDxdGIxkKPObL4m+MNM8TXXiSz8V65aeIrpSlxq8GozJdzKcZDyht7A7V4J/hHpWZq/ifWPEEUUeqatfalHDJLNGl3cvKEklbfK4DE4Z2+ZiOWPJyal3kl00t/X+f+ZUXyr53/BL81f526Hruo6dB4y+C/wAK9M0+81DTrafxJe6U1vqVxBPbxTtHZGS4jKW8ciqxmGUd5NoQYbk5uab4Y+Hvhv8AaS0HwefDfiG+g0/xGmk3p1PVbcreyLcpErmH7HhIyQxaJmcsrBd6/ePl198WfHGp+Gl8OXnjLxBd+HliSBdJn1Sd7QRpjYgiL7Nq7VwMYGBjpUHiH4k+LvFy6euu+Kda1pdOObMajqM04tjxzHvY7Pur93H3R6Vs5L2nMlpf79Evls9PPyQmk6ait0mvxk/xuvuv1Z1/xG8P+EdW+L/iPS9LuI/h/p9pd3UcsniC4lu4TKk7LtiW0st0a4xtQowUKcv0FdJ8Mfgr4W13TdEm1eXWfELa/wCKz4Xsrnw3KLe3twqRM104mt2eUMJ1ZYisJ2xOSw/h8j8VeN/EXju9ivPEuv6p4hvIo/JjuNVvJLmREyTtDSMSBkk4HHJqfwz8RfFfguzvLTw94n1nQrW9/wCPmDTNQlt0n4I+dUYBuCRznqa56UfZ0uR6tJL1s1f0uk1ptfTYucuaTa6/ho/vs7Pzt5nqfjb4YfD34a+DNCk1l/Emo67q8WrIl7p11bpaQTW1zNbwN5DRFpEdo03DzVKjJBfIUX/FHhu28c+Bv2f9J0+91az03V7y90yG0v3gvPsLNeRJJJEYoIWcMzs+xyxGAobufB7vWb+/sbKyur65ubOxVktLeaZmjt1ZizCNScKCxLEDGSSa7ay+P/xChvtHmv8AxfrWvWel3lvew6XrOpT3Vm7wurxh4mfBUFRxx7EVpTbTXO76/hd9O9mZ1Nb8mm56r448BfDH4SeNvB40W51i+1pNfnjuILLxVp180EMMoW2n3xWjpG7uQ5ikDFRGVI+YMGeIvh54VvvHHx01/wAaXPiHWV8OeIIoE/s65trWe7a4upo3eRjAyAjaG+SMDORgAgryfjn9rb4g+M4NMjt9SuPDbafcy3cVzpeqahJdeZIgRsXFzczSom0EeXG6odxJUnBHnmv/ABM8X+KzcnW/Fet6wbpIo5zf6jNP5qRszRK+9juCM7lQehYkYyamN7wc9bPXzXu39Ho/v6WSLdkpRWzt+HNv99vK3W7Z1Hj34U6L4U8b+OdGXxppmnLoGpXVnaWmqw3jXd6kbEIVMFs8QY4C/O6DPPA5r1wfshaRF4IuPG7arfto0egR6tHp6tG8wZ9OSdJGl248o3JeHb5YOE+93r5g1PVLzWtRub/Ubue/vrmRpZ7q6kaSWVyclmZiSxJ6k1rn4h+KjYGxPibWPsRs104232+Xy/sqtuWDbux5YYkhPugnOK0pSdNK+rVtfRP83b9Bzacm4qyv+qdvuTXzPqLxz+zv4C+IHxV1G08Nyaj4XJ8et4cvFmMBtAjQTTsbWGONTFtaFo0Qs+7KHgnaOOtvhF8G9W1PU59I8R6zrNjpHh2/1fUdN0+4bzopoJoliQXNxYQArIsjAgQExlM5fIFeETeNvEVxNLNLr+qSyy3y6nJI95IWe7XO24J3cyjccP8Ae5PPNaGt/Fjxv4mleXWPGXiDVZHtns2e+1SeYmByC8RLMfkYqpK9CVGRxWElJQtDe348qV/v1t5kp+85S1u/w5m7etrK/kdb45+FXhjS/HEthY+LrXwxo02l6dqlofE4uZ5mF1axzmItZ2rhihfG4ogIxjvUU3gXwx4W+D+h+Kdat9X1rUPEVxf29idMvo7S2sjb7FBl328jSlmcNsBjwoHOW4831HVb3V5o5r+8nvZY4o4EkuJWkZY0UJGgJJwqqoUDoAABwK1tC+Ifirwvo19pGjeJtY0nSr8MLuxsb+WGC43LtbzI1YK+V4OQcjitZW97l26ff/lpcq65ovta/raz8t9bfI9U8UfC74e6NN4S8NxSeI4PE/iHR9Jv4tVmureSwhnuzF5kbweUriNUZ2EglJztUoRlq3Ne+B/w2025uby71DxJ4X8P6F4xbwvrF5qciXRuUEcj+dAIrdTE2YSChWbaJUbLY2t89anrN/rUkD6hfXN+8ECW0LXMzSGOJBhI1LE4VRwFHAHSukvPjF4+1HUdM1C78ceI7m/0vd9guptWuHltNy7W8pi+Y8rwdpGRxTbvJtLq38r3X3LTzvfdEJdPL8bNP73Z+VvM9JPwm8C6V8TIdO8SzXXhzw1f6Qb3Rbg+IoLyLVZTMY4mF9FZFbeJ9rn97ACmwh9mfl4zxD8LrXR/GniLRtX1jT/h/Nprp5ena/cz6jM4dN4Cz2Nq8b8FTuIQHeuM84yY/jF4+i8RyeIE8ceI016W3Fq+qLq1wLp4QQRGZd+4pkA7c4yK5nVNUvdb1G51DUbufUL+6kaae6upWklldjlmdmJLEnkknNRZ3v5P89H5u2/Tsl1a0Wu+n5a+i8vvZ7novwL8NX/h3RrOUa9L4j1bwld+K01e3li/s60WHzyIJIPKLsCLcoZfOXDyoNhxg4vxC8J/DLwLZabpxt/Flz4hm0bStWecXtr9kkkuIYppoAnk741CSNtl3OQ2AYyBuPnsPxD8VW/hSTwvF4m1iLw1ISX0ZL+UWbEtuOYd2w/MA3TqM1nv4j1aTU7TUn1S8bUbMQrbXbXDmaARBViCPnK7AqhcH5QoxjFaycXeytqv/bv84rz5dd2OFo0+WWr/AF93/KXpzabI+kfEHw50z4pfGr4d6Rf6nq0fh658E2uo7r26tVms7WKzllSA3KwRRKo8tU86SPjdubNX/hv4Y8A+Ff2jfCGjeDtR12PUrrSWefUbHX9P1FdNvZLeUywiQWTQ3CrH8hK93JDArivIPDX7S/xD0PxPY63qPiXU/FctlHPHBBr+p3c6RedE0TvGyzLJE+1jiSJ0YeuMg2vGH7UvxF8U6za6lZ+IdR8LzW9oLIf2Lql6skkYkeQCWeWeSeXDSMR5kjBc4UKOKxaa2e7k3/285PXvuk+9r6O95Wqd97K3yt/k/wAjo/gh8GPBHjzw54XbxBJ4gXWfEviC80S1k0y6git7VYbaGUSurxO0h3zAFQy5GTuBGG8Brorj4keLbvU4tSn8U61NqMVy97HdyahM0qXDKqNKHLZDlURS2ckIozgCudrRtN3Stt+Sv+N2Ha39O7/Sy+QUUUVIBRRRQBt3d3LfXDzztvlbGWwBnAx2+ld1pnxX/s7/AIRv/iV+Z/Y/hjVPDn/Hxjzvtn9ofvvu/Ls/tD7nO7yvvDd8vBa7ouoeGdWuNN1KI217AQJIvMD7cgMOVJB4I6GqG9v7x/Osiz6Y1T4weG/iJ8P/AIvanPpf9h+L9b03SxcNNq6yQ3ksV5ahxa25jV0BCNIyl5SAvBUA54y3+N1g3xT0fxVeeG5bjS9G0qHTNN0hb6Mm18q18mOVZJYJFLLIWnG6MjeRnIHPjW9v7x/Oje394/nTA9ptvjB4Yt7fxVpknhvxDqGieKFhm1T+0PEcU2oPdxTmVJ0ufsQUZ3SKweNy28ncDXd+G/inpPi6D4neNNasNK0LUb3StTso7kawpnlSa0htrOxisid7iPaSZwuMFtxULXy3vb+8fzo3t/eP50AfWnxI+POieEfilql74H0q3u/FN9aaPaP4jk1pJtPdIo7WV0WEIqoWaGOORmmIAjbAQk4o/FvxJ4Z0f4ZSR21pa2Gvax42TxBPpdl4st9afyo4Zd7C4tFCwJvnCorEy8OxLADHyzvb+8fzo3t/eP50XFY9v8F/HXSPCni3xhrFx4a1LVrHX72S5bQbvWknsJYzI8kcd4k9tK10yMwIl3I+QSCCxNdj4S+MHhXxZpPjy71LSf7G8X3PgRtKl1W51lfs988KQQosVsY1KyyLGhIEjD92dqDJI+X97f3j+dG9v7x/Oi4z6Z/aL+K3hX/hOPHVv4b0mPVL3Xo9Ptb7XTq4ubOa2iW3maKCKJF2FpIIQ7NLIf3bBQm7jyXWPiBpt5aoNJ8DaD4X1COVJodU0i61P7TCysCCnnXkiDkdduR2IPNcBvb+8fzo3t/eP50gPXdH+Od7qel+ItK+IB1nxzYayloGuJdaeO/t3tpJGh8ueVJhs/fzAoUIO/IKkc+ieBf2xLfwTqk97B4PurfF7FJBBpeutapJZw2UdnbWd2TC73KRRxbhllHmO7beSK+Xt7f3j+dG9v7x/OncD6Sf4xS+AfhT8OdLmk03WNcjv7fU7k2F+s0q6VbTGezsrh13qjmaW4YpndGqQhlB4rG0P9pT+xvEGm6p/wAI5532PxneeLvK+3bd/wBoSNfs+fLONvl5345z90Yrwbe394/nRvb+8fzoA+jvh3+1ze+AdF8GaYfDsWpw6LHNBqTzXeH1aDMzWsLMYyY0gaeQqAWzwBtHXltS+MOgeMfBGjaN4w8O6zquqaZc392up6brcNmJ5LuUSuZIms5ejKPusOp6dvGt7f3j+dG9v7x/OkB9AX37UM11bmwi8Pi10fSbiwvPCVlHef8AIBntfuOX8vNwJAWMgbbuZtwKkCshfjF4RsvG+l+MdO+H8ll4hh1iz1i6H9tM1mHilEsqWsPkhoRK4/5aPPsUkAHgjxbe394/nRvb+8fzoA+6f+Cffx/u2+Mtv4JutLF3a65dX9zY3T3TbtMDQvcTRqu0h0cwR8fLg7m53EV+m1fjR/wT6dj+154CBJI/0/v/ANQ+5r9l6APk7/gpaFP7PdmHJVP7ZTcVGSB9kus4GRn86/JbydM/5+7v/wABV/8AjlfrP/wUw/5N4tf+wwv/AKSXVfkVWkdiWXvJ0z/n7u//AAFX/wCOUeTpn/P3d/8AgKv/AMcqkql2CqMknAFes/En9lD4qfCHws3iPxb4W/snRllSE3P9oWs3zv8AdG2OVm5+lU/djzPbb5/0194lq7I8z8nTP+fu7/8AAVf/AI5R5Omf8/d3/wCAq/8AxyqNFAF7ydM/5+7v/wABV/8AjlHk6Z/z93f/AICr/wDHKo0UAXvJ0z/n7u//AAFX/wCOUeTpn/P3d/8AgKv/AMcqjRQBe8nTP+fu7/8AAVf/AI5R5Omf8/d3/wCAq/8Axyu+X9mv4jv8RF8Cjw5nxU1l/aIsPt1t/qNu/f5nmbPu843Z9q8zpX/r8PzTQk09v60v+TT9GXvJ0z/n7u//AAFX/wCOUeTpn/P3d/8AgKv/AMcqjXTan8NvEejeBNG8Z3mneT4b1ieW2sb3z4286SMkOuwMXXBB5ZQD2zQ2krse+hj+Tpn/AD93f/gKv/xyjydM/wCfu7/8BV/+OVRopgXvJ0z/AJ+7v/wFX/45R5Omf8/d3/4Cr/8AHKo0UAXvJ0z/AJ+7v/wFX/45R5Omf8/d3/4Cr/8AHKo0UAXvJ0z/AJ+7v/wFX/45R5Omf8/d3/4Cr/8AHKo0UAXvJ0z/AJ+7v/wFX/45R5Omf8/d3/4Cr/8AHKo0UAXvJ0z/AJ+7v/wFX/45R5Omf8/d3/4Cr/8AHKo0UAXvJ0z/AJ+7v/wFX/45R5Omf8/d3/4Cr/8AHKo0UAXvJ0z/AJ+7v/wFX/45R5Omf8/d3/4Cr/8AHKo0UAXvJ0z/AJ+7v/wFX/45R5Omf8/d3/4Cr/8AHKo0UAXvJ0z/AJ+7v/wFX/45R5Omf8/d3/4Cr/8AHKo0UAXvJ0z/AJ+7v/wFX/45R5Omf8/d3/4Cr/8AHKo0UAXvJ0z/AJ+7v/wFX/45R5Omf8/d3/4Cr/8AHKo0UAXvJ0z/AJ+7v/wFX/45R5Omf8/d3/4Cr/8AHKo0UAXvJ0z/AJ+7v/wFX/45R5Omf8/d3/4Cr/8AHKo0UAXvJ0z/AJ+7v/wFX/45R5Omf8/d3/4Cr/8AHKo0UAXvJ0z/AJ+7v/wFX/45RVGigD//2Q==;" vertex="1" parent="1">
                    <mxGeometry x="218.8" y="70" width="402.4" height="450" as="geometry"/>
                </mxCell>
                <mxCell id="4" value="&lt;b&gt;&lt;font style=&quot;font-size: 18px;&quot;&gt;Панель разработчика -&amp;gt; Network -&amp;gt; Headers&lt;br&gt;Так же можно увидеть протокол в адресной строке браузера&lt;/font&gt;&lt;/b&gt;" style="text;strokeColor=none;align=center;fillColor=none;html=1;verticalAlign=middle;whiteSpace=wrap;rounded=0;" vertex="1" parent="1">
                    <mxGeometry x="120" y="480" width="600" height="220" as="geometry"/>
                </mxCell>
            </root>
        </mxGraphModel>
    </diagram>
</mxfile>